<?xml version="1.0" encoding="us-ascii" standalone="no"?><svg xmlns="http://www.w3.org/2000/svg" xmlns:xlink="http://www.w3.org/1999/xlink" contentStyleType="text/css" height="858px" preserveAspectRatio="none" style="width:1130px;height:858px;background:#FFFFFF;" version="1.1" viewBox="0 0 1130 858" width="1130px" zoomAndPan="magnify"><defs/><g><!--class VisitadorPersona--><g id="elem_VisitadorPersona"><rect codeLine="2" fill="#F1F1F1" height="86.1358" id="VisitadorPersona" rx="2.5" ry="2.5" style="stroke:#181818;stroke-width:0.5;" width="222" x="695" y="35.6"/><ellipse cx="747.75" cy="51.6" fill="#B4A7E5" rx="11" ry="11" style="stroke:#181818;stroke-width:1.0;"/><path d="M743.7813,58.1 L743.7813,56.3969 L746.1406,56.1313 L746.1406,47.9281 L743.7813,47.6625 L743.7813,45.9594 L750.9219,45.9594 L750.9219,47.6625 L748.5,47.9281 L748.5,56.1313 L750.9219,56.3969 L750.9219,58.1 L743.7813,58.1 Z " fill="#000000"/><text fill="#000000" font-family="sans-serif" font-size="14" font-style="italic" lengthAdjust="spacing" textLength="108" x="768.25" y="57.032">VisitadorPersona</text><line style="stroke:#181818;stroke-width:0.5;" x1="696" x2="916" y1="67.6" y2="67.6"/><line style="stroke:#181818;stroke-width:0.5;" x1="696" x2="916" y1="75.6" y2="75.6"/><ellipse cx="706" cy="90.634" fill="#84BE84" rx="3" ry="3" style="stroke:#038048;stroke-width:1.0;"/><text fill="#000000" font-family="sans-serif" font-size="14" lengthAdjust="spacing" textLength="169" x="715" y="94.5659">visitar(Mujer mujer): void</text><ellipse cx="706" cy="109.7019" fill="#84BE84" rx="3" ry="3" style="stroke:#038048;stroke-width:1.0;"/><text fill="#000000" font-family="sans-serif" font-size="14" lengthAdjust="spacing" textLength="196" x="715" y="113.6339">visitar(Hombre hombre): void</text></g><!--class Persona--><g id="elem_Persona"><rect codeLine="7" fill="#F1F1F1" height="124.2717" id="Persona" rx="2.5" ry="2.5" style="stroke:#181818;stroke-width:0.5;" width="350" x="235" y="433.67"/><ellipse cx="380.25" cy="449.67" fill="#A9DCDF" rx="11" ry="11" style="stroke:#181818;stroke-width:1.0;"/><path d="M375.4219,455.42 L378.7656,443.2325 L381.9063,443.2325 L385.2813,455.42 L382.8125,455.42 L382.0781,452.4044 L378.5625,452.4044 L377.8125,455.42 L375.4219,455.42 Z M379.8281,447.3731 L379.0781,450.3731 L381.5938,450.3731 L380.875,447.3731 Q380.7344,446.795 380.6094,446.2481 Q380.4844,445.6856 380.3438,445.1075 Q380.2344,445.6856 380.0938,446.2481 Q379.9531,446.795 379.8281,447.3731 Z " fill="#000000"/><text fill="#000000" font-family="sans-serif" font-size="14" font-style="italic" lengthAdjust="spacing" textLength="51" x="400.75" y="455.102">Persona</text><line style="stroke:#181818;stroke-width:0.5;" x1="236" x2="584" y1="465.67" y2="465.67"/><line style="stroke:#181818;stroke-width:0.5;" x1="236" x2="584" y1="473.67" y2="473.67"/><ellipse cx="246" cy="488.704" fill="#84BE84" rx="3" ry="3" style="stroke:#038048;stroke-width:1.0;"/><text fill="#000000" font-family="sans-serif" font-size="14" lengthAdjust="spacing" textLength="95" x="255" y="492.6359">saludar(): void</text><ellipse cx="246" cy="507.7719" fill="#84BE84" rx="3" ry="3" style="stroke:#038048;stroke-width:1.0;"/><text fill="#000000" font-family="sans-serif" font-size="14" lengthAdjust="spacing" textLength="80" x="255" y="511.7039">pedir(): void</text><ellipse cx="246" cy="526.8398" fill="#84BE84" rx="3" ry="3" style="stroke:#038048;stroke-width:1.0;"/><text fill="#000000" font-family="sans-serif" font-size="14" lengthAdjust="spacing" textLength="119" x="255" y="530.7718">despedirse(): void</text><ellipse cx="246" cy="545.9077" fill="#84BE84" rx="3" ry="3" style="stroke:#038048;stroke-width:1.0;"/><text fill="#000000" font-family="sans-serif" font-size="14" lengthAdjust="spacing" textLength="324" x="255" y="549.8397">aceptar(VisitadorPersona visitadorPersona): void</text></g><!--class Hombre--><g id="elem_Hombre"><rect codeLine="14" fill="#F1F1F1" height="86.1358" id="Hombre" rx="2.5" ry="2.5" style="stroke:#181818;stroke-width:0.5;" width="363" x="634.5" y="628.48"/><ellipse cx="784.75" cy="644.48" fill="#ADD1B2" rx="11" ry="11" style="stroke:#181818;stroke-width:1.0;"/><path d="M784.2188,651.4019 Q782.4688,651.4019 781.3281,650.6675 Q780.2031,649.9175 779.6406,648.5738 Q779.0938,647.2144 779.0938,645.4175 Q779.0938,643.3863 779.75,641.9331 Q780.4063,640.48 781.6875,639.6988 Q782.9688,638.9175 784.8438,638.9175 Q785.7344,638.9175 786.4063,639.105 Q787.0781,639.2769 787.7656,639.6206 L786.9531,641.6363 Q786.3281,641.3238 785.7813,641.1988 Q785.25,641.0738 784.7656,641.0738 Q783.5938,641.0738 782.8906,641.605 Q782.1875,642.1363 781.8906,643.0894 Q781.5938,644.0425 781.5938,645.3081 Q781.5938,647.3238 782.3125,648.2925 Q783.0313,649.2456 784.625,649.2456 Q785.2188,649.2456 785.8438,649.0894 Q786.4688,648.9331 787.2969,648.5581 L787.2969,650.7769 Q786.5625,651.0894 785.7656,651.2456 Q784.9844,651.4019 784.2188,651.4019 Z " fill="#000000"/><text fill="#000000" font-family="sans-serif" font-size="14" lengthAdjust="spacing" textLength="54" x="805.25" y="649.912">Hombre</text><line style="stroke:#181818;stroke-width:0.5;" x1="635.5" x2="996.5" y1="660.48" y2="660.48"/><line style="stroke:#181818;stroke-width:0.5;" x1="635.5" x2="996.5" y1="668.48" y2="668.48"/><ellipse cx="645.5" cy="683.514" fill="#84BE84" rx="3" ry="3" style="stroke:#038048;stroke-width:1.0;"/><text fill="#000000" font-family="sans-serif" font-size="14" lengthAdjust="spacing" textLength="337" x="654.5" y="687.4459">recibirPalmada(recepcionista: Recepcionista): void</text><ellipse cx="645.5" cy="702.5819" fill="#84BE84" rx="3" ry="3" style="stroke:#038048;stroke-width:1.0;"/><text fill="#000000" font-family="sans-serif" font-size="14" lengthAdjust="spacing" textLength="324" x="654.5" y="706.5139">aceptar(VisitadorPersona visitadorPersona): void</text></g><!--class Mujer--><g id="elem_Mujer"><rect codeLine="19" fill="#F1F1F1" height="105.2038" id="Mujer" rx="2.5" ry="2.5" style="stroke:#181818;stroke-width:0.5;" width="350" x="7" y="618.95"/><ellipse cx="157.75" cy="634.95" fill="#ADD1B2" rx="11" ry="11" style="stroke:#181818;stroke-width:1.0;"/><path d="M157.2188,641.8719 Q155.4688,641.8719 154.3281,641.1375 Q153.2031,640.3875 152.6406,639.0437 Q152.0938,637.6844 152.0938,635.8875 Q152.0938,633.8562 152.75,632.4031 Q153.4063,630.95 154.6875,630.1687 Q155.9688,629.3875 157.8438,629.3875 Q158.7344,629.3875 159.4063,629.575 Q160.0781,629.7469 160.7656,630.0906 L159.9531,632.1062 Q159.3281,631.7937 158.7813,631.6687 Q158.25,631.5437 157.7656,631.5437 Q156.5938,631.5437 155.8906,632.075 Q155.1875,632.6062 154.8906,633.5594 Q154.5938,634.5125 154.5938,635.7781 Q154.5938,637.7937 155.3125,638.7625 Q156.0313,639.7156 157.625,639.7156 Q158.2188,639.7156 158.8438,639.5594 Q159.4688,639.4031 160.2969,639.0281 L160.2969,641.2469 Q159.5625,641.5594 158.7656,641.7156 Q157.9844,641.8719 157.2188,641.8719 Z " fill="#000000"/><text fill="#000000" font-family="sans-serif" font-size="14" lengthAdjust="spacing" textLength="40" x="178.25" y="640.382">Mujer</text><line style="stroke:#181818;stroke-width:0.5;" x1="8" x2="356" y1="650.95" y2="650.95"/><line style="stroke:#181818;stroke-width:0.5;" x1="8" x2="356" y1="658.95" y2="658.95"/><ellipse cx="18" cy="673.984" fill="#84BE84" rx="3" ry="3" style="stroke:#038048;stroke-width:1.0;"/><text fill="#000000" font-family="sans-serif" font-size="14" lengthAdjust="spacing" textLength="152" x="27" y="677.9159">escucharHalago(): void</text><ellipse cx="18" cy="693.0519" fill="#84BE84" rx="3" ry="3" style="stroke:#038048;stroke-width:1.0;"/><text fill="#000000" font-family="sans-serif" font-size="14" lengthAdjust="spacing" textLength="148" x="27" y="696.9839">escucharPiropo(): void</text><ellipse cx="18" cy="712.1198" fill="#84BE84" rx="3" ry="3" style="stroke:#038048;stroke-width:1.0;"/><text fill="#000000" font-family="sans-serif" font-size="14" lengthAdjust="spacing" textLength="324" x="27" y="716.0518">aceptar(VisitadorPersona visitadorPersona): void</text></g><!--class Recepcionista--><g id="elem_Recepcionista"><rect codeLine="25" fill="#F1F1F1" height="143.3396" id="Recepcionista" rx="2.5" ry="2.5" style="stroke:#181818;stroke-width:0.5;" width="231" x="735.5" y="211.34"/><ellipse cx="800.25" cy="227.34" fill="#ADD1B2" rx="11" ry="11" style="stroke:#181818;stroke-width:1.0;"/><path d="M799.7188,234.2619 Q797.9688,234.2619 796.8281,233.5275 Q795.7031,232.7775 795.1406,231.4338 Q794.5938,230.0744 794.5938,228.2775 Q794.5938,226.2463 795.25,224.7931 Q795.9063,223.34 797.1875,222.5588 Q798.4688,221.7775 800.3438,221.7775 Q801.2344,221.7775 801.9063,221.965 Q802.5781,222.1369 803.2656,222.4806 L802.4531,224.4963 Q801.8281,224.1838 801.2813,224.0588 Q800.75,223.9338 800.2656,223.9338 Q799.0938,223.9338 798.3906,224.465 Q797.6875,224.9963 797.3906,225.9494 Q797.0938,226.9025 797.0938,228.1681 Q797.0938,230.1838 797.8125,231.1525 Q798.5313,232.1056 800.125,232.1056 Q800.7188,232.1056 801.3438,231.9494 Q801.9688,231.7931 802.7969,231.4181 L802.7969,233.6369 Q802.0625,233.9494 801.2656,234.1056 Q800.4844,234.2619 799.7188,234.2619 Z " fill="#000000"/><text fill="#000000" font-family="sans-serif" font-size="14" lengthAdjust="spacing" textLength="93" x="820.75" y="232.772">Recepcionista</text><line style="stroke:#181818;stroke-width:0.5;" x1="736.5" x2="965.5" y1="243.34" y2="243.34"/><line style="stroke:#181818;stroke-width:0.5;" x1="736.5" x2="965.5" y1="251.34" y2="251.34"/><ellipse cx="746.5" cy="266.374" fill="#84BE84" rx="3" ry="3" style="stroke:#038048;stroke-width:1.0;"/><text fill="#000000" font-family="sans-serif" font-size="14" lengthAdjust="spacing" textLength="205" x="755.5" y="270.3059">recibir(persona: Persona): void</text><ellipse cx="746.5" cy="285.4419" fill="#84BE84" rx="3" ry="3" style="stroke:#038048;stroke-width:1.0;"/><text fill="#000000" font-family="sans-serif" font-size="14" lengthAdjust="spacing" textLength="169" x="755.5" y="289.3739">visitar(Mujer mujer): void</text><ellipse cx="746.5" cy="304.5098" fill="#84BE84" rx="3" ry="3" style="stroke:#038048;stroke-width:1.0;"/><text fill="#000000" font-family="sans-serif" font-size="14" lengthAdjust="spacing" textLength="196" x="755.5" y="308.4418">visitar(Hombre hombre): void</text><ellipse cx="746.5" cy="323.5777" fill="#84BE84" rx="3" ry="3" style="stroke:#038048;stroke-width:1.0;"/><text fill="#000000" font-family="sans-serif" font-size="14" lengthAdjust="spacing" textLength="204" x="755.5" y="327.5097">recibirPropina(euros: int): void</text><ellipse cx="746.5" cy="342.6456" fill="#84BE84" rx="3" ry="3" style="stroke:#038048;stroke-width:1.0;"/><text fill="#000000" font-family="sans-serif" font-size="14" lengthAdjust="spacing" textLength="149" x="755.5" y="346.5776">agradecerVisita(): void</text></g><!--class Camarero--><g id="elem_Camarero"><rect codeLine="33" fill="#F1F1F1" height="124.2717" id="Camarero" rx="2.5" ry="2.5" style="stroke:#181818;stroke-width:0.5;" width="225" x="368.5" y="220.87"/><ellipse cx="443.75" cy="236.87" fill="#ADD1B2" rx="11" ry="11" style="stroke:#181818;stroke-width:1.0;"/><path d="M443.2188,243.7919 Q441.4688,243.7919 440.3281,243.0575 Q439.2031,242.3075 438.6406,240.9638 Q438.0938,239.6044 438.0938,237.8075 Q438.0938,235.7763 438.75,234.3231 Q439.4063,232.87 440.6875,232.0888 Q441.9688,231.3075 443.8438,231.3075 Q444.7344,231.3075 445.4063,231.495 Q446.0781,231.6669 446.7656,232.0106 L445.9531,234.0263 Q445.3281,233.7138 444.7813,233.5888 Q444.25,233.4638 443.7656,233.4638 Q442.5938,233.4638 441.8906,233.995 Q441.1875,234.5263 440.8906,235.4794 Q440.5938,236.4325 440.5938,237.6981 Q440.5938,239.7138 441.3125,240.6825 Q442.0313,241.6356 443.625,241.6356 Q444.2188,241.6356 444.8438,241.4794 Q445.4688,241.3231 446.2969,240.9481 L446.2969,243.1669 Q445.5625,243.4794 444.7656,243.6356 Q443.9844,243.7919 443.2188,243.7919 Z " fill="#000000"/><text fill="#000000" font-family="sans-serif" font-size="14" lengthAdjust="spacing" textLength="66" x="464.25" y="242.302">Camarero</text><line style="stroke:#181818;stroke-width:0.5;" x1="369.5" x2="592.5" y1="252.87" y2="252.87"/><line style="stroke:#181818;stroke-width:0.5;" x1="369.5" x2="592.5" y1="260.87" y2="260.87"/><ellipse cx="379.5" cy="275.904" fill="#84BE84" rx="3" ry="3" style="stroke:#038048;stroke-width:1.0;"/><text fill="#000000" font-family="sans-serif" font-size="14" lengthAdjust="spacing" textLength="199" x="388.5" y="279.8359">servir(persona: Persona): void</text><ellipse cx="379.5" cy="294.9719" fill="#84BE84" rx="3" ry="3" style="stroke:#038048;stroke-width:1.0;"/><text fill="#000000" font-family="sans-serif" font-size="14" lengthAdjust="spacing" textLength="169" x="388.5" y="298.9039">visitar(Mujer mujer): void</text><ellipse cx="379.5" cy="314.0398" fill="#84BE84" rx="3" ry="3" style="stroke:#038048;stroke-width:1.0;"/><text fill="#000000" font-family="sans-serif" font-size="14" lengthAdjust="spacing" textLength="196" x="388.5" y="317.9718">visitar(Hombre hombre): void</text><ellipse cx="379.5" cy="333.1077" fill="#84BE84" rx="3" ry="3" style="stroke:#038048;stroke-width:1.0;"/><text fill="#000000" font-family="sans-serif" font-size="14" lengthAdjust="spacing" textLength="96" x="388.5" y="337.0397">recoger(): void</text></g><!--class Restaurante--><g id="elem_Restaurante"><rect codeLine="40" fill="#F1F1F1" height="143.3396" id="Restaurante" rx="2.5" ry="2.5" style="stroke:#181818;stroke-width:0.5;" width="303" x="329.5" y="7"/><ellipse cx="435.75" cy="23" fill="#ADD1B2" rx="11" ry="11" style="stroke:#181818;stroke-width:1.0;"/><path d="M435.2188,29.9219 Q433.4688,29.9219 432.3281,29.1875 Q431.2031,28.4375 430.6406,27.0938 Q430.0938,25.7344 430.0938,23.9375 Q430.0938,21.9063 430.75,20.4531 Q431.4063,19 432.6875,18.2188 Q433.9688,17.4375 435.8438,17.4375 Q436.7344,17.4375 437.4063,17.625 Q438.0781,17.7969 438.7656,18.1406 L437.9531,20.1563 Q437.3281,19.8438 436.7813,19.7188 Q436.25,19.5938 435.7656,19.5938 Q434.5938,19.5938 433.8906,20.125 Q433.1875,20.6563 432.8906,21.6094 Q432.5938,22.5625 432.5938,23.8281 Q432.5938,25.8438 433.3125,26.8125 Q434.0313,27.7656 435.625,27.7656 Q436.2188,27.7656 436.8438,27.6094 Q437.4688,27.4531 438.2969,27.0781 L438.2969,29.2969 Q437.5625,29.6094 436.7656,29.7656 Q435.9844,29.9219 435.2188,29.9219 Z " fill="#000000"/><text fill="#000000" font-family="sans-serif" font-size="14" lengthAdjust="spacing" textLength="82" x="456.25" y="28.432">Restaurante</text><line style="stroke:#181818;stroke-width:0.5;" x1="330.5" x2="631.5" y1="39" y2="39"/><rect fill="none" height="6" style="stroke:#C82930;stroke-width:1.0;" width="6" x="337.5" y="51.034"/><text fill="#000000" font-family="sans-serif" font-size="14" lengthAdjust="spacing" textLength="191" x="349.5" y="57.9659">recepcionista: Recepcionista</text><rect fill="none" height="6" style="stroke:#C82930;stroke-width:1.0;" width="6" x="337.5" y="70.1019"/><text fill="#000000" font-family="sans-serif" font-size="14" lengthAdjust="spacing" textLength="138" x="349.5" y="77.0339">camarero: Camarero</text><line style="stroke:#181818;stroke-width:0.5;" x1="330.5" x2="631.5" y1="85.1358" y2="85.1358"/><rect fill="#F24D5C" height="6" style="stroke:#C82930;stroke-width:1.0;" width="6" x="337.5" y="97.1698"/><text fill="#000000" font-family="sans-serif" font-size="14" lengthAdjust="spacing" textLength="160" x="349.5" y="104.1018">simularEscenario(): void</text><rect fill="#F24D5C" height="6" style="stroke:#C82930;stroke-width:1.0;" width="6" x="337.5" y="116.2377"/><text fill="#000000" font-family="sans-serif" font-size="14" lengthAdjust="spacing" textLength="277" x="349.5" y="123.1697">simularEscenario(persona: Persona): void</text><ellipse cx="340.5" cy="138.3056" fill="#84BE84" rx="3" ry="3" style="stroke:#038048;stroke-width:1.0;"/><text fill="#000000" font-family="sans-serif" font-size="14" lengthAdjust="spacing" textLength="167" x="349.5" y="142.2376">main(args: String[]): void</text></g><!--reverse link Persona to Hombre--><g id="link_Persona_Hombre"><path codeLine="48" d="M570.5481,565.5124 C624.3581,588.5424 667.68,607.08 716.59,628.01 " fill="none" id="Persona-backto-Hombre" style="stroke:#181818;stroke-width:1.0;"/><polygon fill="none" points="554,558.43,568.1873,571.0284,572.9089,559.9963,554,558.43" style="stroke:#181818;stroke-width:1.0;"/></g><!--reverse link Persona to Mujer--><g id="link_Persona_Mujer"><path codeLine="49" d="M314.9748,569.2221 C289.1048,588.9421 275.03,599.66 250.15,618.62 " fill="none" id="Persona-backto-Mujer" style="stroke:#181818;stroke-width:1.0;"/><polygon fill="none" points="329.29,558.31,311.3374,564.4504,318.6121,573.9939,329.29,558.31" style="stroke:#181818;stroke-width:1.0;"/></g><!--reverse link VisitadorPersona to Recepcionista--><g id="link_VisitadorPersona_Recepcionista"><path codeLine="51" d="M819.3362,139.651 C825.0562,165.381 828.6,181.29 835.2,210.97 " fill="none" id="VisitadorPersona-backto-Recepcionista" style="stroke:#181818;stroke-width:1.0;stroke-dasharray:7.0,7.0;"/><polygon fill="none" points="815.43,122.08,813.4792,140.9531,825.1932,138.349,815.43,122.08" style="stroke:#181818;stroke-width:1.0;"/></g><!--reverse link VisitadorPersona to Camarero--><g id="link_VisitadorPersona_Camarero"><path codeLine="52" d="M722.5897,131.5939 C676.7997,160.1039 630.99,188.62 579.88,220.44 " fill="none" id="VisitadorPersona-backto-Camarero" style="stroke:#181818;stroke-width:1.0;stroke-dasharray:7.0,7.0;"/><polygon fill="none" points="737.87,122.08,719.4185,126.5005,725.761,136.6873,737.87,122.08" style="stroke:#181818;stroke-width:1.0;"/></g><!--link Restaurante to Recepcionista--><g id="link_Restaurante_Recepcionista"><path codeLine="54" d="M632.79,141.44 C658.67,153.45 684.95,166.61 709,180.34 C725.06,189.5 736.5772,196.6834 752.3572,207.4734 " fill="none" id="Restaurante-to-Recepcionista" style="stroke:#181818;stroke-width:1.0;"/><polygon fill="#181818" points="757.31,210.86,752.1385,202.4781,753.1826,208.0378,747.623,209.0819,757.31,210.86" style="stroke:#181818;stroke-width:1.0;"/></g><!--link Restaurante to Camarero--><g id="link_Restaurante_Camarero"><path codeLine="55" d="M481,150.72 C481,173.49 481,192.51 481,214.54 " fill="none" id="Restaurante-to-Camarero" style="stroke:#181818;stroke-width:1.0;"/><polygon fill="#181818" points="481,220.54,485,211.54,481,215.54,477,211.54,481,220.54" style="stroke:#181818;stroke-width:1.0;"/></g><!--link Restaurante to Persona--><g id="link_Restaurante_Persona"><path codeLine="56" d="M391.66,150.63 C375.09,168.52 360.15,189.05 351,211.34 C320.98,284.46 347.5987,369.2562 374.5387,427.9962 " fill="none" id="Restaurante-to-Persona" style="stroke:#181818;stroke-width:1.0;"/><polygon fill="#181818" points="377.04,433.45,376.9239,423.6018,374.9556,428.9052,369.6522,426.9369,377.04,433.45" style="stroke:#181818;stroke-width:1.0;"/></g><!--link Restaurante to Hombre--><g id="link_Restaurante_Hombre"><path codeLine="57" d="M560.29,150.71 C578.37,169.3 596.5,190.12 611,211.34 C706.81,351.54 773.5141,538.0742 800.9241,622.3442 " fill="none" id="Restaurante-to-Hombre" style="stroke:#181818;stroke-width:1.0;stroke-dasharray:7.0,7.0;"/><polygon fill="#181818" points="802.78,628.05,803.8,618.2541,801.2334,623.2952,796.1923,620.7286,802.78,628.05" style="stroke:#181818;stroke-width:1.0;"/></g><!--link Restaurante to Mujer--><g id="link_Restaurante_Mujer"><path codeLine="58" d="M329.2,107.37 C261.66,126.54 185.68,158.5 133,211.34 C13.55,331.14 6.66,439 85,588.95 C90.6,599.67 94.1156,605.2405 102.7056,614.1505 " fill="none" id="Restaurante-to-Mujer" style="stroke:#181818;stroke-width:1.0;stroke-dasharray:7.0,7.0;"/><polygon fill="#181818" points="106.87,618.47,103.5031,609.2145,103.3997,614.8704,97.7438,614.767,106.87,618.47" style="stroke:#181818;stroke-width:1.0;"/></g><!--link Recepcionista to Mujer--><g id="link_Recepcionista_Mujer"><path codeLine="60" d="M804.38,354.97 C759.69,417.47 686.65,506.34 602,557.95 C528.2,602.94 442.2645,628.9894 363.3345,645.3894 " fill="none" id="Recepcionista-to-Mujer" style="stroke:#181818;stroke-width:1.0;"/><polygon fill="#181818" points="357.46,646.61,367.0855,648.6954,362.3554,645.5928,365.4581,640.8627,357.46,646.61" style="stroke:#181818;stroke-width:1.0;"/></g><!--link Recepcionista to Hombre--><g id="link_Recepcionista_Hombre"><path codeLine="61" d="M844.58,354.9 C837.34,434.89 826.3303,556.4144 820.3803,622.2144 " fill="none" id="Recepcionista-to-Hombre" style="stroke:#181818;stroke-width:1.0;"/><polygon fill="#181818" points="819.84,628.19,824.6343,619.5868,820.2903,623.2103,816.6668,618.8663,819.84,628.19" style="stroke:#181818;stroke-width:1.0;"/></g><!--link Hombre to Recepcionista--><g id="link_Hombre_Recepcionista"><path codeLine="68" d="M836.15,628.02 C844.81,607.37 853.88,581.9 858,557.95 C879.24,434.53 871.15,437.19 867,384.67 C866.24,375.06 865.895,370.9244 864.535,361.0044 " fill="none" id="Hombre-to-Recepcionista" style="stroke:#181818;stroke-width:1.0;"/><polygon fill="#181818" points="863.72,355.06,860.9795,364.5199,864.3991,360.0137,868.9054,363.4333,863.72,355.06" style="stroke:#181818;stroke-width:1.0;"/><text fill="#000000" font-family="sans-serif" font-size="13" lengthAdjust="spacing" textLength="140" x="873.02" y="501.207">recibe como par&#225;metro</text></g><!--link Recepcionista to Persona--><g id="link_Recepcionista_Persona"><path codeLine="62" d="M735.13,339.39 C674.78,368.24 606.2233,401.0123 544.0933,430.7123 " fill="none" id="Recepcionista-to-Persona" style="stroke:#181818;stroke-width:1.0;"/><polygon fill="#181818" points="538.68,433.3,548.5251,433.0273,543.1911,431.1436,545.0748,425.8096,538.68,433.3" style="stroke:#181818;stroke-width:1.0;"/></g><!--link Camarero to Mujer--><g id="link_Camarero_Mujer"><path codeLine="64" d="M368.09,321.56 C314.23,345.28 253.86,381.5 218,433.67 C180.3,488.52 175.4577,561.3438 177.2777,612.7438 " fill="none" id="Camarero-to-Mujer" style="stroke:#181818;stroke-width:1.0;"/><polygon fill="#181818" points="177.49,618.74,181.169,609.6041,177.3131,613.7431,173.174,609.8872,177.49,618.74" style="stroke:#181818;stroke-width:1.0;"/></g><!--link Camarero to Hombre--><g id="link_Camarero_Hombre"><path codeLine="65" d="M534.08,345.25 C602.53,424.23 715.8701,555.0161 775.2801,623.5561 " fill="none" id="Camarero-to-Hombre" style="stroke:#181818;stroke-width:1.0;"/><polygon fill="#181818" points="779.21,628.09,776.3377,618.6693,775.9351,624.3118,770.2926,623.9092,779.21,628.09" style="stroke:#181818;stroke-width:1.0;"/></g><!--link Camarero to Persona--><g id="link_Camarero_Persona"><path codeLine="66" d="M460.27,345.55 C450.98,373.13 441.9665,399.9143 432.6665,427.5043 " fill="none" id="Camarero-to-Persona" style="stroke:#181818;stroke-width:1.0;"/><polygon fill="#181818" points="430.75,433.19,437.4152,425.9392,432.3471,428.4519,429.8343,423.3838,430.75,433.19" style="stroke:#181818;stroke-width:1.0;"/></g><!--link Mujer to VisitadorPersona--><g id="link_Mujer_VisitadorPersona"><path codeLine="69" d="M155.22,618.65 C128.54,559.29 96.4,460.53 133,384.67 C242.62,157.46 410,228.09 650,150.34 C673.76,142.64 693.2513,134.8484 716.0713,124.5484 " fill="none" id="Mujer-to-VisitadorPersona" style="stroke:#181818;stroke-width:1.0;"/><polygon fill="#181818" points="721.54,122.08,711.6913,122.1367,716.9827,124.137,714.9825,129.4284,721.54,122.08" style="stroke:#181818;stroke-width:1.0;"/><text fill="#000000" font-family="sans-serif" font-size="13" lengthAdjust="spacing" textLength="101" x="134" y="399.567">como par&#225;metro</text></g><!--link Hombre to VisitadorPersona--><g id="link_Hombre_VisitadorPersona"><path codeLine="70" d="M943.15,628 C974.33,611.22 1003.91,588.45 1022,557.95 C1050.17,510.44 1026.67,488.71 1022,433.67 C1013.53,333.78 1036.54,296.72 984,211.34 C961.14,174.18 928.6301,147.2984 893.8801,125.3084 " fill="none" id="Hombre-to-VisitadorPersona" style="stroke:#181818;stroke-width:1.0;"/><polygon fill="#181818" points="888.81,122.1,894.2762,130.2927,893.0351,124.7737,898.5541,123.5325,888.81,122.1" style="stroke:#181818;stroke-width:1.0;"/><text fill="#000000" font-family="sans-serif" font-size="13" lengthAdjust="spacing" textLength="101" x="1021.22" y="399.567">como par&#225;metro</text></g><rect fill="#DDDDDD" height="96.2717" id="_legend" rx="7.5" ry="7.5" style="stroke:#000000;stroke-width:1.0;" width="770" x="12" y="742.1538"/><text fill="#000000" font-family="sans-serif" font-size="14" font-style="italic" font-weight="bold" lengthAdjust="spacing" textLength="43" x="17" y="762.1197">2Think</text><line style="stroke:#000000;stroke-width:1.0;" x1="12" x2="782" y1="771.2217" y2="771.2217"/><line style="stroke:#000000;stroke-width:1.0;" x1="12" x2="782" y1="773.2217" y2="773.2217"/><text fill="#000000" font-family="sans-serif" font-size="14" lengthAdjust="spacing" textLength="659" x="17" y="791.1876">- Persona: acepta(VisitadorPersona) es el punto de entrada para el patr&#243;n Visitor (doble despacho)</text><text fill="#000000" font-family="sans-serif" font-size="14" lengthAdjust="spacing" textLength="760" x="17" y="810.2555">- VisitadorPersona: permite definir distintos comportamientos seg&#250;n el tipo concreto de Persona (Hombre/Mujer)</text><text fill="#000000" font-family="sans-serif" font-size="14" lengthAdjust="spacing" textLength="589" x="17" y="829.3234">- Restaurante: simula la interacci&#243;n usando Recepcionista y Camarero como Visitadores</text><!--SRC=[jLLDYzim4BthLypHeII17asQIodifH3QqalfOIBFEjFQaXd9WTBjZ-blwAtN_MEL_BMolIo5RaD8q1lDp7lF8vcD9xb5JV2H7Niih9n8d3K8tnN0Ysk7IlQs_K82TVpTv72rNAJH6rkVXU3I_Otn7qhXsNb1xK5Nw1pCAZkisYBa9kKQAdW65EGwp56A1hPDxBfYV5q02PEUmC2pwo-a-Snomgh60hEmf4QpDUmyvl0kNJvBxzx1hZKvtUeBoWrMMDfKsXWviTZ6Fe_ecPIPzgpfKt9OvFxRWq_C3IhOO4QjM9S36vygAWMBm4rwITcA-6kiKKZiC2yar_zCsPOasIF-1TzQmN1IEYRRfqObnlN0EvyKHDHntLOeRvmcWyBfmrt7db1P8viCfGn-llV2flpqEQ4yJiNXRhiTndsETUOejHgZmzrkjv3o-9v9aqgDsMwFY-nbTCfR1eRgCtotEuxib_0WO3xLiKuVMEDJdMLWRAocGNieCuE62ZDiIXxcQMK0vD2T0W9jQmiDoltFcdmme9_FcB1oE5zjJih_nMwbAYh9553HhLU7y_70nvSVBco-7lPyFEpFH_KgVDHsv9z3Vx6ixfKDa0Ege6cDjr0Ga0bNUO6n6tO1z7B_o_Iih41Ms7D54Azir1Ux2JsMDNC8SrspZxjksR104PmAju9rKKbZnMFDrAqTbVU_JMpakR4XRBHGpsIKFnpbVUTdx9UCIWxzcOBmvVYEGwqvqcqTci8k7jMtXxkcStGYJau5DtjFrHy0]--></g></svg>