<?xml version="1.0" encoding="us-ascii" standalone="no"?><svg xmlns="http://www.w3.org/2000/svg" xmlns:xlink="http://www.w3.org/1999/xlink" contentStyleType="text/css" height="813px" preserveAspectRatio="none" style="width:1483px;height:813px;background:#FFFFFF;" version="1.1" viewBox="0 0 1483 813" width="1483px" zoomAndPan="magnify"><defs/><g><!--cluster personas--><g id="cluster_personas"><path d="M364.5,147.32 L428.5,147.32 A3.75,3.75 0 0 1 431,149.82 L438,172.3879 L1293.5,172.3879 A2.5,2.5 0 0 1 1296,174.8879 L1296,676.64 A2.5,2.5 0 0 1 1293.5,679.14 L364.5,679.14 A2.5,2.5 0 0 1 362,676.64 L362,149.82 A2.5,2.5 0 0 1 364.5,147.32 " fill="none" style="stroke:#000000;stroke-width:1.5;"/><line style="stroke:#000000;stroke-width:1.5;" x1="362" x2="438" y1="172.3879" y2="172.3879"/><text fill="#000000" font-family="sans-serif" font-size="14" font-weight="bold" lengthAdjust="spacing" textLength="63" x="366" y="164.2859">personas</text></g><!--class VisitadorPersona--><g id="elem_VisitadorPersona"><rect codeLine="29" fill="#F1F1F1" height="86.1358" id="VisitadorPersona" rx="2.5" ry="2.5" style="stroke:#181818;stroke-width:0.5;" width="161" x="866.5" y="577"/><ellipse cx="890.95" cy="593" fill="#B4A7E5" rx="11" ry="11" style="stroke:#181818;stroke-width:1.0;"/><path d="M886.9813,599.5 L886.9813,597.7969 L889.3406,597.5313 L889.3406,589.3281 L886.9813,589.0625 L886.9813,587.3594 L894.1219,587.3594 L894.1219,589.0625 L891.7,589.3281 L891.7,597.5313 L894.1219,597.7969 L894.1219,599.5 L886.9813,599.5 Z " fill="#000000"/><text fill="#000000" font-family="sans-serif" font-size="14" font-style="italic" lengthAdjust="spacing" textLength="108" x="907.05" y="598.432">VisitadorPersona</text><line style="stroke:#181818;stroke-width:0.5;" x1="867.5" x2="1026.5" y1="609" y2="609"/><line style="stroke:#181818;stroke-width:0.5;" x1="867.5" x2="1026.5" y1="617" y2="617"/><ellipse cx="877.5" cy="632.034" fill="#84BE84" rx="3" ry="3" style="stroke:#038048;stroke-width:1.0;"/><text fill="#000000" font-family="sans-serif" font-size="14" lengthAdjust="spacing" textLength="121" x="886.5" y="635.9659">void visitar(Mujer)</text><ellipse cx="877.5" cy="651.1019" fill="#84BE84" rx="3" ry="3" style="stroke:#038048;stroke-width:1.0;"/><text fill="#000000" font-family="sans-serif" font-size="14" lengthAdjust="spacing" textLength="135" x="886.5" y="655.0339">void visitar(Hombre)</text></g><!--class Persona--><g id="elem_Persona"><rect codeLine="35" fill="#F1F1F1" height="86.1358" id="Persona" rx="2.5" ry="2.5" style="stroke:#181818;stroke-width:0.5;" width="146" x="874" y="193.32"/><ellipse cx="917.35" cy="209.32" fill="#A9DCDF" rx="11" ry="11" style="stroke:#181818;stroke-width:1.0;"/><path d="M912.5219,215.07 L915.8656,202.8825 L919.0063,202.8825 L922.3813,215.07 L919.9125,215.07 L919.1781,212.0544 L915.6625,212.0544 L914.9125,215.07 L912.5219,215.07 Z M916.9281,207.0231 L916.1781,210.0231 L918.6938,210.0231 L917.975,207.0231 Q917.8344,206.445 917.7094,205.8981 Q917.5844,205.3356 917.4438,204.7575 Q917.3344,205.3356 917.1938,205.8981 Q917.0531,206.445 916.9281,207.0231 Z " fill="#000000"/><text fill="#000000" font-family="sans-serif" font-size="14" font-style="italic" lengthAdjust="spacing" textLength="51" x="937.65" y="214.752">Persona</text><line style="stroke:#181818;stroke-width:0.5;" x1="875" x2="1019" y1="225.32" y2="225.32"/><line style="stroke:#181818;stroke-width:0.5;" x1="875" x2="1019" y1="233.32" y2="233.32"/><ellipse cx="885" cy="257.8879" fill="#84BE84" rx="3" ry="3" style="stroke:#038048;stroke-width:1.0;"/><text fill="#000000" font-family="sans-serif" font-size="14" font-style="italic" lengthAdjust="spacing" textLength="79" x="894" y="252.2859">void aceptar</text><text fill="#000000" font-family="sans-serif" font-size="14" font-style="italic" lengthAdjust="spacing" textLength="116" x="898" y="271.3539">(VisitadorPersona)</text></g><!--class Mujer--><g id="elem_Mujer"><rect codeLine="39" fill="#F1F1F1" height="86.1358" id="Mujer" rx="2.5" ry="2.5" style="stroke:#181818;stroke-width:0.5;" width="230" x="832" y="414.82"/><ellipse cx="922.75" cy="430.82" fill="#ADD1B2" rx="11" ry="11" style="stroke:#181818;stroke-width:1.0;"/><path d="M922.2188,437.7419 Q920.4688,437.7419 919.3281,437.0075 Q918.2031,436.2575 917.6406,434.9138 Q917.0938,433.5544 917.0938,431.7575 Q917.0938,429.7263 917.75,428.2731 Q918.4063,426.82 919.6875,426.0388 Q920.9688,425.2575 922.8438,425.2575 Q923.7344,425.2575 924.4063,425.445 Q925.0781,425.6169 925.7656,425.9606 L924.9531,427.9763 Q924.3281,427.6638 923.7813,427.5388 Q923.25,427.4138 922.7656,427.4138 Q921.5938,427.4138 920.8906,427.945 Q920.1875,428.4763 919.8906,429.4294 Q919.5938,430.3825 919.5938,431.6481 Q919.5938,433.6638 920.3125,434.6325 Q921.0313,435.5856 922.625,435.5856 Q923.2188,435.5856 923.8438,435.4294 Q924.4688,435.2731 925.2969,434.8981 L925.2969,437.1169 Q924.5625,437.4294 923.7656,437.5856 Q922.9844,437.7419 922.2188,437.7419 Z " fill="#000000"/><text fill="#000000" font-family="sans-serif" font-size="14" lengthAdjust="spacing" textLength="40" x="943.25" y="436.252">Mujer</text><line style="stroke:#181818;stroke-width:0.5;" x1="833" x2="1061" y1="446.82" y2="446.82"/><line style="stroke:#181818;stroke-width:0.5;" x1="833" x2="1061" y1="454.82" y2="454.82"/><ellipse cx="843" cy="469.854" fill="#84BE84" rx="3" ry="3" style="stroke:#038048;stroke-width:1.0;"/><text fill="#000000" font-family="sans-serif" font-size="14" lengthAdjust="spacing" textLength="127" x="852" y="473.7859">void recibirPiropo()</text><ellipse cx="843" cy="488.9219" fill="#84BE84" rx="3" ry="3" style="stroke:#038048;stroke-width:1.0;"/><text fill="#000000" font-family="sans-serif" font-size="14" lengthAdjust="spacing" textLength="204" x="852" y="492.8539">void aceptar(VisitadorPersona)</text></g><g id="elem_GMN11"><path d="M1097,399.77 L1097,453.89 L1062.42,457.89 L1097,461.89 L1097,516.0061 A0,0 0 0 0 1097,516.0061 L1243,516.0061 A0,0 0 0 0 1243,516.0061 L1243,409.77 L1233,399.77 L1097,399.77 A0,0 0 0 0 1097,399.77 " fill="#FEFFDD" style="stroke:#181818;stroke-width:0.5;"/><path d="M1233,399.77 L1233,409.77 L1243,409.77 L1233,399.77 " fill="#FEFFDD" style="stroke:#181818;stroke-width:0.5;"/><text fill="#000000" font-family="sans-serif" font-size="13" lengthAdjust="spacing" textLength="74" x="1103" y="418.667">void aceptar</text><text fill="#000000" font-family="sans-serif" font-size="13" lengthAdjust="spacing" textLength="106" x="1109" y="436.373">(VisitadorPersona</text><text fill="#000000" font-family="sans-serif" font-size="13" lengthAdjust="spacing" textLength="113" x="1115" y="454.079">visitadorPersona) {</text><text fill="#000000" font-family="sans-serif" font-size="13" lengthAdjust="spacing" textLength="101" x="1109" y="471.7851">visitadorPersona</text><text fill="#000000" font-family="sans-serif" font-size="13" lengthAdjust="spacing" textLength="72" x="1115" y="489.4911">.visitar(this);</text><text fill="#000000" font-family="sans-serif" font-size="13" lengthAdjust="spacing" textLength="5" x="1103" y="507.1971">}</text></g><!--class Hombre--><g id="elem_Hombre"><rect codeLine="52" fill="#F1F1F1" height="86.1358" id="Hombre" rx="2.5" ry="2.5" style="stroke:#181818;stroke-width:0.5;" width="230" x="386" y="414.82"/><ellipse cx="469.75" cy="430.82" fill="#ADD1B2" rx="11" ry="11" style="stroke:#181818;stroke-width:1.0;"/><path d="M469.2188,437.7419 Q467.4688,437.7419 466.3281,437.0075 Q465.2031,436.2575 464.6406,434.9138 Q464.0938,433.5544 464.0938,431.7575 Q464.0938,429.7263 464.75,428.2731 Q465.4063,426.82 466.6875,426.0388 Q467.9688,425.2575 469.8438,425.2575 Q470.7344,425.2575 471.4063,425.445 Q472.0781,425.6169 472.7656,425.9606 L471.9531,427.9763 Q471.3281,427.6638 470.7813,427.5388 Q470.25,427.4138 469.7656,427.4138 Q468.5938,427.4138 467.8906,427.945 Q467.1875,428.4763 466.8906,429.4294 Q466.5938,430.3825 466.5938,431.6481 Q466.5938,433.6638 467.3125,434.6325 Q468.0313,435.5856 469.625,435.5856 Q470.2188,435.5856 470.8438,435.4294 Q471.4688,435.2731 472.2969,434.8981 L472.2969,437.1169 Q471.5625,437.4294 470.7656,437.5856 Q469.9844,437.7419 469.2188,437.7419 Z " fill="#000000"/><text fill="#000000" font-family="sans-serif" font-size="14" lengthAdjust="spacing" textLength="54" x="490.25" y="436.252">Hombre</text><line style="stroke:#181818;stroke-width:0.5;" x1="387" x2="615" y1="446.82" y2="446.82"/><line style="stroke:#181818;stroke-width:0.5;" x1="387" x2="615" y1="454.82" y2="454.82"/><ellipse cx="397" cy="469.854" fill="#84BE84" rx="3" ry="3" style="stroke:#038048;stroke-width:1.0;"/><text fill="#000000" font-family="sans-serif" font-size="14" lengthAdjust="spacing" textLength="142" x="406" y="473.7859">void recibirPalmada()</text><ellipse cx="397" cy="488.9219" fill="#84BE84" rx="3" ry="3" style="stroke:#038048;stroke-width:1.0;"/><text fill="#000000" font-family="sans-serif" font-size="14" lengthAdjust="spacing" textLength="204" x="406" y="492.8539">void aceptar(VisitadorPersona)</text></g><g id="elem_GMN15"><path d="M651,399.77 L651,453.89 L616.42,457.89 L651,461.89 L651,516.0061 A0,0 0 0 0 651,516.0061 L797,516.0061 A0,0 0 0 0 797,516.0061 L797,409.77 L787,399.77 L651,399.77 A0,0 0 0 0 651,399.77 " fill="#FEFFDD" style="stroke:#181818;stroke-width:0.5;"/><path d="M787,399.77 L787,409.77 L797,409.77 L787,399.77 " fill="#FEFFDD" style="stroke:#181818;stroke-width:0.5;"/><text fill="#000000" font-family="sans-serif" font-size="13" lengthAdjust="spacing" textLength="74" x="657" y="418.667">void aceptar</text><text fill="#000000" font-family="sans-serif" font-size="13" lengthAdjust="spacing" textLength="106" x="663" y="436.373">(VisitadorPersona</text><text fill="#000000" font-family="sans-serif" font-size="13" lengthAdjust="spacing" textLength="113" x="669" y="454.079">visitadorPersona) {</text><text fill="#000000" font-family="sans-serif" font-size="13" lengthAdjust="spacing" textLength="101" x="663" y="471.7851">visitadorPersona</text><text fill="#000000" font-family="sans-serif" font-size="13" lengthAdjust="spacing" textLength="72" x="669" y="489.4911">.visitar(this);</text><text fill="#000000" font-family="sans-serif" font-size="13" lengthAdjust="spacing" textLength="5" x="657" y="507.1971">}</text></g><!--class OtroRol--><g id="elem_OtroRol"><rect codeLine="2" fill="#F1F1F1" height="105.2038" id="OtroRol" rx="2.5" ry="2.5" style="stroke:#181818;stroke-width:0.5;" width="164" x="1312" y="183.78"/><ellipse cx="1364.25" cy="199.78" fill="#ADD1B2" rx="11" ry="11" style="stroke:#181818;stroke-width:1.0;"/><path d="M1363.7188,206.7019 Q1361.9688,206.7019 1360.8281,205.9675 Q1359.7031,205.2175 1359.1406,203.8737 Q1358.5938,202.5144 1358.5938,200.7175 Q1358.5938,198.6862 1359.25,197.2331 Q1359.9063,195.78 1361.1875,194.9987 Q1362.4688,194.2175 1364.3438,194.2175 Q1365.2344,194.2175 1365.9063,194.405 Q1366.5781,194.5769 1367.2656,194.9206 L1366.4531,196.9362 Q1365.8281,196.6237 1365.2813,196.4987 Q1364.75,196.3737 1364.2656,196.3737 Q1363.0938,196.3737 1362.3906,196.905 Q1361.6875,197.4362 1361.3906,198.3894 Q1361.0938,199.3425 1361.0938,200.6081 Q1361.0938,202.6237 1361.8125,203.5925 Q1362.5313,204.5456 1364.125,204.5456 Q1364.7188,204.5456 1365.3438,204.3894 Q1365.9688,204.2331 1366.7969,203.8581 L1366.7969,206.0769 Q1366.0625,206.3894 1365.2656,206.5456 Q1364.4844,206.7019 1363.7188,206.7019 Z " fill="#000000"/><text fill="#000000" font-family="sans-serif" font-size="14" lengthAdjust="spacing" textLength="51" x="1384.75" y="205.212">OtroRol</text><line style="stroke:#181818;stroke-width:0.5;" x1="1313" x2="1475" y1="215.78" y2="215.78"/><line style="stroke:#181818;stroke-width:0.5;" x1="1313" x2="1475" y1="223.78" y2="223.78"/><ellipse cx="1323" cy="238.814" fill="#84BE84" rx="3" ry="3" style="stroke:#038048;stroke-width:1.0;"/><text fill="#000000" font-family="sans-serif" font-size="14" lengthAdjust="spacing" textLength="138" x="1332" y="242.7459">void recibir(Persona)</text><ellipse cx="1323" cy="257.8819" fill="#84BE84" rx="3" ry="3" style="stroke:#038048;stroke-width:1.0;"/><text fill="#000000" font-family="sans-serif" font-size="14" lengthAdjust="spacing" textLength="121" x="1332" y="261.8139">void visitar(Mujer)</text><ellipse cx="1323" cy="276.9498" fill="#84BE84" rx="3" ry="3" style="stroke:#038048;stroke-width:1.0;"/><text fill="#000000" font-family="sans-serif" font-size="14" lengthAdjust="spacing" textLength="135" x="1332" y="280.8818">void visitar(Hombre)</text></g><!--class Camarero--><g id="elem_Camarero"><rect codeLine="8" fill="#F1F1F1" height="105.2038" id="Camarero" rx="2.5" ry="2.5" style="stroke:#181818;stroke-width:0.5;" width="164" x="7" y="183.78"/><ellipse cx="51.75" cy="199.78" fill="#ADD1B2" rx="11" ry="11" style="stroke:#181818;stroke-width:1.0;"/><path d="M51.2188,206.7019 Q49.4688,206.7019 48.3281,205.9675 Q47.2031,205.2175 46.6406,203.8737 Q46.0938,202.5144 46.0938,200.7175 Q46.0938,198.6862 46.75,197.2331 Q47.4063,195.78 48.6875,194.9987 Q49.9688,194.2175 51.8438,194.2175 Q52.7344,194.2175 53.4063,194.405 Q54.0781,194.5769 54.7656,194.9206 L53.9531,196.9362 Q53.3281,196.6237 52.7813,196.4987 Q52.25,196.3737 51.7656,196.3737 Q50.5938,196.3737 49.8906,196.905 Q49.1875,197.4362 48.8906,198.3894 Q48.5938,199.3425 48.5938,200.6081 Q48.5938,202.6237 49.3125,203.5925 Q50.0313,204.5456 51.625,204.5456 Q52.2188,204.5456 52.8438,204.3894 Q53.4688,204.2331 54.2969,203.8581 L54.2969,206.0769 Q53.5625,206.3894 52.7656,206.5456 Q51.9844,206.7019 51.2188,206.7019 Z " fill="#000000"/><text fill="#000000" font-family="sans-serif" font-size="14" lengthAdjust="spacing" textLength="66" x="72.25" y="205.212">Camarero</text><line style="stroke:#181818;stroke-width:0.5;" x1="8" x2="170" y1="215.78" y2="215.78"/><line style="stroke:#181818;stroke-width:0.5;" x1="8" x2="170" y1="223.78" y2="223.78"/><ellipse cx="18" cy="238.814" fill="#84BE84" rx="3" ry="3" style="stroke:#038048;stroke-width:1.0;"/><text fill="#000000" font-family="sans-serif" font-size="14" lengthAdjust="spacing" textLength="138" x="27" y="242.7459">void recibir(Persona)</text><ellipse cx="18" cy="257.8819" fill="#84BE84" rx="3" ry="3" style="stroke:#038048;stroke-width:1.0;"/><text fill="#000000" font-family="sans-serif" font-size="14" lengthAdjust="spacing" textLength="121" x="27" y="261.8139">void visitar(Mujer)</text><ellipse cx="18" cy="276.9498" fill="#84BE84" rx="3" ry="3" style="stroke:#038048;stroke-width:1.0;"/><text fill="#000000" font-family="sans-serif" font-size="14" lengthAdjust="spacing" textLength="135" x="27" y="280.8818">void visitar(Hombre)</text></g><g id="elem_GMN4"><path d="M205.5,134 L205.5,232.38 L171.18,236.38 L205.5,240.38 L205.5,338.7662 A0,0 0 0 0 205.5,338.7662 L346.5,338.7662 A0,0 0 0 0 346.5,338.7662 L346.5,144 L336.5,134 L205.5,134 A0,0 0 0 0 205.5,134 " fill="#FEFFDD" style="stroke:#181818;stroke-width:0.5;"/><path d="M336.5,134 L336.5,144 L346.5,144 L336.5,134 " fill="#FEFFDD" style="stroke:#181818;stroke-width:0.5;"/><text fill="#000000" font-family="sans-serif" font-size="13" lengthAdjust="spacing" textLength="65" x="211.5" y="152.897">void visitar</text><text fill="#000000" font-family="sans-serif" font-size="13" lengthAdjust="spacing" textLength="89" x="217.5" y="170.603">(Mujer mujer) {</text><text fill="#000000" font-family="sans-serif" font-size="13" lengthAdjust="spacing" textLength="35" x="217.5" y="188.309">mujer</text><text fill="#000000" font-family="sans-serif" font-size="13" lengthAdjust="spacing" textLength="91" x="223.5" y="206.0151">.recibirPiropo();</text><text fill="#000000" font-family="sans-serif" font-size="13" lengthAdjust="spacing" textLength="5" x="211.5" y="223.7211">}</text><text fill="#000000" font-family="sans-serif" font-size="13" lengthAdjust="spacing" textLength="3" x="211.5" y="241.4271">&#160;</text><text fill="#000000" font-family="sans-serif" font-size="13" lengthAdjust="spacing" textLength="65" x="211.5" y="259.1331">void visitar</text><text fill="#000000" font-family="sans-serif" font-size="13" lengthAdjust="spacing" textLength="114" x="217.5" y="276.8391">(Hombre hombre){</text><text fill="#000000" font-family="sans-serif" font-size="13" lengthAdjust="spacing" textLength="48" x="217.5" y="294.5451">hombre</text><text fill="#000000" font-family="sans-serif" font-size="13" lengthAdjust="spacing" textLength="103" x="223.5" y="312.2512">.recibirPalmada();</text><text fill="#000000" font-family="sans-serif" font-size="13" lengthAdjust="spacing" textLength="5" x="211.5" y="329.9572">}</text></g><!--class Restaurante--><g id="elem_Restaurante"><rect fill="#F1F1F1" height="48" id="Restaurante" rx="2.5" ry="2.5" style="stroke:#181818;stroke-width:0.5;" width="114" x="890" y="7"/><ellipse cx="905" cy="23" fill="#ADD1B2" rx="11" ry="11" style="stroke:#181818;stroke-width:1.0;"/><path d="M904.4688,29.9219 Q902.7188,29.9219 901.5781,29.1875 Q900.4531,28.4375 899.8906,27.0938 Q899.3438,25.7344 899.3438,23.9375 Q899.3438,21.9063 900,20.4531 Q900.6563,19 901.9375,18.2188 Q903.2188,17.4375 905.0938,17.4375 Q905.9844,17.4375 906.6563,17.625 Q907.3281,17.7969 908.0156,18.1406 L907.2031,20.1563 Q906.5781,19.8438 906.0313,19.7188 Q905.5,19.5938 905.0156,19.5938 Q903.8438,19.5938 903.1406,20.125 Q902.4375,20.6563 902.1406,21.6094 Q901.8438,22.5625 901.8438,23.8281 Q901.8438,25.8438 902.5625,26.8125 Q903.2813,27.7656 904.875,27.7656 Q905.4688,27.7656 906.0938,27.6094 Q906.7188,27.4531 907.5469,27.0781 L907.5469,29.2969 Q906.8125,29.6094 906.0156,29.7656 Q905.2344,29.9219 904.4688,29.9219 Z " fill="#000000"/><text fill="#000000" font-family="sans-serif" font-size="14" lengthAdjust="spacing" textLength="82" x="919" y="28.432">Restaurante</text><line style="stroke:#181818;stroke-width:0.5;" x1="891" x2="1003" y1="39" y2="39"/><line style="stroke:#181818;stroke-width:0.5;" x1="891" x2="1003" y1="47" y2="47"/></g><!--link Restaurante to Camarero--><g id="link_Restaurante_Camarero"><path codeLine="68" d="M877.7282,35.5509 C722.9082,44.0909 311.49,71.98 188,134 C164.81,145.65 147.906,160.4354 131.356,179.0554 " fill="none" id="Restaurante-Camarero" style="stroke:#181818;stroke-width:1.0;"/><polygon fill="#181818" points="889.71,34.89,883.4988,31.2265,877.7282,35.5509,883.9394,39.2144,889.71,34.89" style="stroke:#181818;stroke-width:1.0;"/><polygon fill="#181818" points="127.37,183.54,136.3388,179.4705,130.6917,179.8028,130.3593,174.1558,127.37,183.54" style="stroke:#181818;stroke-width:1.0;"/></g><!--link Restaurante to OtroRol--><g id="link_Restaurante_OtroRol"><path codeLine="69" d="M1016.1206,47.5936 C1080.4806,63.2336 1175.09,90.31 1259,134 C1285,147.54 1306.5465,162.283 1328.9365,179.723 " fill="none" id="Restaurante-OtroRol" style="stroke:#181818;stroke-width:1.0;"/><polygon fill="#181818" points="1004.46,44.76,1009.3458,50.0637,1016.1206,47.5936,1011.2349,42.2899,1004.46,44.76" style="stroke:#181818;stroke-width:1.0;"/><polygon fill="#181818" points="1333.67,183.41,1329.0278,174.7238,1329.7254,180.3375,1324.1118,181.0351,1333.67,183.41" style="stroke:#181818;stroke-width:1.0;"/></g><!--link Restaurante to Persona--><g id="link_Restaurante_Persona"><path codeLine="70" d="M947,67.33 C947,100.83 947,145.09 947,186.89 " fill="none" id="Restaurante-Persona" style="stroke:#181818;stroke-width:1.0;"/><polygon fill="#181818" points="947,55.33,943,61.33,947,67.33,951,61.33,947,55.33" style="stroke:#181818;stroke-width:1.0;"/><polygon fill="#181818" points="947,192.89,951,183.89,947,187.89,943,183.89,947,192.89" style="stroke:#181818;stroke-width:1.0;"/><text fill="#000000" font-family="sans-serif" font-size="13" lengthAdjust="spacing" textLength="39" x="948" y="99.897">cliente</text></g><!--reverse link Persona to Hombre--><g id="link_Persona_Hombre"><path codeLine="72" d="M857.6997,281.3377 C779.1197,320.0077 670.47,373.48 587.18,414.47 " fill="none" id="Persona-backto-Hombre" style="stroke:#181818;stroke-width:1.0;"/><polygon fill="none" points="873.85,273.39,855.0504,275.9543,860.3489,286.7212,873.85,273.39" style="stroke:#181818;stroke-width:1.0;"/></g><!--reverse link Persona to Mujer--><g id="link_Persona_Mujer"><path codeLine="73" d="M947,297.71 C947,336.45 947,375.5 947,414.32 " fill="none" id="Persona-backto-Mujer" style="stroke:#181818;stroke-width:1.0;"/><polygon fill="none" points="947,279.71,941,297.71,953,297.71,947,279.71" style="stroke:#181818;stroke-width:1.0;"/></g><!--reverse link VisitadorPersona to Camarero--><g id="link_VisitadorPersona_Camarero"><path codeLine="75" d="M848.151,610.2742 C710.431,597.1642 455.04,568.14 370,524 C262.23,468.07 170.98,355.49 123.69,289.29 " fill="none" id="VisitadorPersona-backto-Camarero" style="stroke:#181818;stroke-width:1.0;"/><polygon fill="none" points="866.07,611.98,848.7196,604.3012,847.5824,616.2472,866.07,611.98" style="stroke:#181818;stroke-width:1.0;"/></g><!--reverse link VisitadorPersona to OtroRol--><g id="link_VisitadorPersona_OtroRol"><path codeLine="76" d="M1045.6879,602.9357 C1133.4879,587.2057 1247.96,561.28 1282,524 C1343.43,456.75 1372.71,351.94 1385.42,289.44 " fill="none" id="VisitadorPersona-backto-OtroRol" style="stroke:#181818;stroke-width:1.0;"/><polygon fill="none" points="1027.97,606.11,1046.746,608.8417,1044.6298,597.0297,1027.97,606.11" style="stroke:#181818;stroke-width:1.0;"/></g><!--link OtroRol to Persona--><g id="link_OtroRol_Persona"><path codeLine="78" d="M1311.53,236.38 C1214.47,236.38 1123.4,236.38 1026.34,236.38 " fill="none" id="OtroRol-to-Persona" style="stroke:#181818;stroke-width:1.0;stroke-dasharray:7.0,7.0;"/><polygon fill="#181818" points="1020.34,236.38,1029.34,240.38,1025.34,236.38,1029.34,232.38,1020.34,236.38" style="stroke:#181818;stroke-width:1.0;"/></g><!--link OtroRol to Hombre--><g id="link_OtroRol_Hombre"><path codeLine="79" d="M1339.1,289.43 C1316.08,308.2 1287.96,327.51 1259,338.77 C998.44,440.02 903.66,329.86 633,399.77 C618.37,403.55 608.8732,406.5329 594.3632,412.2429 " fill="none" id="OtroRol-to-Hombre" style="stroke:#181818;stroke-width:1.0;stroke-dasharray:7.0,7.0;"/><polygon fill="#181818" points="588.78,414.44,598.6196,414.8665,593.4327,412.6091,595.6901,407.4221,588.78,414.44" style="stroke:#181818;stroke-width:1.0;"/></g><!--link OtroRol to Mujer--><g id="link_OtroRol_Mujer"><path codeLine="80" d="M1379.95,289.41 C1369.52,317.78 1352.27,350.88 1325,369.77 C1234.46,432.49 1185.3,370.93 1079,399.77 C1064.78,403.62 1055.6927,406.5416 1041.5227,412.1216 " fill="none" id="OtroRol-to-Mujer" style="stroke:#181818;stroke-width:1.0;stroke-dasharray:7.0,7.0;"/><polygon fill="#181818" points="1035.94,414.32,1045.7797,414.7442,1040.5923,412.488,1042.8485,407.3005,1035.94,414.32" style="stroke:#181818;stroke-width:1.0;"/></g><!--link Camarero to Persona--><g id="link_Camarero_Persona"><path codeLine="82" d="M116.41,183.58 C136.33,151.34 166.6,112.89 205.5,94.5 C324.14,38.41 705.1878,154.9931 868.0078,209.2531 " fill="none" id="Camarero-to-Persona" style="stroke:#181818;stroke-width:1.0;stroke-dasharray:7.0,7.0;"/><polygon fill="#181818" points="873.7,211.15,866.4263,204.5098,868.9565,209.5692,863.897,212.0994,873.7,211.15" style="stroke:#181818;stroke-width:1.0;"/></g><!--link Camarero to Hombre--><g id="link_Camarero_Hombre"><path codeLine="83" d="M131.55,289.45 C147.8,306.89 167.41,325.31 188,338.77 C248.4,378.26 318.1753,405.4434 379.8953,424.8134 " fill="none" id="Camarero-to-Hombre" style="stroke:#181818;stroke-width:1.0;stroke-dasharray:7.0,7.0;"/><polygon fill="#181818" points="385.62,426.61,378.2307,420.0986,380.8494,425.1128,375.8352,427.7315,385.62,426.61" style="stroke:#181818;stroke-width:1.0;"/></g><!--link Camarero to Mujer--><g id="link_Camarero_Mujer"><path codeLine="84" d="M126.92,289.4 C143.47,308.17 164.49,327.49 188,338.77 C314.23,399.3 679.45,364.77 815,399.77 C829.63,403.54 839.1268,406.5329 853.6368,412.2429 " fill="none" id="Camarero-to-Mujer" style="stroke:#181818;stroke-width:1.0;stroke-dasharray:7.0,7.0;"/><polygon fill="#181818" points="859.22,414.44,852.3099,407.4221,854.5673,412.6091,849.3804,414.8665,859.22,414.44" style="stroke:#181818;stroke-width:1.0;"/></g><!--link Hombre to VisitadorPersona--><g id="link_Hombre_VisitadorPersona"><path codeLine="86" d="M581.73,501.31 C598.46,509.36 616.13,517.34 633,524 C710.48,554.6 796.1155,579.713 860.2755,596.953 " fill="none" id="Hombre-to-VisitadorPersona" style="stroke:#181818;stroke-width:1.0;stroke-dasharray:7.0,7.0;"/><polygon fill="#181818" points="866.07,598.51,858.4163,592.3115,861.2413,597.2125,856.3403,600.0375,866.07,598.51" style="stroke:#181818;stroke-width:1.0;"/></g><!--link Mujer to VisitadorPersona--><g id="link_Mujer_VisitadorPersona"><path codeLine="87" d="M947,501.39 C947,524.66 947,547.39 947,570.65 " fill="none" id="Mujer-to-VisitadorPersona" style="stroke:#181818;stroke-width:1.0;stroke-dasharray:7.0,7.0;"/><polygon fill="#181818" points="947,576.65,951,567.65,947,571.65,943,567.65,947,576.65" style="stroke:#181818;stroke-width:1.0;"/></g><!--link Persona to VisitadorPersona--><g id="link_Persona_VisitadorPersona"><path codeLine="88" d="M1020.27,252.18 C1095.56,271.72 1208.91,314.18 1261,399.77 C1289.71,446.93 1293.9,479.66 1261,524 C1233.08,561.63 1117.2879,589.0478 1033.8679,604.6378 " fill="none" id="Persona-to-VisitadorPersona" style="stroke:#181818;stroke-width:1.0;stroke-dasharray:7.0,7.0;"/><polygon fill="#181818" points="1027.97,605.74,1037.5517,608.0186,1032.8849,604.8215,1036.082,600.1547,1027.97,605.74" style="stroke:#181818;stroke-width:1.0;"/></g><rect fill="#DDDDDD" height="96.2717" id="_legend" rx="7.5" ry="7.5" style="stroke:#000000;stroke-width:1.0;" width="770" x="12" y="697.14"/><text fill="#000000" font-family="sans-serif" font-size="14" font-style="italic" font-weight="bold" lengthAdjust="spacing" textLength="43" x="17" y="717.1059">2Think</text><line style="stroke:#000000;stroke-width:1.0;" x1="12" x2="782" y1="726.2079" y2="726.2079"/><line style="stroke:#000000;stroke-width:1.0;" x1="12" x2="782" y1="728.2079" y2="728.2079"/><text fill="#000000" font-family="sans-serif" font-size="14" lengthAdjust="spacing" textLength="659" x="17" y="746.1739">- Persona: acepta(VisitadorPersona) es el punto de entrada para el patr&#243;n Visitor (doble despacho)</text><text fill="#000000" font-family="sans-serif" font-size="14" lengthAdjust="spacing" textLength="760" x="17" y="765.2418">- VisitadorPersona: permite definir distintos comportamientos seg&#250;n el tipo concreto de Persona (Hombre/Mujer)</text><text fill="#000000" font-family="sans-serif" font-size="14" lengthAdjust="spacing" textLength="589" x="17" y="784.3097">- Restaurante: simula la interacci&#243;n usando Recepcionista y Camarero como Visitadores</text><!--SRC=[pLKzZzim3DtrApWcBP807TCqoorTYXuEHQSkjAp4wjcY8IafYZI_gblN-sEbB2dnLu4E7He4Y4DIZu_a4orhT0u-UajFL0DSn6iuaox1AgaBRHUFoZeokCpsitRQerryE7rLTc9zJqrXrL9SXP0Ty0CsQ9MbVuXio2km-bXvqOyG0F4eD1q09uJuoBy0wvJsKLjgQR5y6pYEpySaKCLS0I0-3X6mRh342A5C6VW8qQ9yngE2DbRbEBtGnYjxGAdWSvUZ99kAldVZh_lfwQXynULT11REMvGUOe_xc9VikqOWJjuoq1S3Yp67tfHYtyOJogtAveGr2pGUIeeDJHs7TyqyZp6wSPtdGjUv6RxIRjZqo3vDRSe_3-h_BU0QPl2adCUJHLOBl5gLzCsizhUBC-zDztNUcVMmPNrePKAURDhzY46fPrDxfmGX9dgz1Tnu_JaaanDvgwpNDr83MoBHDwNyjxNHFpemfhC3MpgSz10iaz55fS-wSXspJY5gTUInGQqENkoA_Kxlttogj7dURVH-jodsuXr_n2gptIO5JSK6oe6geJqPJr0gu0bPbYcqQB5peBSlFqtaG1OM9HMruaZ7EwQY9USOOsx3sccq3r47RRI5KZlFwuSSI6fQiXwR80N-xzJnvPS9YRnkYTr6MXMPv0wajRD9Esa5FPbjmUdcL2FmjzjlAAKET4yEJKaSocLBJOO987o_lm2O1zs9AnSkGUof-0q0]--></g></svg>