<?xml version="1.0" encoding="us-ascii" standalone="no"?><svg xmlns="http://www.w3.org/2000/svg" xmlns:xlink="http://www.w3.org/1999/xlink" contentStyleType="text/css" height="1040px" preserveAspectRatio="none" style="width:1935px;height:1040px;background:#FFFFFF;" version="1.1" viewBox="0 0 1935 1040" width="1935px" zoomAndPan="magnify"><defs/><g><!--class Biblioteca--><g id="elem_Biblioteca"><rect codeLine="2" fill="#F1F1F1" height="410.2904" id="Biblioteca" rx="2.5" ry="2.5" style="stroke:#181818;stroke-width:0.5;" width="383" x="644" y="7"/><ellipse cx="798.25" cy="23" fill="#ADD1B2" rx="11" ry="11" style="stroke:#181818;stroke-width:1.0;"/><path d="M801.2188,28.6406 Q800.6406,28.9375 800,29.0781 Q799.3594,29.2344 798.6563,29.2344 Q796.1563,29.2344 794.8281,27.5938 Q793.5156,25.9375 793.5156,22.8125 Q793.5156,19.6875 794.8281,18.0313 Q796.1563,16.375 798.6563,16.375 Q799.3594,16.375 800,16.5313 Q800.6563,16.6875 801.2188,16.9844 L801.2188,19.7031 Q800.5938,19.125 800,18.8594 Q799.4063,18.5781 798.7813,18.5781 Q797.4375,18.5781 796.75,19.6563 Q796.0625,20.7188 796.0625,22.8125 Q796.0625,24.9063 796.75,25.9844 Q797.4375,27.0469 798.7813,27.0469 Q799.4063,27.0469 800,26.7813 Q800.5938,26.5 801.2188,25.9219 L801.2188,28.6406 Z " fill="#000000"/><text fill="#000000" font-family="sans-serif" font-size="14" lengthAdjust="spacing" textLength="66" x="818.75" y="28.432">Biblioteca</text><line style="stroke:#181818;stroke-width:0.5;" x1="645" x2="1026" y1="39" y2="39"/><rect fill="none" height="6" style="stroke:#C82930;stroke-width:1.0;" width="6" x="652" y="51.034"/><text fill="#000000" font-family="sans-serif" font-size="14" lengthAdjust="spacing" textLength="190" x="664" y="57.9659">inventarioLibros: List&lt;Libro&gt;</text><rect fill="none" height="6" style="stroke:#C82930;stroke-width:1.0;" width="6" x="652" y="70.1019"/><text fill="#000000" font-family="sans-serif" font-size="14" lengthAdjust="spacing" textLength="157" x="664" y="77.0339">usuarios: List&lt;Usuario&gt;</text><rect fill="none" height="6" style="stroke:#C82930;stroke-width:1.0;" width="6" x="652" y="89.1698"/><text fill="#000000" font-family="sans-serif" font-size="14" lengthAdjust="spacing" textLength="228" x="664" y="96.1018">prestamosActivos: List&lt;Prestamo&gt;</text><rect fill="none" height="6" style="stroke:#C82930;stroke-width:1.0;" width="6" x="652" y="108.2377"/><text fill="#000000" font-family="sans-serif" font-size="14" lengthAdjust="spacing" textLength="148" x="664" y="115.1697">baseDatos: BaseDatos</text><rect fill="none" height="6" style="stroke:#C82930;stroke-width:1.0;" width="6" x="652" y="127.3056"/><text fill="#000000" font-family="sans-serif" font-size="14" lengthAdjust="spacing" textLength="165" x="664" y="134.2376">interfaz: InterfazUsuario</text><rect fill="none" height="6" style="stroke:#C82930;stroke-width:1.0;" width="6" x="652" y="146.3735"/><text fill="#000000" font-family="sans-serif" font-size="14" lengthAdjust="spacing" textLength="185" x="664" y="153.3055">servicioEmail: ServicioEmail</text><text fill="#000000" font-family="sans-serif" font-size="14" lengthAdjust="spacing" textLength="4" x="664" y="172.3734">&#160;</text><ellipse cx="655" cy="187.5094" fill="#84BE84" rx="3" ry="3" style="stroke:#038048;stroke-width:1.0;"/><text fill="#000000" font-family="sans-serif" font-size="14" lengthAdjust="spacing" textLength="74" x="664" y="191.4414">Biblioteca()</text><ellipse cx="655" cy="206.5773" fill="#84BE84" rx="3" ry="3" style="stroke:#038048;stroke-width:1.0;"/><text fill="#000000" font-family="sans-serif" font-size="14" lengthAdjust="spacing" textLength="205" x="664" y="210.5093">agregarLibro(libro: Libro): void</text><ellipse cx="655" cy="225.6452" fill="#84BE84" rx="3" ry="3" style="stroke:#038048;stroke-width:1.0;"/><text fill="#000000" font-family="sans-serif" font-size="14" lengthAdjust="spacing" textLength="263" x="664" y="229.5772">buscarLibroPorISBN(isbn: String): Libro</text><ellipse cx="655" cy="244.7131" fill="#84BE84" rx="3" ry="3" style="stroke:#038048;stroke-width:1.0;"/><text fill="#000000" font-family="sans-serif" font-size="14" lengthAdjust="spacing" textLength="266" x="664" y="248.6451">registrarUsuario(usuario: Usuario): void</text><ellipse cx="655" cy="263.781" fill="#84BE84" rx="3" ry="3" style="stroke:#038048;stroke-width:1.0;"/><text fill="#000000" font-family="sans-serif" font-size="14" lengthAdjust="spacing" textLength="241" x="664" y="267.713">buscarUsuarioPorId(id: int): Usuario</text><ellipse cx="655" cy="282.849" fill="#84BE84" rx="3" ry="3" style="stroke:#038048;stroke-width:1.0;"/><text fill="#000000" font-family="sans-serif" font-size="14" lengthAdjust="spacing" textLength="304" x="664" y="286.7809">prestarLibro(isbn: String, idUsuario: int): void</text><ellipse cx="655" cy="301.9169" fill="#84BE84" rx="3" ry="3" style="stroke:#038048;stroke-width:1.0;"/><text fill="#000000" font-family="sans-serif" font-size="14" lengthAdjust="spacing" textLength="213" x="664" y="305.8489">devolverLibro(isbn: String): void</text><ellipse cx="655" cy="320.9848" fill="#84BE84" rx="3" ry="3" style="stroke:#038048;stroke-width:1.0;"/><text fill="#000000" font-family="sans-serif" font-size="14" lengthAdjust="spacing" textLength="292" x="664" y="324.9168">generarReporteLibrosMasSolicitados(): void</text><rect fill="#F24D5C" height="6" style="stroke:#C82930;stroke-width:1.0;" width="6" x="652" y="337.0527"/><text fill="#000000" font-family="sans-serif" font-size="14" lengthAdjust="spacing" textLength="291" x="664" y="343.9847">generarRecibo(prestamo: Prestamo): String</text><rect fill="#F24D5C" height="6" style="stroke:#C82930;stroke-width:1.0;" width="6" x="652" y="356.1206"/><text fill="#000000" font-family="sans-serif" font-size="14" lengthAdjust="spacing" textLength="290" x="664" y="363.0526">calcularMulta(prestamo: Prestamo): double</text><rect fill="#F24D5C" height="6" style="stroke:#C82930;stroke-width:1.0;" width="6" x="652" y="375.1885"/><text fill="#000000" font-family="sans-serif" font-size="14" lengthAdjust="spacing" textLength="357" x="664" y="382.1205">buscarPrestamoActivoPorLibro(libro: Libro): Prestamo</text><line style="stroke:#181818;stroke-width:1.0;stroke-dasharray:1.0,2.0;" x1="645" x2="1026" y1="390.2225" y2="390.2225"/><text fill="#000000" font-family="sans-serif" font-size="14" lengthAdjust="spacing" textLength="191" x="650" y="409.1884">...&amp; otros muchos m&#233;todos!!!</text></g><!--class Libro--><g id="elem_Libro"><rect codeLine="25" fill="#F1F1F1" height="219.6113" id="Libro" rx="2.5" ry="2.5" style="stroke:#181818;stroke-width:0.5;" width="295" x="7" y="814"/><ellipse cx="133.25" cy="830" fill="#ADD1B2" rx="11" ry="11" style="stroke:#181818;stroke-width:1.0;"/><path d="M136.2188,835.6406 Q135.6406,835.9375 135,836.0781 Q134.3594,836.2344 133.6563,836.2344 Q131.1563,836.2344 129.8281,834.5938 Q128.5156,832.9375 128.5156,829.8125 Q128.5156,826.6875 129.8281,825.0313 Q131.1563,823.375 133.6563,823.375 Q134.3594,823.375 135,823.5313 Q135.6563,823.6875 136.2188,823.9844 L136.2188,826.7031 Q135.5938,826.125 135,825.8594 Q134.4063,825.5781 133.7813,825.5781 Q132.4375,825.5781 131.75,826.6563 Q131.0625,827.7188 131.0625,829.8125 Q131.0625,831.9063 131.75,832.9844 Q132.4375,834.0469 133.7813,834.0469 Q134.4063,834.0469 135,833.7813 Q135.5938,833.5 136.2188,832.9219 L136.2188,835.6406 Z " fill="#000000"/><text fill="#000000" font-family="sans-serif" font-size="14" lengthAdjust="spacing" textLength="34" x="153.75" y="835.432">Libro</text><line style="stroke:#181818;stroke-width:0.5;" x1="8" x2="301" y1="846" y2="846"/><rect fill="none" height="6" style="stroke:#C82930;stroke-width:1.0;" width="6" x="15" y="858.034"/><text fill="#000000" font-family="sans-serif" font-size="14" lengthAdjust="spacing" textLength="78" x="27" y="864.9659">isbn: String</text><rect fill="none" height="6" style="stroke:#C82930;stroke-width:1.0;" width="6" x="15" y="877.1019"/><text fill="#000000" font-family="sans-serif" font-size="14" lengthAdjust="spacing" textLength="84" x="27" y="884.0339">titulo: String</text><rect fill="none" height="6" style="stroke:#C82930;stroke-width:1.0;" width="6" x="15" y="896.1698"/><text fill="#000000" font-family="sans-serif" font-size="14" lengthAdjust="spacing" textLength="85" x="27" y="903.1018">autor: String</text><rect fill="none" height="6" style="stroke:#C82930;stroke-width:1.0;" width="6" x="15" y="915.2377"/><text fill="#000000" font-family="sans-serif" font-size="14" lengthAdjust="spacing" textLength="133" x="27" y="922.1697">disponible: boolean</text><line style="stroke:#181818;stroke-width:0.5;" x1="8" x2="301" y1="930.2717" y2="930.2717"/><ellipse cx="18" cy="945.3056" fill="#84BE84" rx="3" ry="3" style="stroke:#038048;stroke-width:1.0;"/><text fill="#000000" font-family="sans-serif" font-size="14" lengthAdjust="spacing" textLength="109" x="27" y="949.2376">getIsbn(): String</text><ellipse cx="18" cy="964.3735" fill="#84BE84" rx="3" ry="3" style="stroke:#038048;stroke-width:1.0;"/><text fill="#000000" font-family="sans-serif" font-size="14" lengthAdjust="spacing" textLength="117" x="27" y="968.3055">getTitulo(): String</text><ellipse cx="18" cy="983.4415" fill="#84BE84" rx="3" ry="3" style="stroke:#038048;stroke-width:1.0;"/><text fill="#000000" font-family="sans-serif" font-size="14" lengthAdjust="spacing" textLength="116" x="27" y="987.3734">getAutor(): String</text><ellipse cx="18" cy="1002.5094" fill="#84BE84" rx="3" ry="3" style="stroke:#038048;stroke-width:1.0;"/><text fill="#000000" font-family="sans-serif" font-size="14" lengthAdjust="spacing" textLength="153" x="27" y="1006.4414">isDisponible(): boolean</text><ellipse cx="18" cy="1021.5773" fill="#84BE84" rx="3" ry="3" style="stroke:#038048;stroke-width:1.0;"/><text fill="#000000" font-family="sans-serif" font-size="14" lengthAdjust="spacing" textLength="269" x="27" y="1025.5093">setDisponible(disponible: boolean): void</text></g><!--class Usuario--><g id="elem_Usuario"><rect codeLine="38" fill="#F1F1F1" height="219.6113" id="Usuario" rx="2.5" ry="2.5" style="stroke:#181818;stroke-width:0.5;" width="261" x="404" y="814"/><ellipse cx="504.25" cy="830" fill="#ADD1B2" rx="11" ry="11" style="stroke:#181818;stroke-width:1.0;"/><path d="M507.2188,835.6406 Q506.6406,835.9375 506,836.0781 Q505.3594,836.2344 504.6563,836.2344 Q502.1563,836.2344 500.8281,834.5938 Q499.5156,832.9375 499.5156,829.8125 Q499.5156,826.6875 500.8281,825.0313 Q502.1563,823.375 504.6563,823.375 Q505.3594,823.375 506,823.5313 Q506.6563,823.6875 507.2188,823.9844 L507.2188,826.7031 Q506.5938,826.125 506,825.8594 Q505.4063,825.5781 504.7813,825.5781 Q503.4375,825.5781 502.75,826.6563 Q502.0625,827.7188 502.0625,829.8125 Q502.0625,831.9063 502.75,832.9844 Q503.4375,834.0469 504.7813,834.0469 Q505.4063,834.0469 506,833.7813 Q506.5938,833.5 507.2188,832.9219 L507.2188,835.6406 Z " fill="#000000"/><text fill="#000000" font-family="sans-serif" font-size="14" lengthAdjust="spacing" textLength="52" x="524.75" y="835.432">Usuario</text><line style="stroke:#181818;stroke-width:0.5;" x1="405" x2="664" y1="846" y2="846"/><rect fill="none" height="6" style="stroke:#C82930;stroke-width:1.0;" width="6" x="412" y="858.034"/><text fill="#000000" font-family="sans-serif" font-size="14" lengthAdjust="spacing" textLength="39" x="424" y="864.9659">id: int</text><rect fill="none" height="6" style="stroke:#C82930;stroke-width:1.0;" width="6" x="412" y="877.1019"/><text fill="#000000" font-family="sans-serif" font-size="14" lengthAdjust="spacing" textLength="102" x="424" y="884.0339">nombre: String</text><rect fill="none" height="6" style="stroke:#C82930;stroke-width:1.0;" width="6" x="412" y="896.1698"/><text fill="#000000" font-family="sans-serif" font-size="14" lengthAdjust="spacing" textLength="86" x="424" y="903.1018">email: String</text><rect fill="none" height="6" style="stroke:#C82930;stroke-width:1.0;" width="6" x="412" y="915.2377"/><text fill="#000000" font-family="sans-serif" font-size="14" lengthAdjust="spacing" textLength="141" x="424" y="922.1697">multas: List&lt;Double&gt;</text><line style="stroke:#181818;stroke-width:0.5;" x1="405" x2="664" y1="930.2717" y2="930.2717"/><ellipse cx="415" cy="945.3056" fill="#84BE84" rx="3" ry="3" style="stroke:#038048;stroke-width:1.0;"/><text fill="#000000" font-family="sans-serif" font-size="14" lengthAdjust="spacing" textLength="70" x="424" y="949.2376">getId(): int</text><ellipse cx="415" cy="964.3735" fill="#84BE84" rx="3" ry="3" style="stroke:#038048;stroke-width:1.0;"/><text fill="#000000" font-family="sans-serif" font-size="14" lengthAdjust="spacing" textLength="134" x="424" y="968.3055">getNombre(): String</text><ellipse cx="415" cy="983.4415" fill="#84BE84" rx="3" ry="3" style="stroke:#038048;stroke-width:1.0;"/><text fill="#000000" font-family="sans-serif" font-size="14" lengthAdjust="spacing" textLength="116" x="424" y="987.3734">getEmail(): String</text><ellipse cx="415" cy="1002.5094" fill="#84BE84" rx="3" ry="3" style="stroke:#038048;stroke-width:1.0;"/><text fill="#000000" font-family="sans-serif" font-size="14" lengthAdjust="spacing" textLength="235" x="424" y="1006.4414">agregarMulta(monto: double): void</text><ellipse cx="415" cy="1021.5773" fill="#84BE84" rx="3" ry="3" style="stroke:#038048;stroke-width:1.0;"/><text fill="#000000" font-family="sans-serif" font-size="14" lengthAdjust="spacing" textLength="171" x="424" y="1025.5093">getMultas(): List&lt;Double&gt;</text></g><!--class Prestamo--><g id="elem_Prestamo"><rect codeLine="51" fill="#F1F1F1" height="238.6792" id="Prestamo" rx="2.5" ry="2.5" style="stroke:#181818;stroke-width:0.5;" width="289" x="209" y="496"/><ellipse cx="317.75" cy="512" fill="#ADD1B2" rx="11" ry="11" style="stroke:#181818;stroke-width:1.0;"/><path d="M320.7188,517.6406 Q320.1406,517.9375 319.5,518.0781 Q318.8594,518.2344 318.1563,518.2344 Q315.6563,518.2344 314.3281,516.5938 Q313.0156,514.9375 313.0156,511.8125 Q313.0156,508.6875 314.3281,507.0313 Q315.6563,505.375 318.1563,505.375 Q318.8594,505.375 319.5,505.5313 Q320.1563,505.6875 320.7188,505.9844 L320.7188,508.7031 Q320.0938,508.125 319.5,507.8594 Q318.9063,507.5781 318.2813,507.5781 Q316.9375,507.5781 316.25,508.6563 Q315.5625,509.7188 315.5625,511.8125 Q315.5625,513.9063 316.25,514.9844 Q316.9375,516.0469 318.2813,516.0469 Q318.9063,516.0469 319.5,515.7813 Q320.0938,515.5 320.7188,514.9219 L320.7188,517.6406 Z " fill="#000000"/><text fill="#000000" font-family="sans-serif" font-size="14" lengthAdjust="spacing" textLength="63" x="338.25" y="517.432">Prestamo</text><line style="stroke:#181818;stroke-width:0.5;" x1="210" x2="497" y1="528" y2="528"/><rect fill="none" height="6" style="stroke:#C82930;stroke-width:1.0;" width="6" x="217" y="540.034"/><text fill="#000000" font-family="sans-serif" font-size="14" lengthAdjust="spacing" textLength="73" x="229" y="546.9659">libro: Libro</text><rect fill="none" height="6" style="stroke:#C82930;stroke-width:1.0;" width="6" x="217" y="559.1019"/><text fill="#000000" font-family="sans-serif" font-size="14" lengthAdjust="spacing" textLength="111" x="229" y="566.0339">usuario: Usuario</text><rect fill="none" height="6" style="stroke:#C82930;stroke-width:1.0;" width="6" x="217" y="578.1698"/><text fill="#000000" font-family="sans-serif" font-size="14" lengthAdjust="spacing" textLength="139" x="229" y="585.1018">fechaPrestamo: Date</text><rect fill="none" height="6" style="stroke:#C82930;stroke-width:1.0;" width="6" x="217" y="597.2377"/><text fill="#000000" font-family="sans-serif" font-size="14" lengthAdjust="spacing" textLength="150" x="229" y="604.1697">fechaDevolucion: Date</text><line style="stroke:#181818;stroke-width:0.5;" x1="210" x2="497" y1="612.2717" y2="612.2717"/><ellipse cx="220" cy="627.3056" fill="#84BE84" rx="3" ry="3" style="stroke:#038048;stroke-width:1.0;"/><text fill="#000000" font-family="sans-serif" font-size="14" lengthAdjust="spacing" textLength="263" x="229" y="631.2376">Prestamo(libro: Libro, usuario: Usuario)</text><ellipse cx="220" cy="646.3735" fill="#84BE84" rx="3" ry="3" style="stroke:#038048;stroke-width:1.0;"/><text fill="#000000" font-family="sans-serif" font-size="14" lengthAdjust="spacing" textLength="106" x="229" y="650.3055">getLibro(): Libro</text><ellipse cx="220" cy="665.4415" fill="#84BE84" rx="3" ry="3" style="stroke:#038048;stroke-width:1.0;"/><text fill="#000000" font-family="sans-serif" font-size="14" lengthAdjust="spacing" textLength="142" x="229" y="669.3734">getUsuario(): Usuario</text><ellipse cx="220" cy="684.5094" fill="#84BE84" rx="3" ry="3" style="stroke:#038048;stroke-width:1.0;"/><text fill="#000000" font-family="sans-serif" font-size="14" lengthAdjust="spacing" textLength="171" x="229" y="688.4414">getFechaPrestamo(): Date</text><ellipse cx="220" cy="703.5773" fill="#84BE84" rx="3" ry="3" style="stroke:#038048;stroke-width:1.0;"/><text fill="#000000" font-family="sans-serif" font-size="14" lengthAdjust="spacing" textLength="182" x="229" y="707.5093">getFechaDevolucion(): Date</text><ellipse cx="220" cy="722.6452" fill="#84BE84" rx="3" ry="3" style="stroke:#038048;stroke-width:1.0;"/><text fill="#000000" font-family="sans-serif" font-size="14" lengthAdjust="spacing" textLength="151" x="229" y="726.5772">estaVencido(): boolean</text></g><!--class BaseDatos--><g id="elem_BaseDatos"><rect codeLine="65" fill="#F1F1F1" height="162.4075" id="BaseDatos" rx="2.5" ry="2.5" style="stroke:#181818;stroke-width:0.5;" width="370" x="650.5" y="534.5"/><ellipse cx="796.25" cy="550.5" fill="#ADD1B2" rx="11" ry="11" style="stroke:#181818;stroke-width:1.0;"/><path d="M799.2188,556.1406 Q798.6406,556.4375 798,556.5781 Q797.3594,556.7344 796.6563,556.7344 Q794.1563,556.7344 792.8281,555.0938 Q791.5156,553.4375 791.5156,550.3125 Q791.5156,547.1875 792.8281,545.5313 Q794.1563,543.875 796.6563,543.875 Q797.3594,543.875 798,544.0313 Q798.6563,544.1875 799.2188,544.4844 L799.2188,547.2031 Q798.5938,546.625 798,546.3594 Q797.4063,546.0781 796.7813,546.0781 Q795.4375,546.0781 794.75,547.1563 Q794.0625,548.2188 794.0625,550.3125 Q794.0625,552.4063 794.75,553.4844 Q795.4375,554.5469 796.7813,554.5469 Q797.4063,554.5469 798,554.2813 Q798.5938,554 799.2188,553.4219 L799.2188,556.1406 Z " fill="#000000"/><text fill="#000000" font-family="sans-serif" font-size="14" lengthAdjust="spacing" textLength="70" x="816.75" y="555.932">BaseDatos</text><line style="stroke:#181818;stroke-width:0.5;" x1="651.5" x2="1019.5" y1="566.5" y2="566.5"/><line style="stroke:#181818;stroke-width:0.5;" x1="651.5" x2="1019.5" y1="574.5" y2="574.5"/><ellipse cx="661.5" cy="589.534" fill="#84BE84" rx="3" ry="3" style="stroke:#038048;stroke-width:1.0;"/><text fill="#000000" font-family="sans-serif" font-size="14" lengthAdjust="spacing" textLength="206" x="670.5" y="593.4659">guardarLibro(libro: Libro): void</text><ellipse cx="661.5" cy="608.6019" fill="#84BE84" rx="3" ry="3" style="stroke:#038048;stroke-width:1.0;"/><text fill="#000000" font-family="sans-serif" font-size="14" lengthAdjust="spacing" textLength="262" x="670.5" y="612.5339">guardarUsuario(usuario: Usuario): void</text><ellipse cx="661.5" cy="627.6698" fill="#84BE84" rx="3" ry="3" style="stroke:#038048;stroke-width:1.0;"/><text fill="#000000" font-family="sans-serif" font-size="14" lengthAdjust="spacing" textLength="301" x="670.5" y="631.6018">registrarPrestamo(prestamo: Prestamo): void</text><ellipse cx="661.5" cy="646.7377" fill="#84BE84" rx="3" ry="3" style="stroke:#038048;stroke-width:1.0;"/><text fill="#000000" font-family="sans-serif" font-size="14" lengthAdjust="spacing" textLength="262" x="670.5" y="650.6697">actualizarEstadoLibro(libro: Libro): void</text><ellipse cx="661.5" cy="665.8056" fill="#84BE84" rx="3" ry="3" style="stroke:#038048;stroke-width:1.0;"/><text fill="#000000" font-family="sans-serif" font-size="14" lengthAdjust="spacing" textLength="283" x="670.5" y="669.7376">cerrarPrestamo(prestamo: Prestamo): void</text><ellipse cx="661.5" cy="684.8735" fill="#84BE84" rx="3" ry="3" style="stroke:#038048;stroke-width:1.0;"/><text fill="#000000" font-family="sans-serif" font-size="14" lengthAdjust="spacing" textLength="344" x="670.5" y="688.8055">obtenerEstadisticasPrestamos(): List&lt;ReporteLibro&gt;</text></g><!--class InterfazUsuario--><g id="elem_InterfazUsuario"><rect codeLine="74" fill="#F1F1F1" height="162.4075" id="InterfazUsuario" rx="2.5" ry="2.5" style="stroke:#181818;stroke-width:0.5;" width="360" x="1055.5" y="534.5"/><ellipse cx="1178.75" cy="550.5" fill="#ADD1B2" rx="11" ry="11" style="stroke:#181818;stroke-width:1.0;"/><path d="M1181.7188,556.1406 Q1181.1406,556.4375 1180.5,556.5781 Q1179.8594,556.7344 1179.1563,556.7344 Q1176.6563,556.7344 1175.3281,555.0938 Q1174.0156,553.4375 1174.0156,550.3125 Q1174.0156,547.1875 1175.3281,545.5313 Q1176.6563,543.875 1179.1563,543.875 Q1179.8594,543.875 1180.5,544.0313 Q1181.1563,544.1875 1181.7188,544.4844 L1181.7188,547.2031 Q1181.0938,546.625 1180.5,546.3594 Q1179.9063,546.0781 1179.2813,546.0781 Q1177.9375,546.0781 1177.25,547.1563 Q1176.5625,548.2188 1176.5625,550.3125 Q1176.5625,552.4063 1177.25,553.4844 Q1177.9375,554.5469 1179.2813,554.5469 Q1179.9063,554.5469 1180.5,554.2813 Q1181.0938,554 1181.7188,553.4219 L1181.7188,556.1406 Z " fill="#000000"/><text fill="#000000" font-family="sans-serif" font-size="14" lengthAdjust="spacing" textLength="105" x="1199.25" y="555.932">InterfazUsuario</text><line style="stroke:#181818;stroke-width:0.5;" x1="1056.5" x2="1414.5" y1="566.5" y2="566.5"/><rect fill="none" height="6" style="stroke:#C82930;stroke-width:1.0;" width="6" x="1063.5" y="578.534"/><text fill="#000000" font-family="sans-serif" font-size="14" lengthAdjust="spacing" textLength="140" x="1075.5" y="585.4659">biblioteca: Biblioteca</text><line style="stroke:#181818;stroke-width:0.5;" x1="1056.5" x2="1414.5" y1="593.5679" y2="593.5679"/><ellipse cx="1066.5" cy="608.6019" fill="#84BE84" rx="3" ry="3" style="stroke:#038048;stroke-width:1.0;"/><text fill="#000000" font-family="sans-serif" font-size="14" lengthAdjust="spacing" textLength="253" x="1075.5" y="612.5339">InterfazUsuario(biblioteca: Biblioteca)</text><ellipse cx="1066.5" cy="627.6698" fill="#84BE84" rx="3" ry="3" style="stroke:#038048;stroke-width:1.0;"/><text fill="#000000" font-family="sans-serif" font-size="14" lengthAdjust="spacing" textLength="260" x="1075.5" y="631.6018">mostrarMensaje(mensaje: String): void</text><ellipse cx="1066.5" cy="646.7377" fill="#84BE84" rx="3" ry="3" style="stroke:#038048;stroke-width:1.0;"/><text fill="#000000" font-family="sans-serif" font-size="14" lengthAdjust="spacing" textLength="214" x="1075.5" y="650.6697">mostrarError(error: String): void</text><ellipse cx="1066.5" cy="665.8056" fill="#84BE84" rx="3" ry="3" style="stroke:#038048;stroke-width:1.0;"/><text fill="#000000" font-family="sans-serif" font-size="14" lengthAdjust="spacing" textLength="233" x="1075.5" y="669.7376">mostrarRecibo(recibo: String): void</text><ellipse cx="1066.5" cy="684.8735" fill="#84BE84" rx="3" ry="3" style="stroke:#038048;stroke-width:1.0;"/><text fill="#000000" font-family="sans-serif" font-size="14" lengthAdjust="spacing" textLength="334" x="1075.5" y="688.8055">mostrarReporte(reporte: List&lt;ReporteLibro&gt;): void</text></g><!--class ServicioEmail--><g id="elem_ServicioEmail"><rect codeLine="84" fill="#F1F1F1" height="105.2038" id="ServicioEmail" rx="2.5" ry="2.5" style="stroke:#181818;stroke-width:0.5;" width="477" x="1451" y="563"/><ellipse cx="1640.75" cy="579" fill="#ADD1B2" rx="11" ry="11" style="stroke:#181818;stroke-width:1.0;"/><path d="M1643.7188,584.6406 Q1643.1406,584.9375 1642.5,585.0781 Q1641.8594,585.2344 1641.1563,585.2344 Q1638.6563,585.2344 1637.3281,583.5938 Q1636.0156,581.9375 1636.0156,578.8125 Q1636.0156,575.6875 1637.3281,574.0313 Q1638.6563,572.375 1641.1563,572.375 Q1641.8594,572.375 1642.5,572.5313 Q1643.1563,572.6875 1643.7188,572.9844 L1643.7188,575.7031 Q1643.0938,575.125 1642.5,574.8594 Q1641.9063,574.5781 1641.2813,574.5781 Q1639.9375,574.5781 1639.25,575.6563 Q1638.5625,576.7188 1638.5625,578.8125 Q1638.5625,580.9063 1639.25,581.9844 Q1639.9375,583.0469 1641.2813,583.0469 Q1641.9063,583.0469 1642.5,582.7813 Q1643.0938,582.5 1643.7188,581.9219 L1643.7188,584.6406 Z " fill="#000000"/><text fill="#000000" font-family="sans-serif" font-size="14" lengthAdjust="spacing" textLength="89" x="1661.25" y="584.432">ServicioEmail</text><line style="stroke:#181818;stroke-width:0.5;" x1="1452" x2="1927" y1="595" y2="595"/><line style="stroke:#181818;stroke-width:0.5;" x1="1452" x2="1927" y1="603" y2="603"/><ellipse cx="1462" cy="618.034" fill="#84BE84" rx="3" ry="3" style="stroke:#038048;stroke-width:1.0;"/><text fill="#000000" font-family="sans-serif" font-size="14" lengthAdjust="spacing" textLength="247" x="1471" y="621.9659">enviarBienvenida(email: String): void</text><ellipse cx="1462" cy="637.1019" fill="#84BE84" rx="3" ry="3" style="stroke:#038048;stroke-width:1.0;"/><text fill="#000000" font-family="sans-serif" font-size="14" lengthAdjust="spacing" textLength="451" x="1471" y="641.0339">enviarConfirmacionPrestamo(email: String, tituloLibro: String): void</text><ellipse cx="1462" cy="656.1698" fill="#84BE84" rx="3" ry="3" style="stroke:#038048;stroke-width:1.0;"/><text fill="#000000" font-family="sans-serif" font-size="14" lengthAdjust="spacing" textLength="331" x="1471" y="660.1018">notificarMulta(email: String, monto: double): void</text></g><!--class ReporteLibro--><g id="elem_ReporteLibro"><rect codeLine="90" fill="#F1F1F1" height="105.2038" id="ReporteLibro" rx="2.5" ry="2.5" style="stroke:#181818;stroke-width:0.5;" width="148" x="1062.5" y="159.5"/><ellipse cx="1090.55" cy="175.5" fill="#ADD1B2" rx="11" ry="11" style="stroke:#181818;stroke-width:1.0;"/><path d="M1093.5188,181.1406 Q1092.9406,181.4375 1092.3,181.5781 Q1091.6594,181.7344 1090.9563,181.7344 Q1088.4563,181.7344 1087.1281,180.0938 Q1085.8156,178.4375 1085.8156,175.3125 Q1085.8156,172.1875 1087.1281,170.5313 Q1088.4563,168.875 1090.9563,168.875 Q1091.6594,168.875 1092.3,169.0313 Q1092.9563,169.1875 1093.5188,169.4844 L1093.5188,172.2031 Q1092.8938,171.625 1092.3,171.3594 Q1091.7063,171.0781 1091.0813,171.0781 Q1089.7375,171.0781 1089.05,172.1563 Q1088.3625,173.2188 1088.3625,175.3125 Q1088.3625,177.4063 1089.05,178.4844 Q1089.7375,179.5469 1091.0813,179.5469 Q1091.7063,179.5469 1092.3,179.2813 Q1092.8938,179 1093.5188,178.4219 L1093.5188,181.1406 Z " fill="#000000"/><text fill="#000000" font-family="sans-serif" font-size="14" lengthAdjust="spacing" textLength="87" x="1107.45" y="180.932">ReporteLibro</text><line style="stroke:#181818;stroke-width:0.5;" x1="1063.5" x2="1209.5" y1="191.5" y2="191.5"/><rect fill="none" height="6" style="stroke:#C82930;stroke-width:1.0;" width="6" x="1070.5" y="203.534"/><text fill="#000000" font-family="sans-serif" font-size="14" lengthAdjust="spacing" textLength="78" x="1082.5" y="210.4659">isbn: String</text><rect fill="none" height="6" style="stroke:#C82930;stroke-width:1.0;" width="6" x="1070.5" y="222.6019"/><text fill="#000000" font-family="sans-serif" font-size="14" lengthAdjust="spacing" textLength="84" x="1082.5" y="229.5339">titulo: String</text><rect fill="none" height="6" style="stroke:#C82930;stroke-width:1.0;" width="6" x="1070.5" y="241.6698"/><text fill="#000000" font-family="sans-serif" font-size="14" lengthAdjust="spacing" textLength="122" x="1082.5" y="248.6018">vecesPrestado: int</text><line style="stroke:#181818;stroke-width:0.5;" x1="1063.5" x2="1209.5" y1="256.7038" y2="256.7038"/></g><!--link Biblioteca to Libro--><g id="link_Biblioteca_Libro"><path codeLine="97" d="M643.75,232.64 C478.62,260.83 249.73,329.39 137.5,496 C74.81,589.07 90.5849,715.4124 115.2549,807.9824 " fill="none" id="Biblioteca-to-Libro" style="stroke:#181818;stroke-width:1.0;"/><polygon fill="#181818" points="116.8,813.78,118.3475,804.0535,115.5124,808.9486,110.6173,806.1136,116.8,813.78" style="stroke:#181818;stroke-width:1.0;"/><text fill="#000000" font-family="sans-serif" font-size="13" lengthAdjust="spacing" textLength="52" x="138.5" y="620.897">contiene</text><text fill="#000000" font-family="sans-serif" font-size="13" lengthAdjust="spacing" textLength="7" x="629.123" y="230.0193">1</text><text fill="#000000" font-family="sans-serif" font-size="13" lengthAdjust="spacing" textLength="7" x="106.9031" y="802.368">*</text></g><!--link Biblioteca to Usuario--><g id="link_Biblioteca_Usuario"><path codeLine="98" d="M643.72,398.63 C620.55,429.15 599.73,461.99 584.5,496 C539.2,597.16 529.6334,718.64 529.5834,807.86 " fill="none" id="Biblioteca-to-Usuario" style="stroke:#181818;stroke-width:1.0;"/><polygon fill="#181818" points="529.58,813.86,533.58,804.86,529.58,808.86,525.58,804.86,529.58,813.86" style="stroke:#181818;stroke-width:1.0;"/><text fill="#000000" font-family="sans-serif" font-size="13" lengthAdjust="spacing" textLength="46" x="585.5" y="620.897">registra</text><text fill="#000000" font-family="sans-serif" font-size="13" lengthAdjust="spacing" textLength="7" x="629.0919" y="402.4933">1</text><text fill="#000000" font-family="sans-serif" font-size="13" lengthAdjust="spacing" textLength="7" x="521.9617" y="802.0846">*</text></g><!--link Biblioteca to Prestamo--><g id="link_Biblioteca_Prestamo"><path codeLine="99" d="M643.97,331.75 C593.64,366.39 540.81,406.03 495.5,447 C478.96,461.96 466.5798,474.3757 451.1298,491.4957 " fill="none" id="Biblioteca-to-Prestamo" style="stroke:#181818;stroke-width:1.0;"/><polygon fill="#181818" points="447.11,495.95,456.1093,491.9484,450.4599,492.2381,450.1702,486.5886,447.11,495.95" style="stroke:#181818;stroke-width:1.0;"/><text fill="#000000" font-family="sans-serif" font-size="13" lengthAdjust="spacing" textLength="44" x="496.5" y="461.897">maneja</text><text fill="#000000" font-family="sans-serif" font-size="13" lengthAdjust="spacing" textLength="7" x="628.7422" y="333.3491">1</text><text fill="#000000" font-family="sans-serif" font-size="13" lengthAdjust="spacing" textLength="7" x="446.1643" y="484.2781">*</text></g><!--link Biblioteca to BaseDatos--><g id="link_Biblioteca_BaseDatos"><path codeLine="100" d="M835.5,417.28 C835.5,458.93 835.5,494.38 835.5,528.45 " fill="none" id="Biblioteca-to-BaseDatos" style="stroke:#181818;stroke-width:1.0;"/><polygon fill="#181818" points="835.5,534.45,839.5,525.45,835.5,529.45,831.5,525.45,835.5,534.45" style="stroke:#181818;stroke-width:1.0;"/><text fill="#000000" font-family="sans-serif" font-size="13" lengthAdjust="spacing" textLength="21" x="836.5" y="461.897">usa</text><text fill="#000000" font-family="sans-serif" font-size="13" lengthAdjust="spacing" textLength="7" x="828.3742" y="438.8672">1</text><text fill="#000000" font-family="sans-serif" font-size="13" lengthAdjust="spacing" textLength="7" x="828.1664" y="522.826">1</text></g><!--link Biblioteca to InterfazUsuario--><g id="link_Biblioteca_InterfazUsuario"><path codeLine="101" d="M1027.01,405.22 C1072.36,450.75 1114.0653,492.6094 1151.2353,529.9194 " fill="none" id="Biblioteca-to-InterfazUsuario" style="stroke:#181818;stroke-width:1.0;"/><polygon fill="#181818" points="1155.47,534.17,1151.9518,524.971,1151.9411,530.6278,1146.2843,530.6172,1155.47,534.17" style="stroke:#181818;stroke-width:1.0;"/><text fill="#000000" font-family="sans-serif" font-size="13" lengthAdjust="spacing" textLength="21" x="1084.5" y="461.897">usa</text><text fill="#000000" font-family="sans-serif" font-size="13" lengthAdjust="spacing" textLength="7" x="1035.237" y="409.9187">1</text><text fill="#000000" font-family="sans-serif" font-size="13" lengthAdjust="spacing" textLength="7" x="1140.7696" y="522.7996">1</text></g><!--link InterfazUsuario to Biblioteca--><g id="link_InterfazUsuario_Biblioteca"><path codeLine="103" d="M1099.49,534.43 C1058.3,508.77 1019.47,482.7 1002.5,466 C987.31,451.05 976.4759,439.195 962.7259,421.915 " fill="none" id="InterfazUsuario-to-Biblioteca" style="stroke:#181818;stroke-width:1.0;"/><polygon fill="#181818" points="958.99,417.22,961.4638,426.7531,962.1032,421.1325,967.7238,421.7719,958.99,417.22" style="stroke:#181818;stroke-width:1.0;"/><text fill="#000000" font-family="sans-serif" font-size="13" lengthAdjust="spacing" textLength="59" x="1003.5" y="461.897">referencia</text><text fill="#000000" font-family="sans-serif" font-size="13" lengthAdjust="spacing" textLength="7" x="1079.193" y="522.8041">1</text><text fill="#000000" font-family="sans-serif" font-size="13" lengthAdjust="spacing" textLength="7" x="956.6771" y="439.4736">1</text></g><!--link Biblioteca to ServicioEmail--><g id="link_Biblioteca_ServicioEmail"><path codeLine="102" d="M1027.19,407.14 C1032.9,410.62 1038.68,413.91 1044.5,417 C1122.26,458.18 1348.88,468.62 1432.5,496 C1486.66,513.74 1539.125,537.0838 1586.195,560.2138 " fill="none" id="Biblioteca-to-ServicioEmail" style="stroke:#181818;stroke-width:1.0;"/><polygon fill="#181818" points="1591.58,562.86,1585.2666,555.3008,1587.0925,560.6549,1581.7384,562.4808,1591.58,562.86" style="stroke:#181818;stroke-width:1.0;"/><text fill="#000000" font-family="sans-serif" font-size="13" lengthAdjust="spacing" textLength="21" x="1265.5" y="461.897">usa</text><text fill="#000000" font-family="sans-serif" font-size="13" lengthAdjust="spacing" textLength="7" x="1034.8146" y="428.9998">1</text><text fill="#000000" font-family="sans-serif" font-size="13" lengthAdjust="spacing" textLength="7" x="1570.3178" y="551.1945">1</text></g><!--link Prestamo to Libro--><g id="link_Prestamo_Libro"><path codeLine="105" d="M276.56,735 C259.72,760.94 245.2275,783.2578 228.6375,808.8078 " fill="none" id="Prestamo-to-Libro" style="stroke:#181818;stroke-width:1.0;"/><polygon fill="#181818" points="225.37,813.84,233.6261,808.47,228.0929,809.6465,226.9164,804.1133,225.37,813.84" style="stroke:#181818;stroke-width:1.0;"/><text fill="#000000" font-family="sans-serif" font-size="13" lengthAdjust="spacing" textLength="55" x="255.5" y="779.897">involucra</text><text fill="#000000" font-family="sans-serif" font-size="13" lengthAdjust="spacing" textLength="7" x="264.6582" y="756.7283">1</text><text fill="#000000" font-family="sans-serif" font-size="13" lengthAdjust="spacing" textLength="7" x="223.3175" y="802.0631">1</text></g><!--link Prestamo to Usuario--><g id="link_Prestamo_Usuario"><path codeLine="106" d="M423.48,735 C438.8,760.94 451.8988,783.1238 466.9888,808.6738 " fill="none" id="Prestamo-to-Usuario" style="stroke:#181818;stroke-width:1.0;"/><polygon fill="#181818" points="470.04,813.84,468.9073,804.0565,467.4973,809.5348,462.019,808.1248,470.04,813.84" style="stroke:#181818;stroke-width:1.0;"/><text fill="#000000" font-family="sans-serif" font-size="13" lengthAdjust="spacing" textLength="55" x="450.5" y="779.897">involucra</text><text fill="#000000" font-family="sans-serif" font-size="13" lengthAdjust="spacing" textLength="7" x="420.5311" y="756.7283">1</text><text fill="#000000" font-family="sans-serif" font-size="13" lengthAdjust="spacing" textLength="7" x="458.0492" y="802.0631">1</text></g><!--SRC=[ZLRDRjim3BxdATGSDcTj1kng30MQfGCAj4EnhBlBCfEgiAr2adtei0VQS-p5HkelSk9qBOh89ZzH_Fb8MJJS6BQILIEL1S7PhnbZIzaDq5ckfRgLbLQcPBVIsC_kvP80lUb96nKF_jMfdZKOorjbheILGuBS1x73LDp0cbjIhkAZFzU2tlANajs4fs2Pb0Rq88LKrosNJSas-IlgyVzy7qUne7U-qx3ZslbTDFHBtk2oADcWP4sOgZSYGEwLljcilXNIL1qUOBNiTekmWw1e34FHN0UlYf26aWN1aTaW9yDr8UkIOOIB12USJrTmCJ_uWidw8ThtswBj6WRL332nAGFje0DqzJiyAst1r_6EcurgC6kMryeKU_GoeOMiL15hMB9OjaKyWS22Dw9lkBxh6ykdmRNggmPShLqYeigJ0lCnMPE8mdqVySylxvYow3jhU_58ozy_Lg7tPsTdiz-pcN04TWO2TxDqqBkLjczKBk6zLJeNrD8ygmwv0oMhb6g0Tu5GEx0tQA_8moVX3sVqI7n5biTIQTR9EcdsziyDs4mtuKIiJmepy244wkb4ZvrgAmrvI12Q90bQgbLinhMhpcKMP4s-UMlq_iqPF8hFzTfO6bhCKw5LdLMn-2CkMWTmb1jva4ABfVUnvRp8vatUESijY4T-dyY7GmIIU4qTqkDqw9A2_8Ze4Uyks54R1vyzH_C9WCBO- -CsHiNNt1zIXuEJRkzKhYNyJ-Y4h5NEZvIOD21TPivtU6Jzdv4MC6-OKccY9Rydkpd2kR0zR-GBrzU6HiYhNWZGRpQiAai3o5b5XwJW9gBsdCb7MSQSWwl24wXADq6PtMw11WSxYccmOm6UJ-cvWyxm9oXQlqwCsm2yrXed0D3lQL2Oijejhy5Sl8XpwrGMZYR4w5RqZ85ka5ol9D2bBcjUZ6P3Tgm7Vb7TLkgM4qzJyKPRBfYVgRU-xaTsEcNb5aiOXiB1tiaPaVpFetlhF1z0GA1BxUzAilSURJKk2Z2px0Dd_cdEbijBDlymPo42WIvXUk0KB5t3iLrE0VVJgEKTF4tZS5tjltzwSn9rGDDNiPlnnn4X3_jYv436U0rRq3I0-6oMfd0E3bd2Zq8QNnZz92hxLecuVm00]--></g></svg>