<?xml version="1.0" encoding="us-ascii" standalone="no"?><svg xmlns="http://www.w3.org/2000/svg" xmlns:xlink="http://www.w3.org/1999/xlink" contentStyleType="text/css" height="450px" preserveAspectRatio="none" style="width:597px;height:450px;background:#FFFFFF;" version="1.1" viewBox="0 0 597 450" width="597px" zoomAndPan="magnify"><defs/><g><!--class X--><g id="elem_X"><rect codeLine="11" fill="#F1F1F1" height="55.1016" id="X" rx="2.5" ry="2.5" style="stroke:#181818;stroke-width:3.0;" width="81" x="265.5" y="183"/><text fill="#000000" font-family="courier" font-size="25" lengthAdjust="spacing" textLength="15" x="298.5" y="211.2056">X</text><line style="stroke:#181818;stroke-width:3.0;" x1="266.5" x2="345.5" y1="222.1016" y2="222.1016"/><line style="stroke:#181818;stroke-width:3.0;" x1="266.5" x2="345.5" y1="230.1016" y2="230.1016"/></g><!--class Base--><g id="elem_Base"><rect codeLine="12" fill="#F1F1F1" height="55.1016" id="Base" rx="2.5" ry="2.5" style="stroke:#DC143C;stroke-width:3.0;" width="141" x="59.5" y="7"/><text fill="#000000" font-family="courier" font-size="25" lengthAdjust="spacing" textLength="135" x="62.5" y="35.2056">Base&#160;de&#160;X</text><line style="stroke:#DC143C;stroke-width:3.0;" x1="60.5" x2="199.5" y1="46.1016" y2="46.1016"/><line style="stroke:#DC143C;stroke-width:3.0;" x1="60.5" x2="199.5" y1="54.1016" y2="54.1016"/></g><!--class Todo--><g id="elem_Todo"><rect codeLine="13" fill="#F1F1F1" height="55.1016" id="Todo" rx="2.5" ry="2.5" style="stroke:#008000;stroke-width:3.0;" width="141" x="235.5" y="7"/><text fill="#000000" font-family="courier" font-size="25" lengthAdjust="spacing" textLength="135" x="238.5" y="35.2056">Todo&#160;de&#160;X</text><line style="stroke:#008000;stroke-width:3.0;" x1="236.5" x2="375.5" y1="46.1016" y2="46.1016"/><line style="stroke:#008000;stroke-width:3.0;" x1="236.5" x2="375.5" y1="54.1016" y2="54.1016"/></g><!--class UsadoPor--><g id="elem_UsadoPor"><rect codeLine="14" fill="#F1F1F1" height="55.1016" id="UsadoPor" rx="2.5" ry="2.5" style="stroke:#008000;stroke-width:3.0;" width="81" x="411.5" y="7"/><text fill="#000000" font-family="courier" font-size="25" lengthAdjust="spacing" textLength="75" x="414.5" y="35.2056">Usa&#160;X</text><line style="stroke:#008000;stroke-width:3.0;" x1="412.5" x2="491.5" y1="46.1016" y2="46.1016"/><line style="stroke:#008000;stroke-width:3.0;" x1="412.5" x2="491.5" y1="54.1016" y2="54.1016"/></g><!--class AsociadoDe--><g id="elem_AsociadoDe"><rect codeLine="15" fill="#F1F1F1" height="55.1016" id="AsociadoDe" rx="2.5" ry="2.5" style="stroke:#008000;stroke-width:3.0;" width="186" x="44" y="183"/><text fill="#000000" font-family="courier" font-size="25" lengthAdjust="spacing" textLength="180" x="47" y="211.2056">Asociado&#160;a&#160;X</text><line style="stroke:#008000;stroke-width:3.0;" x1="45" x2="229" y1="222.1016" y2="222.1016"/><line style="stroke:#008000;stroke-width:3.0;" x1="45" x2="229" y1="230.1016" y2="230.1016"/></g><!--class AsociadoA--><g id="elem_AsociadoA"><rect codeLine="16" fill="#F1F1F1" height="55.1016" id="AsociadoA" rx="2.5" ry="2.5" style="stroke:#DC143C;stroke-width:3.0;" width="201" x="381.5" y="183"/><text fill="#000000" font-family="courier" font-size="25" lengthAdjust="spacing" textLength="195" x="384.5" y="211.2056">Asociada&#160;de&#160;X</text><line style="stroke:#DC143C;stroke-width:3.0;" x1="382.5" x2="581.5" y1="222.1016" y2="222.1016"/><line style="stroke:#DC143C;stroke-width:3.0;" x1="382.5" x2="581.5" y1="230.1016" y2="230.1016"/></g><!--class Descendiente--><g id="elem_Descendiente"><rect codeLine="17" fill="#F1F1F1" height="84.2031" id="Descendiente" rx="2.5" ry="2.5" style="stroke:#008000;stroke-width:3.0;" width="186" x="7" y="359"/><text fill="#000000" font-family="courier" font-size="25" lengthAdjust="spacing" textLength="180" x="10" y="387.2056">Descendiente</text><text fill="#000000" font-family="courier" font-size="25" lengthAdjust="spacing" textLength="60" x="70" y="416.3071">de&#160;X</text><line style="stroke:#008000;stroke-width:3.0;" x1="8" x2="192" y1="427.2031" y2="427.2031"/><line style="stroke:#008000;stroke-width:3.0;" x1="8" x2="192" y1="435.2031" y2="435.2031"/></g><!--class Parte--><g id="elem_Parte"><rect codeLine="18" fill="#F1F1F1" height="55.1016" id="Parte" rx="2.5" ry="2.5" style="stroke:#DC143C;stroke-width:3.0;" width="156" x="228" y="373.5"/><text fill="#000000" font-family="courier" font-size="25" lengthAdjust="spacing" textLength="150" x="231" y="401.7056">Parte&#160;de&#160;X</text><line style="stroke:#DC143C;stroke-width:3.0;" x1="229" x2="383" y1="412.6016" y2="412.6016"/><line style="stroke:#DC143C;stroke-width:3.0;" x1="229" x2="383" y1="420.6016" y2="420.6016"/></g><!--class UsadoA--><g id="elem_UsadoA"><rect codeLine="19" fill="#F1F1F1" height="55.1016" id="UsadoA" rx="2.5" ry="2.5" style="stroke:#DC143C;stroke-width:3.0;" width="171" x="419.5" y="373.5"/><text fill="#000000" font-family="courier" font-size="25" lengthAdjust="spacing" textLength="165" x="422.5" y="401.7056">Usada&#160;por&#160;X</text><line style="stroke:#DC143C;stroke-width:3.0;" x1="420.5" x2="589.5" y1="412.6016" y2="412.6016"/><line style="stroke:#DC143C;stroke-width:3.0;" x1="420.5" x2="589.5" y1="420.6016" y2="420.6016"/></g><!--reverse link X to Descendiente--><g id="link_X_Descendiente"><path codeLine="21" d="M263.6406,250.2615 C229.2606,281.7215 184.94,322.28 144.83,358.98 " fill="none" id="X-backto-Descendiente" style="stroke:#008000;stroke-width:2.0;"/><polygon fill="none" points="276.92,238.11,259.5902,245.835,267.6911,254.6879,276.92,238.11" style="stroke:#008000;stroke-width:2.0;"/></g><!--link X to Parte--><g id="link_X_Parte"><path codeLine="22" d="M306,250.11 C306,285.93 306,331.31 306,367.22 " fill="none" id="X-Parte" style="stroke:#DC143C;stroke-width:2.0;"/><polygon fill="#DC143C" points="306,238.11,302,244.11,306,250.11,310,244.11,306,238.11" style="stroke:#DC143C;stroke-width:2.0;"/><polygon fill="#DC143C" points="306,373.22,310,364.22,306,368.22,302,364.22,306,373.22" style="stroke:#DC143C;stroke-width:2.0;"/></g><!--link X to UsadoA--><g id="link_X_UsadoA"><path codeLine="23" d="M334.09,238.11 C371.91,273.93 434.464,333.1838 472.374,369.0938 " fill="none" id="X-to-UsadoA" style="stroke:#DC143C;stroke-width:2.0;"/><polygon fill="#DC143C" points="476.73,373.22,472.9468,364.1267,473.1,369.7815,467.4452,369.9347,476.73,373.22" style="stroke:#DC143C;stroke-width:2.0;"/></g><!--link X to AsociadoA--><g id="link_X_AsociadoA"><path codeLine="24" d="M346.56,210.5 C358.2,210.5 363.84,210.5 375.48,210.5 " fill="none" id="X-to-AsociadoA" style="stroke:#DC143C;stroke-width:2.0;"/><polygon fill="#DC143C" points="381.48,210.5,372.48,206.5,376.48,210.5,372.48,214.5,381.48,210.5" style="stroke:#DC143C;stroke-width:2.0;"/></g><!--link UsadoPor to X--><g id="link_UsadoPor_X"><path codeLine="25" d="M429.51,62.31 C401.99,95.1 359.5566,145.6736 332.1366,178.3536 " fill="none" id="UsadoPor-to-X" style="stroke:#008000;stroke-width:2.0;"/><polygon fill="#008000" points="328.28,182.95,337.1291,178.6265,331.4938,179.1197,331.0006,173.4844,328.28,182.95" style="stroke:#008000;stroke-width:2.0;"/></g><!--link AsociadoDe to X--><g id="link_AsociadoDe_X"><path codeLine="26" d="M230.08,210.5 C241.85,210.5 247.61,210.5 259.37,210.5 " fill="none" id="AsociadoDe-to-X" style="stroke:#008000;stroke-width:2.0;"/><polygon fill="#008000" points="265.37,210.5,256.37,206.5,260.37,210.5,256.37,214.5,265.37,210.5" style="stroke:#008000;stroke-width:2.0;"/></g><!--reverse link Base to X--><g id="link_Base_X"><path codeLine="27" d="M169.911,74.9644 C203.081,107.7544 246.09,150.27 279.14,182.95 " fill="none" id="Base-backto-X" style="stroke:#DC143C;stroke-width:2.0;"/><polygon fill="none" points="157.11,62.31,165.6929,79.2314,174.1292,70.6974,157.11,62.31" style="stroke:#DC143C;stroke-width:2.0;"/></g><!--link Todo to X--><g id="link_Todo_X"><path codeLine="28" d="M306,74.31 C306,107.1 306,144.27 306,176.95 " fill="none" id="Todo-X" style="stroke:#008000;stroke-width:2.0;"/><polygon fill="#008000" points="306,62.31,302,68.31,306,74.31,310,68.31,306,62.31" style="stroke:#008000;stroke-width:2.0;"/><polygon fill="#008000" points="306,182.95,310,173.95,306,177.95,302,173.95,306,182.95" style="stroke:#008000;stroke-width:2.0;"/></g><!--SRC=[VP8_JyCm4CLtVueJR4Y918K5KAMs4IEgH94yi1ZxHAocTdGE0_- -EuuJfocooH3vNdvvxyvshHM2r2GRP7M_TXqIskwZHSRSNfjMa3Y0R8HpyCN0FsjB2cbNQxatwDL5K1-iwPxq9yBLpLG_YeCtj- -aaOB8VXWRhCu0EFYtSC2Zj1OEmRV0WnogyqORlAqsbzUBJSHsLjaZ5ge1UoD44wbd9qR2hvJTMafHAsUbzfyXmb6ey1zS7ECZlqgsMg6JQ9H6q-6BcNwQowcOhQ1kjXD3cVBlHnFG-jbce_vfXN6u_ovKKMHZx_fb-MeRvTcB7bqcCa-eKfNbCXLtGXNKMwMtQ0PE1pIuyanliwCPZ7DWk3dZp3mN6kxDE6pEw1S0]--></g></svg>