<?xml version="1.0" encoding="us-ascii" standalone="no"?><svg xmlns="http://www.w3.org/2000/svg" xmlns:xlink="http://www.w3.org/1999/xlink" contentStyleType="text/css" height="507px" preserveAspectRatio="none" style="width:747px;height:507px;background:#FFFFFF;" version="1.1" viewBox="0 0 747 507" width="747px" zoomAndPan="magnify"><defs/><g><!--class EstrategiaAlmacenamiento--><g id="elem_EstrategiaAlmacenamiento"><rect codeLine="2" fill="#F1F1F1" height="67.0679" id="EstrategiaAlmacenamiento" rx="2.5" ry="2.5" style="stroke:#181818;stroke-width:0.5;" width="333" x="199" y="268"/><ellipse cx="276.75" cy="284" fill="#B4A7E5" rx="11" ry="11" style="stroke:#181818;stroke-width:1.0;"/><path d="M272.6719,279.7656 L272.6719,277.6094 L280.0625,277.6094 L280.0625,279.7656 L277.5938,279.7656 L277.5938,287.8438 L280.0625,287.8438 L280.0625,290 L272.6719,290 L272.6719,287.8438 L275.1406,287.8438 L275.1406,279.7656 L272.6719,279.7656 Z " fill="#000000"/><text fill="#000000" font-family="sans-serif" font-size="14" font-style="italic" lengthAdjust="spacing" textLength="169" x="297.25" y="289.432">EstrategiaAlmacenamiento</text><line style="stroke:#181818;stroke-width:0.5;" x1="200" x2="531" y1="300" y2="300"/><line style="stroke:#181818;stroke-width:0.5;" x1="200" x2="531" y1="308" y2="308"/><ellipse cx="210" cy="323.034" fill="#84BE84" rx="3" ry="3" style="stroke:#038048;stroke-width:1.0;"/><text fill="#000000" font-family="sans-serif" font-size="14" lengthAdjust="spacing" textLength="307" x="219" y="326.9659">guardar(titulo: String, contenido: String): void</text></g><!--class AlmacenamientoLocal--><g id="elem_AlmacenamientoLocal"><rect codeLine="6" fill="#F1F1F1" height="67.0679" id="AlmacenamientoLocal" rx="2.5" ry="2.5" style="stroke:#181818;stroke-width:0.5;" width="333" x="7" y="414"/><ellipse cx="95.75" cy="430" fill="#ADD1B2" rx="11" ry="11" style="stroke:#181818;stroke-width:1.0;"/><path d="M98.7188,435.6406 Q98.1406,435.9375 97.5,436.0781 Q96.8594,436.2344 96.1563,436.2344 Q93.6563,436.2344 92.3281,434.5938 Q91.0156,432.9375 91.0156,429.8125 Q91.0156,426.6875 92.3281,425.0313 Q93.6563,423.375 96.1563,423.375 Q96.8594,423.375 97.5,423.5313 Q98.1563,423.6875 98.7188,423.9844 L98.7188,426.7031 Q98.0938,426.125 97.5,425.8594 Q96.9063,425.5781 96.2813,425.5781 Q94.9375,425.5781 94.25,426.6563 Q93.5625,427.7188 93.5625,429.8125 Q93.5625,431.9063 94.25,432.9844 Q94.9375,434.0469 96.2813,434.0469 Q96.9063,434.0469 97.5,433.7813 Q98.0938,433.5 98.7188,432.9219 L98.7188,435.6406 Z " fill="#000000"/><text fill="#000000" font-family="sans-serif" font-size="14" lengthAdjust="spacing" textLength="147" x="116.25" y="435.432">AlmacenamientoLocal</text><line style="stroke:#181818;stroke-width:0.5;" x1="8" x2="339" y1="446" y2="446"/><line style="stroke:#181818;stroke-width:0.5;" x1="8" x2="339" y1="454" y2="454"/><ellipse cx="18" cy="469.034" fill="#84BE84" rx="3" ry="3" style="stroke:#038048;stroke-width:1.0;"/><text fill="#000000" font-family="sans-serif" font-size="14" lengthAdjust="spacing" textLength="307" x="27" y="472.9659">guardar(titulo: String, contenido: String): void</text></g><!--class AlmacenamientoNube--><g id="elem_AlmacenamientoNube"><rect codeLine="10" fill="#F1F1F1" height="105.2038" id="AlmacenamientoNube" rx="2.5" ry="2.5" style="stroke:#181818;stroke-width:0.5;" width="365" x="375" y="395"/><ellipse cx="478.25" cy="411" fill="#ADD1B2" rx="11" ry="11" style="stroke:#181818;stroke-width:1.0;"/><path d="M481.2188,416.6406 Q480.6406,416.9375 480,417.0781 Q479.3594,417.2344 478.6563,417.2344 Q476.1563,417.2344 474.8281,415.5938 Q473.5156,413.9375 473.5156,410.8125 Q473.5156,407.6875 474.8281,406.0313 Q476.1563,404.375 478.6563,404.375 Q479.3594,404.375 480,404.5313 Q480.6563,404.6875 481.2188,404.9844 L481.2188,407.7031 Q480.5938,407.125 480,406.8594 Q479.4063,406.5781 478.7813,406.5781 Q477.4375,406.5781 476.75,407.6563 Q476.0625,408.7188 476.0625,410.8125 Q476.0625,412.9063 476.75,413.9844 Q477.4375,415.0469 478.7813,415.0469 Q479.4063,415.0469 480,414.7813 Q480.5938,414.5 481.2188,413.9219 L481.2188,416.6406 Z " fill="#000000"/><text fill="#000000" font-family="sans-serif" font-size="14" lengthAdjust="spacing" textLength="150" x="498.75" y="416.432">AlmacenamientoNube</text><line style="stroke:#181818;stroke-width:0.5;" x1="376" x2="739" y1="427" y2="427"/><rect fill="none" height="6" style="stroke:#C82930;stroke-width:1.0;" width="6" x="383" y="439.034"/><text fill="#000000" font-family="sans-serif" font-size="14" lengthAdjust="spacing" textLength="181" x="395" y="445.9659">urlAlmacenamiento: String</text><line style="stroke:#181818;stroke-width:0.5;" x1="376" x2="739" y1="454.0679" y2="454.0679"/><ellipse cx="386" cy="469.1019" fill="#84BE84" rx="3" ry="3" style="stroke:#038048;stroke-width:1.0;"/><text fill="#000000" font-family="sans-serif" font-size="14" lengthAdjust="spacing" textLength="339" x="395" y="473.0339">AlmacenamientoNube(urlAlmacenamiento: String)</text><ellipse cx="386" cy="488.1698" fill="#84BE84" rx="3" ry="3" style="stroke:#038048;stroke-width:1.0;"/><text fill="#000000" font-family="sans-serif" font-size="14" lengthAdjust="spacing" textLength="307" x="395" y="492.1018">guardar(titulo: String, contenido: String): void</text></g><!--class Documento--><g id="elem_Documento"><rect codeLine="16" fill="#F1F1F1" height="200.5433" id="Documento" rx="2.5" ry="2.5" style="stroke:#181818;stroke-width:0.5;" width="584" x="73.5" y="7"/><ellipse cx="322.75" cy="23" fill="#ADD1B2" rx="11" ry="11" style="stroke:#181818;stroke-width:1.0;"/><path d="M325.7188,28.6406 Q325.1406,28.9375 324.5,29.0781 Q323.8594,29.2344 323.1563,29.2344 Q320.6563,29.2344 319.3281,27.5938 Q318.0156,25.9375 318.0156,22.8125 Q318.0156,19.6875 319.3281,18.0313 Q320.6563,16.375 323.1563,16.375 Q323.8594,16.375 324.5,16.5313 Q325.1563,16.6875 325.7188,16.9844 L325.7188,19.7031 Q325.0938,19.125 324.5,18.8594 Q323.9063,18.5781 323.2813,18.5781 Q321.9375,18.5781 321.25,19.6563 Q320.5625,20.7188 320.5625,22.8125 Q320.5625,24.9063 321.25,25.9844 Q321.9375,27.0469 323.2813,27.0469 Q323.9063,27.0469 324.5,26.7813 Q325.0938,26.5 325.7188,25.9219 L325.7188,28.6406 Z " fill="#000000"/><text fill="#000000" font-family="sans-serif" font-size="14" lengthAdjust="spacing" textLength="77" x="343.25" y="28.432">Documento</text><line style="stroke:#181818;stroke-width:0.5;" x1="74.5" x2="656.5" y1="39" y2="39"/><rect fill="none" height="6" style="stroke:#C82930;stroke-width:1.0;" width="6" x="81.5" y="51.034"/><text fill="#000000" font-family="sans-serif" font-size="14" lengthAdjust="spacing" textLength="84" x="93.5" y="57.9659">titulo: String</text><rect fill="none" height="6" style="stroke:#C82930;stroke-width:1.0;" width="6" x="81.5" y="70.1019"/><text fill="#000000" font-family="sans-serif" font-size="14" lengthAdjust="spacing" textLength="116" x="93.5" y="77.0339">contenido: String</text><rect fill="none" height="6" style="stroke:#C82930;stroke-width:1.0;" width="6" x="81.5" y="89.1698"/><text fill="#000000" font-family="sans-serif" font-size="14" lengthAdjust="spacing" textLength="257" x="93.5" y="96.1018">estrategia: EstrategiaAlmacenamiento</text><line style="stroke:#181818;stroke-width:0.5;" x1="74.5" x2="656.5" y1="104.2038" y2="104.2038"/><ellipse cx="84.5" cy="119.2377" fill="#84BE84" rx="3" ry="3" style="stroke:#038048;stroke-width:1.0;"/><text fill="#000000" font-family="sans-serif" font-size="14" lengthAdjust="spacing" textLength="558" x="93.5" y="123.1697">Documento(titulo: String, contenido: String, estrategia: EstrategiaAlmacenamiento)</text><ellipse cx="84.5" cy="138.3056" fill="#84BE84" rx="3" ry="3" style="stroke:#038048;stroke-width:1.0;"/><text fill="#000000" font-family="sans-serif" font-size="14" lengthAdjust="spacing" textLength="99" x="93.5" y="142.2376">guardar(): void</text><ellipse cx="84.5" cy="157.3735" fill="#84BE84" rx="3" ry="3" style="stroke:#038048;stroke-width:1.0;"/><text fill="#000000" font-family="sans-serif" font-size="14" lengthAdjust="spacing" textLength="465" x="93.5" y="161.3055">cambiarEstrategia(nuevaEstrategia: EstrategiaAlmacenamiento): void</text><ellipse cx="84.5" cy="176.4415" fill="#84BE84" rx="3" ry="3" style="stroke:#038048;stroke-width:1.0;"/><text fill="#000000" font-family="sans-serif" font-size="14" lengthAdjust="spacing" textLength="117" x="93.5" y="180.3734">getTitulo(): String</text><ellipse cx="84.5" cy="195.5094" fill="#84BE84" rx="3" ry="3" style="stroke:#038048;stroke-width:1.0;"/><text fill="#000000" font-family="sans-serif" font-size="14" lengthAdjust="spacing" textLength="148" x="93.5" y="199.4414">getContenido(): String</text></g><!--reverse link EstrategiaAlmacenamiento to AlmacenamientoLocal--><g id="link_EstrategiaAlmacenamiento_AlmacenamientoLocal"><path codeLine="27" d="M307.5289,345.9785 C276.1089,369.5385 248.28,390.42 216.9,413.95 " fill="none" id="EstrategiaAlmacenamiento-backto-AlmacenamientoLocal" style="stroke:#181818;stroke-width:1.0;stroke-dasharray:7.0,7.0;"/><polygon fill="none" points="321.93,335.18,303.9294,341.1782,311.1284,350.7789,321.93,335.18" style="stroke:#181818;stroke-width:1.0;"/></g><!--reverse link EstrategiaAlmacenamiento to AlmacenamientoNube--><g id="link_EstrategiaAlmacenamiento_AlmacenamientoNube"><path codeLine="28" d="M423.4693,345.981 C446.9193,363.571 462,374.88 488.5,394.75 " fill="none" id="EstrategiaAlmacenamiento-backto-AlmacenamientoNube" style="stroke:#181818;stroke-width:1.0;stroke-dasharray:7.0,7.0;"/><polygon fill="none" points="409.07,335.18,419.8689,350.7807,427.0696,341.1812,409.07,335.18" style="stroke:#181818;stroke-width:1.0;"/></g><!--link Documento to EstrategiaAlmacenamiento--><g id="link_Documento_EstrategiaAlmacenamiento"><path codeLine="29" d="M365.5,220.16 C365.5,241.7 365.5,245.01 365.5,261.71 " fill="none" id="Documento-EstrategiaAlmacenamiento" style="stroke:#181818;stroke-width:1.0;"/><polygon fill="none" points="365.5,208.16,361.5,214.16,365.5,220.16,369.5,214.16,365.5,208.16" style="stroke:#181818;stroke-width:1.0;"/><polygon fill="#181818" points="365.5,267.71,369.5,258.71,365.5,262.71,361.5,258.71,365.5,267.71" style="stroke:#181818;stroke-width:1.0;"/></g><!--SRC=[hP9D3e8m48NtFSKi8G878CR4A3lZHYymb4gQb3OfBHlrxa8JVXeaOdJx9lFDctd3fM7wXfH1LXkDXfKSzw9g1OaLPz8ek1E03PGMTO4wCDnOeLAu6Crb6G5LBK7oOf3251h52_8aX0giQ_1n9qLH_9bvjZbpo1Yi5dwjHxY1yxPWiI7yqU9HKLiD1up19pXf1d4g6u985qDnteO9dzr5gwZ-olr6dKQnoZdgiJ6GbZMOhO5EC2KpLsUrWqzoQVL3RtbIQc-v-9NRHvAyUwslEheF86DGAevtooT_0G00]--></g></svg>