<?xml version="1.0" encoding="us-ascii" standalone="no"?><svg xmlns="http://www.w3.org/2000/svg" xmlns:xlink="http://www.w3.org/1999/xlink" contentStyleType="text/css" height="269px" preserveAspectRatio="none" style="width:82px;height:269px;background:#FFFFFF;" version="1.1" viewBox="0 0 82 269" width="82px" zoomAndPan="magnify"><defs/><g><!--class P--><g id="elem_P"><rect codeLine="1" fill="#F1F1F1" height="48" id="P" rx="2.5" ry="2.5" style="stroke:#181818;stroke-width:0.5;" width="40" x="7" y="7"/><ellipse cx="22" cy="23" fill="#ADD1B2" rx="11" ry="11" style="stroke:#181818;stroke-width:1.0;"/><path d="M21.4688,29.9219 Q19.7188,29.9219 18.5781,29.1875 Q17.4531,28.4375 16.8906,27.0938 Q16.3438,25.7344 16.3438,23.9375 Q16.3438,21.9063 17,20.4531 Q17.6563,19 18.9375,18.2188 Q20.2188,17.4375 22.0938,17.4375 Q22.9844,17.4375 23.6563,17.625 Q24.3281,17.7969 25.0156,18.1406 L24.2031,20.1563 Q23.5781,19.8438 23.0313,19.7188 Q22.5,19.5938 22.0156,19.5938 Q20.8438,19.5938 20.1406,20.125 Q19.4375,20.6563 19.1406,21.6094 Q18.8438,22.5625 18.8438,23.8281 Q18.8438,25.8438 19.5625,26.8125 Q20.2813,27.7656 21.875,27.7656 Q22.4688,27.7656 23.0938,27.6094 Q23.7188,27.4531 24.5469,27.0781 L24.5469,29.2969 Q23.8125,29.6094 23.0156,29.7656 Q22.2344,29.9219 21.4688,29.9219 Z " fill="#000000"/><text fill="#000000" font-family="sans-serif" font-size="14" lengthAdjust="spacing" textLength="8" x="36" y="28.432">P</text><line style="stroke:#181818;stroke-width:0.5;" x1="8" x2="46" y1="39" y2="39"/><line style="stroke:#181818;stroke-width:0.5;" x1="8" x2="46" y1="47" y2="47"/></g><!--class T--><g id="elem_T"><rect codeLine="4" fill="#F1F1F1" height="48" id="T" rx="2.5" ry="2.5" style="stroke:#181818;stroke-width:0.5;" width="40" x="7" y="214.07"/><ellipse cx="22" cy="230.07" fill="#ADD1B2" rx="11" ry="11" style="stroke:#181818;stroke-width:1.0;"/><path d="M21.4688,236.9919 Q19.7188,236.9919 18.5781,236.2575 Q17.4531,235.5075 16.8906,234.1638 Q16.3438,232.8044 16.3438,231.0075 Q16.3438,228.9763 17,227.5231 Q17.6563,226.07 18.9375,225.2888 Q20.2188,224.5075 22.0938,224.5075 Q22.9844,224.5075 23.6563,224.695 Q24.3281,224.8669 25.0156,225.2106 L24.2031,227.2263 Q23.5781,226.9138 23.0313,226.7888 Q22.5,226.6638 22.0156,226.6638 Q20.8438,226.6638 20.1406,227.195 Q19.4375,227.7263 19.1406,228.6794 Q18.8438,229.6325 18.8438,230.8981 Q18.8438,232.9138 19.5625,233.8825 Q20.2813,234.8356 21.875,234.8356 Q22.4688,234.8356 23.0938,234.6794 Q23.7188,234.5231 24.5469,234.1481 L24.5469,236.3669 Q23.8125,236.6794 23.0156,236.8356 Q22.2344,236.9919 21.4688,236.9919 Z " fill="#000000"/><text fill="#000000" font-family="sans-serif" font-size="14" lengthAdjust="spacing" textLength="8" x="36" y="235.502">T</text><line style="stroke:#181818;stroke-width:0.5;" x1="8" x2="46" y1="246.07" y2="246.07"/><line style="stroke:#181818;stroke-width:0.5;" x1="8" x2="46" y1="254.07" y2="254.07"/></g><g id="elem_oT"><rect fill="#F1F1F1" height="39.0679" style="stroke:#181818;stroke-width:0.5;" width="30" x="46" y="115"/><text fill="#000000" font-family="sans-serif" font-size="14" lengthAdjust="spacing" textLength="16" x="53" y="131.9659">oT</text><line style="stroke:#181818;stroke-width:0.5;" x1="47" x2="75" y1="138.0679" y2="138.0679"/></g><!--link P to T--><g id="link_P_T"><path codeLine="2" d="M27,67.13 C27,106.51 27,168.17 27,207.71 " fill="none" id="P-T" style="stroke:#181818;stroke-width:1.0;"/><polygon fill="#181818" points="27,55.13,23,61.13,27,67.13,31,61.13,27,55.13" style="stroke:#181818;stroke-width:1.0;"/><polygon fill="#181818" points="27,213.71,31,204.71,27,208.71,23,204.71,27,213.71" style="stroke:#181818;stroke-width:1.0;"/></g><!--link P to oT--><g id="link_P_oT"><path codeLine="7" d="M34.8,55.3 C40.84,73.33 47.1845,92.2906 52.8045,109.0706 " fill="none" id="P-to-oT" style="stroke:#181818;stroke-width:1.0;stroke-dasharray:7.0,7.0;"/><polygon fill="#181818" points="54.71,114.76,55.6447,104.9556,53.1221,110.0188,48.0588,107.4963,54.71,114.76" style="stroke:#181818;stroke-width:1.0;"/></g><!--link oT to T--><g id="link_oT_T"><path codeLine="8" d="M54.76,154.16 C49.13,170.99 42.7149,190.1404 36.6549,208.2404 " fill="none" id="oT-to-T" style="stroke:#181818;stroke-width:1.0;stroke-dasharray:7.0,7.0;"/><polygon fill="#181818" points="34.75,213.93,41.4004,206.6656,36.3374,209.1887,33.8143,204.1257,34.75,213.93" style="stroke:#181818;stroke-width:1.0;"/></g><!--SRC=[Iyv9B2vM2E0AKD3IJSalpzErKmZXuae6YuPmvITbfIQNAEG3XG8Kz43oUdOWNdw8WXwG5G80]--></g></svg>