<?xml version="1.0" encoding="us-ascii" standalone="no"?><svg xmlns="http://www.w3.org/2000/svg" xmlns:xlink="http://www.w3.org/1999/xlink" contentStyleType="text/css" height="170px" preserveAspectRatio="none" style="width:465px;height:170px;background:#FFFFFF;" version="1.1" viewBox="0 0 465 170" width="465px" zoomAndPan="magnify"><defs/><g><!--class Todo--><g id="elem_Todo"><rect codeLine="1" fill="#F1F1F1" height="48" id="Todo" rx="2.5" ry="2.5" style="stroke:#181818;stroke-width:0.5;" width="65" x="8" y="7"/><ellipse cx="23" cy="23" fill="#ADD1B2" rx="11" ry="11" style="stroke:#181818;stroke-width:1.0;"/><path d="M25.9688,28.6406 Q25.3906,28.9375 24.75,29.0781 Q24.1094,29.2344 23.4063,29.2344 Q20.9063,29.2344 19.5781,27.5938 Q18.2656,25.9375 18.2656,22.8125 Q18.2656,19.6875 19.5781,18.0313 Q20.9063,16.375 23.4063,16.375 Q24.1094,16.375 24.75,16.5313 Q25.4063,16.6875 25.9688,16.9844 L25.9688,19.7031 Q25.3438,19.125 24.75,18.8594 Q24.1563,18.5781 23.5313,18.5781 Q22.1875,18.5781 21.5,19.6563 Q20.8125,20.7188 20.8125,22.8125 Q20.8125,24.9063 21.5,25.9844 Q22.1875,27.0469 23.5313,27.0469 Q24.1563,27.0469 24.75,26.7813 Q25.3438,26.5 25.9688,25.9219 L25.9688,28.6406 Z " fill="#000000"/><text fill="#000000" font-family="sans-serif" font-size="14" lengthAdjust="spacing" textLength="33" x="37" y="28.432">Todo</text><line style="stroke:#181818;stroke-width:0.5;" x1="9" x2="72" y1="39" y2="39"/><line style="stroke:#181818;stroke-width:0.5;" x1="9" x2="72" y1="47" y2="47"/></g><!--class Parte--><g id="elem_Parte"><rect fill="#F1F1F1" height="48" id="Parte" rx="2.5" ry="2.5" style="stroke:#181818;stroke-width:0.5;" width="67" x="7" y="115"/><ellipse cx="22" cy="131" fill="#ADD1B2" rx="11" ry="11" style="stroke:#181818;stroke-width:1.0;"/><path d="M24.9688,136.6406 Q24.3906,136.9375 23.75,137.0781 Q23.1094,137.2344 22.4063,137.2344 Q19.9063,137.2344 18.5781,135.5938 Q17.2656,133.9375 17.2656,130.8125 Q17.2656,127.6875 18.5781,126.0313 Q19.9063,124.375 22.4063,124.375 Q23.1094,124.375 23.75,124.5313 Q24.4063,124.6875 24.9688,124.9844 L24.9688,127.7031 Q24.3438,127.125 23.75,126.8594 Q23.1563,126.5781 22.5313,126.5781 Q21.1875,126.5781 20.5,127.6563 Q19.8125,128.7188 19.8125,130.8125 Q19.8125,132.9063 20.5,133.9844 Q21.1875,135.0469 22.5313,135.0469 Q23.1563,135.0469 23.75,134.7813 Q24.3438,134.5 24.9688,133.9219 L24.9688,136.6406 Z " fill="#000000"/><text fill="#000000" font-family="sans-serif" font-size="14" lengthAdjust="spacing" textLength="35" x="36" y="136.432">Parte</text><line style="stroke:#181818;stroke-width:0.5;" x1="8" x2="73" y1="147" y2="147"/><line style="stroke:#181818;stroke-width:0.5;" x1="8" x2="73" y1="155" y2="155"/></g><!--class Agregaci?n--><g id="elem_Agregaci&#243;n"><rect fill="#F1F1F1" height="48" id="Agregaci&#243;n" rx="2.5" ry="2.5" style="stroke:#181818;stroke-width:0.5;" width="109" x="108" y="7"/><ellipse cx="123" cy="23" fill="#ADD1B2" rx="11" ry="11" style="stroke:#181818;stroke-width:1.0;"/><path d="M125.9688,28.6406 Q125.3906,28.9375 124.75,29.0781 Q124.1094,29.2344 123.4063,29.2344 Q120.9063,29.2344 119.5781,27.5938 Q118.2656,25.9375 118.2656,22.8125 Q118.2656,19.6875 119.5781,18.0313 Q120.9063,16.375 123.4063,16.375 Q124.1094,16.375 124.75,16.5313 Q125.4063,16.6875 125.9688,16.9844 L125.9688,19.7031 Q125.3438,19.125 124.75,18.8594 Q124.1563,18.5781 123.5313,18.5781 Q122.1875,18.5781 121.5,19.6563 Q120.8125,20.7188 120.8125,22.8125 Q120.8125,24.9063 121.5,25.9844 Q122.1875,27.0469 123.5313,27.0469 Q124.1563,27.0469 124.75,26.7813 Q125.3438,26.5 125.9688,25.9219 L125.9688,28.6406 Z " fill="#000000"/><text fill="#000000" font-family="sans-serif" font-size="14" lengthAdjust="spacing" textLength="77" x="137" y="28.432">Agregaci&#243;n</text><line style="stroke:#181818;stroke-width:0.5;" x1="109" x2="216" y1="39" y2="39"/><line style="stroke:#181818;stroke-width:0.5;" x1="109" x2="216" y1="47" y2="47"/></g><!--class Agregado--><g id="elem_Agregado"><rect fill="#F1F1F1" height="48" id="Agregado" rx="2.5" ry="2.5" style="stroke:#181818;stroke-width:0.5;" width="98" x="113.5" y="115"/><ellipse cx="128.5" cy="131" fill="#ADD1B2" rx="11" ry="11" style="stroke:#181818;stroke-width:1.0;"/><path d="M131.4688,136.6406 Q130.8906,136.9375 130.25,137.0781 Q129.6094,137.2344 128.9063,137.2344 Q126.4063,137.2344 125.0781,135.5938 Q123.7656,133.9375 123.7656,130.8125 Q123.7656,127.6875 125.0781,126.0313 Q126.4063,124.375 128.9063,124.375 Q129.6094,124.375 130.25,124.5313 Q130.9063,124.6875 131.4688,124.9844 L131.4688,127.7031 Q130.8438,127.125 130.25,126.8594 Q129.6563,126.5781 129.0313,126.5781 Q127.6875,126.5781 127,127.6563 Q126.3125,128.7188 126.3125,130.8125 Q126.3125,132.9063 127,133.9844 Q127.6875,135.0469 129.0313,135.0469 Q129.6563,135.0469 130.25,134.7813 Q130.8438,134.5 131.4688,133.9219 L131.4688,136.6406 Z " fill="#000000"/><text fill="#000000" font-family="sans-serif" font-size="14" lengthAdjust="spacing" textLength="66" x="142.5" y="136.432">Agregado</text><line style="stroke:#181818;stroke-width:0.5;" x1="114.5" x2="210.5" y1="147" y2="147"/><line style="stroke:#181818;stroke-width:0.5;" x1="114.5" x2="210.5" y1="155" y2="155"/></g><!--class Asociaci?n--><g id="elem_Asociaci&#243;n"><rect fill="#F1F1F1" height="48" id="Asociaci&#243;n" rx="2.5" ry="2.5" style="stroke:#181818;stroke-width:0.5;" width="103" x="252" y="7"/><ellipse cx="267" cy="23" fill="#ADD1B2" rx="11" ry="11" style="stroke:#181818;stroke-width:1.0;"/><path d="M269.9688,28.6406 Q269.3906,28.9375 268.75,29.0781 Q268.1094,29.2344 267.4063,29.2344 Q264.9063,29.2344 263.5781,27.5938 Q262.2656,25.9375 262.2656,22.8125 Q262.2656,19.6875 263.5781,18.0313 Q264.9063,16.375 267.4063,16.375 Q268.1094,16.375 268.75,16.5313 Q269.4063,16.6875 269.9688,16.9844 L269.9688,19.7031 Q269.3438,19.125 268.75,18.8594 Q268.1563,18.5781 267.5313,18.5781 Q266.1875,18.5781 265.5,19.6563 Q264.8125,20.7188 264.8125,22.8125 Q264.8125,24.9063 265.5,25.9844 Q266.1875,27.0469 267.5313,27.0469 Q268.1563,27.0469 268.75,26.7813 Q269.3438,26.5 269.9688,25.9219 L269.9688,28.6406 Z " fill="#000000"/><text fill="#000000" font-family="sans-serif" font-size="14" lengthAdjust="spacing" textLength="71" x="281" y="28.432">Asociaci&#243;n</text><line style="stroke:#181818;stroke-width:0.5;" x1="253" x2="354" y1="39" y2="39"/><line style="stroke:#181818;stroke-width:0.5;" x1="253" x2="354" y1="47" y2="47"/></g><!--class Asociado--><g id="elem_Asociado"><rect fill="#F1F1F1" height="48" id="Asociado" rx="2.5" ry="2.5" style="stroke:#181818;stroke-width:0.5;" width="92" x="257.5" y="115"/><ellipse cx="272.5" cy="131" fill="#ADD1B2" rx="11" ry="11" style="stroke:#181818;stroke-width:1.0;"/><path d="M275.4688,136.6406 Q274.8906,136.9375 274.25,137.0781 Q273.6094,137.2344 272.9063,137.2344 Q270.4063,137.2344 269.0781,135.5938 Q267.7656,133.9375 267.7656,130.8125 Q267.7656,127.6875 269.0781,126.0313 Q270.4063,124.375 272.9063,124.375 Q273.6094,124.375 274.25,124.5313 Q274.9063,124.6875 275.4688,124.9844 L275.4688,127.7031 Q274.8438,127.125 274.25,126.8594 Q273.6563,126.5781 273.0313,126.5781 Q271.6875,126.5781 271,127.6563 Q270.3125,128.7188 270.3125,130.8125 Q270.3125,132.9063 271,133.9844 Q271.6875,135.0469 273.0313,135.0469 Q273.6563,135.0469 274.25,134.7813 Q274.8438,134.5 275.4688,133.9219 L275.4688,136.6406 Z " fill="#000000"/><text fill="#000000" font-family="sans-serif" font-size="14" lengthAdjust="spacing" textLength="60" x="286.5" y="136.432">Asociado</text><line style="stroke:#181818;stroke-width:0.5;" x1="258.5" x2="348.5" y1="147" y2="147"/><line style="stroke:#181818;stroke-width:0.5;" x1="258.5" x2="348.5" y1="155" y2="155"/></g><!--class Uso--><g id="elem_Uso"><rect fill="#F1F1F1" height="48" id="Uso" rx="2.5" ry="2.5" style="stroke:#181818;stroke-width:0.5;" width="57" x="393" y="7"/><ellipse cx="408" cy="23" fill="#ADD1B2" rx="11" ry="11" style="stroke:#181818;stroke-width:1.0;"/><path d="M410.9688,28.6406 Q410.3906,28.9375 409.75,29.0781 Q409.1094,29.2344 408.4063,29.2344 Q405.9063,29.2344 404.5781,27.5938 Q403.2656,25.9375 403.2656,22.8125 Q403.2656,19.6875 404.5781,18.0313 Q405.9063,16.375 408.4063,16.375 Q409.1094,16.375 409.75,16.5313 Q410.4063,16.6875 410.9688,16.9844 L410.9688,19.7031 Q410.3438,19.125 409.75,18.8594 Q409.1563,18.5781 408.5313,18.5781 Q407.1875,18.5781 406.5,19.6563 Q405.8125,20.7188 405.8125,22.8125 Q405.8125,24.9063 406.5,25.9844 Q407.1875,27.0469 408.5313,27.0469 Q409.1563,27.0469 409.75,26.7813 Q410.3438,26.5 410.9688,25.9219 L410.9688,28.6406 Z " fill="#000000"/><text fill="#000000" font-family="sans-serif" font-size="14" lengthAdjust="spacing" textLength="25" x="422" y="28.432">Uso</text><line style="stroke:#181818;stroke-width:0.5;" x1="394" x2="449" y1="39" y2="39"/><line style="stroke:#181818;stroke-width:0.5;" x1="394" x2="449" y1="47" y2="47"/></g><!--class Usado--><g id="elem_Usado"><rect fill="#F1F1F1" height="48" id="Usado" rx="2.5" ry="2.5" style="stroke:#181818;stroke-width:0.5;" width="74" x="384.5" y="115"/><ellipse cx="399.5" cy="131" fill="#ADD1B2" rx="11" ry="11" style="stroke:#181818;stroke-width:1.0;"/><path d="M402.4688,136.6406 Q401.8906,136.9375 401.25,137.0781 Q400.6094,137.2344 399.9063,137.2344 Q397.4063,137.2344 396.0781,135.5938 Q394.7656,133.9375 394.7656,130.8125 Q394.7656,127.6875 396.0781,126.0313 Q397.4063,124.375 399.9063,124.375 Q400.6094,124.375 401.25,124.5313 Q401.9063,124.6875 402.4688,124.9844 L402.4688,127.7031 Q401.8438,127.125 401.25,126.8594 Q400.6563,126.5781 400.0313,126.5781 Q398.6875,126.5781 398,127.6563 Q397.3125,128.7188 397.3125,130.8125 Q397.3125,132.9063 398,133.9844 Q398.6875,135.0469 400.0313,135.0469 Q400.6563,135.0469 401.25,134.7813 Q401.8438,134.5 402.4688,133.9219 L402.4688,136.6406 Z " fill="#000000"/><text fill="#000000" font-family="sans-serif" font-size="14" lengthAdjust="spacing" textLength="42" x="413.5" y="136.432">Usado</text><line style="stroke:#181818;stroke-width:0.5;" x1="385.5" x2="457.5" y1="147" y2="147"/><line style="stroke:#181818;stroke-width:0.5;" x1="385.5" x2="457.5" y1="155" y2="155"/></g><!--reverse link Todo to Parte--><g id="link_Todo_Parte"><path codeLine="3" d="M40.5,67 C40.5,84.66 40.5,96.94 40.5,114.68 " fill="none" id="Todo-backto-Parte" style="stroke:#181818;stroke-width:1.0;"/><polygon fill="#181818" points="40.5,55,36.5,61,40.5,67,44.5,61,40.5,55" style="stroke:#181818;stroke-width:1.0;"/></g><!--reverse link Agregaci?n to Agregado--><g id="link_Agregaci&#243;n_Agregado"><path codeLine="4" d="M162.5,67 C162.5,84.66 162.5,96.94 162.5,114.68 " fill="none" id="Agregaci&#243;n-backto-Agregado" style="stroke:#181818;stroke-width:1.0;"/><polygon fill="none" points="162.5,55,158.5,61,162.5,67,166.5,61,162.5,55" style="stroke:#181818;stroke-width:1.0;"/></g><!--link Asociaci?n to Asociado--><g id="link_Asociaci&#243;n_Asociado"><path codeLine="5" d="M303.5,55 C303.5,72.66 303.5,90.94 303.5,108.68 " fill="none" id="Asociaci&#243;n-to-Asociado" style="stroke:#181818;stroke-width:1.0;"/><polygon fill="#181818" points="303.5,114.68,307.5,105.68,303.5,109.68,299.5,105.68,303.5,114.68" style="stroke:#181818;stroke-width:1.0;"/></g><!--link Uso to Usado--><g id="link_Uso_Usado"><path codeLine="6" d="M421.5,55 C421.5,72.66 421.5,90.94 421.5,108.68 " fill="none" id="Uso-to-Usado" style="stroke:#181818;stroke-width:1.0;stroke-dasharray:7.0,7.0;"/><polygon fill="#181818" points="421.5,114.68,425.5,105.68,421.5,109.68,417.5,105.68,421.5,114.68" style="stroke:#181818;stroke-width:1.0;"/></g><!--SRC=[Iyv9B2vM2CbFoUVY0f4AMhefkWe1YKKbgLoEwKMfwOd9cOStvodaWuGX0a2bZiNvoPbG6Q24dG9402WJMfole9UYPwSGMWpa0W00]--></g></svg>