<?xml version="1.0" encoding="us-ascii" standalone="no"?><svg xmlns="http://www.w3.org/2000/svg" xmlns:xlink="http://www.w3.org/1999/xlink" contentStyleType="text/css" height="1021px" preserveAspectRatio="none" style="width:886px;height:1021px;background:#FFFFFF;" version="1.1" viewBox="0 0 886 1021" width="886px" zoomAndPan="magnify"><defs/><g><!--class Persona--><g id="elem_Persona"><rect codeLine="2" fill="#F1F1F1" height="105.2038" id="Persona" rx="2.5" ry="2.5" style="stroke:#181818;stroke-width:0.5;" width="312" x="7" y="210.27"/><ellipse cx="133.25" cy="226.27" fill="#A9DCDF" rx="11" ry="11" style="stroke:#181818;stroke-width:1.0;"/><path d="M128.4219,232.02 L131.7656,219.8325 L134.9063,219.8325 L138.2813,232.02 L135.8125,232.02 L135.0781,229.0044 L131.5625,229.0044 L130.8125,232.02 L128.4219,232.02 Z M132.8281,223.9731 L132.0781,226.9731 L134.5938,226.9731 L133.875,223.9731 Q133.7344,223.395 133.6094,222.8481 Q133.4844,222.2856 133.3438,221.7075 Q133.2344,222.2856 133.0938,222.8481 Q132.9531,223.395 132.8281,223.9731 Z " fill="#000000"/><text fill="#000000" font-family="sans-serif" font-size="14" font-style="italic" lengthAdjust="spacing" textLength="51" x="153.75" y="231.702">Persona</text><line style="stroke:#181818;stroke-width:0.5;" x1="8" x2="318" y1="242.27" y2="242.27"/><line style="stroke:#181818;stroke-width:0.5;" x1="8" x2="318" y1="250.27" y2="250.27"/><ellipse cx="18" cy="265.304" fill="#84BE84" rx="3" ry="3" style="stroke:#038048;stroke-width:1.0;"/><text fill="#000000" font-family="sans-serif" font-size="14" lengthAdjust="spacing" textLength="95" x="27" y="269.2359">saludar(): void</text><ellipse cx="18" cy="284.3719" fill="#84BE84" rx="3" ry="3" style="stroke:#038048;stroke-width:1.0;"/><text fill="#000000" font-family="sans-serif" font-size="14" lengthAdjust="spacing" textLength="119" x="27" y="288.3039">despedirse(): void</text><ellipse cx="18" cy="303.4398" fill="#84BE84" rx="3" ry="3" style="stroke:#038048;stroke-width:1.0;"/><text fill="#000000" font-family="sans-serif" font-size="14" lengthAdjust="spacing" textLength="286" x="27" y="307.3718">aceptar(recepcionista: Recepcionista): void</text></g><!--class Hombre--><g id="elem_Hombre"><rect codeLine="8" fill="#F1F1F1" height="86.1358" id="Hombre" rx="2.5" ry="2.5" style="stroke:#181818;stroke-width:0.5;" width="363" x="226.5" y="394.47"/><ellipse cx="376.75" cy="410.47" fill="#ADD1B2" rx="11" ry="11" style="stroke:#181818;stroke-width:1.0;"/><path d="M376.2188,417.3919 Q374.4688,417.3919 373.3281,416.6575 Q372.2031,415.9075 371.6406,414.5637 Q371.0938,413.2044 371.0938,411.4075 Q371.0938,409.3762 371.75,407.9231 Q372.4063,406.47 373.6875,405.6887 Q374.9688,404.9075 376.8438,404.9075 Q377.7344,404.9075 378.4063,405.095 Q379.0781,405.2669 379.7656,405.6106 L378.9531,407.6262 Q378.3281,407.3137 377.7813,407.1887 Q377.25,407.0637 376.7656,407.0637 Q375.5938,407.0637 374.8906,407.595 Q374.1875,408.1262 373.8906,409.0794 Q373.5938,410.0325 373.5938,411.2981 Q373.5938,413.3137 374.3125,414.2825 Q375.0313,415.2356 376.625,415.2356 Q377.2188,415.2356 377.8438,415.0794 Q378.4688,414.9231 379.2969,414.5481 L379.2969,416.7669 Q378.5625,417.0794 377.7656,417.2356 Q376.9844,417.3919 376.2188,417.3919 Z " fill="#000000"/><text fill="#000000" font-family="sans-serif" font-size="14" lengthAdjust="spacing" textLength="54" x="397.25" y="415.902">Hombre</text><line style="stroke:#181818;stroke-width:0.5;" x1="227.5" x2="588.5" y1="426.47" y2="426.47"/><line style="stroke:#181818;stroke-width:0.5;" x1="227.5" x2="588.5" y1="434.47" y2="434.47"/><ellipse cx="237.5" cy="449.504" fill="#84BE84" rx="3" ry="3" style="stroke:#038048;stroke-width:1.0;"/><text fill="#000000" font-family="sans-serif" font-size="14" lengthAdjust="spacing" textLength="337" x="246.5" y="453.4359">recibirPalmada(recepcionista: Recepcionista): void</text><ellipse cx="237.5" cy="468.5719" fill="#84BE84" rx="3" ry="3" style="stroke:#038048;stroke-width:1.0;"/><text fill="#000000" font-family="sans-serif" font-size="14" lengthAdjust="spacing" textLength="286" x="246.5" y="472.5039">aceptar(recepcionista: Recepcionista): void</text></g><!--class Mujer--><g id="elem_Mujer"><rect codeLine="13" fill="#F1F1F1" height="105.2038" id="Mujer" rx="2.5" ry="2.5" style="stroke:#181818;stroke-width:0.5;" width="312" x="194" y="781.95"/><ellipse cx="325.75" cy="797.95" fill="#ADD1B2" rx="11" ry="11" style="stroke:#181818;stroke-width:1.0;"/><path d="M325.2188,804.8719 Q323.4688,804.8719 322.3281,804.1375 Q321.2031,803.3875 320.6406,802.0437 Q320.0938,800.6844 320.0938,798.8875 Q320.0938,796.8562 320.75,795.4031 Q321.4063,793.95 322.6875,793.1687 Q323.9688,792.3875 325.8438,792.3875 Q326.7344,792.3875 327.4063,792.575 Q328.0781,792.7469 328.7656,793.0906 L327.9531,795.1062 Q327.3281,794.7937 326.7813,794.6687 Q326.25,794.5437 325.7656,794.5437 Q324.5938,794.5437 323.8906,795.075 Q323.1875,795.6062 322.8906,796.5594 Q322.5938,797.5125 322.5938,798.7781 Q322.5938,800.7937 323.3125,801.7625 Q324.0313,802.7156 325.625,802.7156 Q326.2188,802.7156 326.8438,802.5594 Q327.4688,802.4031 328.2969,802.0281 L328.2969,804.2469 Q327.5625,804.5594 326.7656,804.7156 Q325.9844,804.8719 325.2188,804.8719 Z " fill="#000000"/><text fill="#000000" font-family="sans-serif" font-size="14" lengthAdjust="spacing" textLength="40" x="346.25" y="803.382">Mujer</text><line style="stroke:#181818;stroke-width:0.5;" x1="195" x2="505" y1="813.95" y2="813.95"/><line style="stroke:#181818;stroke-width:0.5;" x1="195" x2="505" y1="821.95" y2="821.95"/><ellipse cx="205" cy="836.984" fill="#84BE84" rx="3" ry="3" style="stroke:#038048;stroke-width:1.0;"/><text fill="#000000" font-family="sans-serif" font-size="14" lengthAdjust="spacing" textLength="152" x="214" y="840.9159">escucharHalago(): void</text><ellipse cx="205" cy="856.0519" fill="#84BE84" rx="3" ry="3" style="stroke:#038048;stroke-width:1.0;"/><text fill="#000000" font-family="sans-serif" font-size="14" lengthAdjust="spacing" textLength="148" x="214" y="859.9839">escucharPiropo(): void</text><ellipse cx="205" cy="875.1198" fill="#84BE84" rx="3" ry="3" style="stroke:#038048;stroke-width:1.0;"/><text fill="#000000" font-family="sans-serif" font-size="14" lengthAdjust="spacing" textLength="286" x="214" y="879.0518">aceptar(recepcionista: Recepcionista): void</text></g><!--class Recepcionista--><g id="elem_Recepcionista"><rect codeLine="19" fill="#F1F1F1" height="143.3396" id="Recepcionista" rx="2.5" ry="2.5" style="stroke:#181818;stroke-width:0.5;" width="231" x="234.5" y="559.61"/><ellipse cx="299.25" cy="575.61" fill="#ADD1B2" rx="11" ry="11" style="stroke:#181818;stroke-width:1.0;"/><path d="M298.7188,582.5319 Q296.9688,582.5319 295.8281,581.7975 Q294.7031,581.0475 294.1406,579.7038 Q293.5938,578.3444 293.5938,576.5475 Q293.5938,574.5163 294.25,573.0631 Q294.9063,571.61 296.1875,570.8288 Q297.4688,570.0475 299.3438,570.0475 Q300.2344,570.0475 300.9063,570.235 Q301.5781,570.4069 302.2656,570.7506 L301.4531,572.7663 Q300.8281,572.4538 300.2813,572.3288 Q299.75,572.2038 299.2656,572.2038 Q298.0938,572.2038 297.3906,572.735 Q296.6875,573.2663 296.3906,574.2194 Q296.0938,575.1725 296.0938,576.4381 Q296.0938,578.4538 296.8125,579.4225 Q297.5313,580.3756 299.125,580.3756 Q299.7188,580.3756 300.3438,580.2194 Q300.9688,580.0631 301.7969,579.6881 L301.7969,581.9069 Q301.0625,582.2194 300.2656,582.3756 Q299.4844,582.5319 298.7188,582.5319 Z " fill="#000000"/><text fill="#000000" font-family="sans-serif" font-size="14" lengthAdjust="spacing" textLength="93" x="319.75" y="581.042">Recepcionista</text><line style="stroke:#181818;stroke-width:0.5;" x1="235.5" x2="464.5" y1="591.61" y2="591.61"/><line style="stroke:#181818;stroke-width:0.5;" x1="235.5" x2="464.5" y1="599.61" y2="599.61"/><ellipse cx="245.5" cy="614.644" fill="#84BE84" rx="3" ry="3" style="stroke:#038048;stroke-width:1.0;"/><text fill="#000000" font-family="sans-serif" font-size="14" lengthAdjust="spacing" textLength="205" x="254.5" y="618.5759">recibir(persona: Persona): void</text><ellipse cx="245.5" cy="633.7119" fill="#84BE84" rx="3" ry="3" style="stroke:#038048;stroke-width:1.0;"/><text fill="#000000" font-family="sans-serif" font-size="14" lengthAdjust="spacing" textLength="169" x="254.5" y="637.6439">visitar(Mujer mujer): void</text><ellipse cx="245.5" cy="652.7798" fill="#84BE84" rx="3" ry="3" style="stroke:#038048;stroke-width:1.0;"/><text fill="#000000" font-family="sans-serif" font-size="14" lengthAdjust="spacing" textLength="196" x="254.5" y="656.7118">visitar(Hombre hombre): void</text><ellipse cx="245.5" cy="671.8477" fill="#84BE84" rx="3" ry="3" style="stroke:#038048;stroke-width:1.0;"/><text fill="#000000" font-family="sans-serif" font-size="14" lengthAdjust="spacing" textLength="204" x="254.5" y="675.7797">recibirPropina(euros: int): void</text><ellipse cx="245.5" cy="690.9156" fill="#84BE84" rx="3" ry="3" style="stroke:#038048;stroke-width:1.0;"/><text fill="#000000" font-family="sans-serif" font-size="14" lengthAdjust="spacing" textLength="149" x="254.5" y="694.8476">agradecerVisita(): void</text></g><!--class Restaurante--><g id="elem_Restaurante"><rect codeLine="27" fill="#F1F1F1" height="124.2717" id="Restaurante" rx="2.5" ry="2.5" style="stroke:#181818;stroke-width:0.5;" width="303" x="414.5" y="7"/><ellipse cx="520.75" cy="23" fill="#ADD1B2" rx="11" ry="11" style="stroke:#181818;stroke-width:1.0;"/><path d="M520.2188,29.9219 Q518.4688,29.9219 517.3281,29.1875 Q516.2031,28.4375 515.6406,27.0938 Q515.0938,25.7344 515.0938,23.9375 Q515.0938,21.9063 515.75,20.4531 Q516.4063,19 517.6875,18.2188 Q518.9688,17.4375 520.8438,17.4375 Q521.7344,17.4375 522.4063,17.625 Q523.0781,17.7969 523.7656,18.1406 L522.9531,20.1563 Q522.3281,19.8438 521.7813,19.7188 Q521.25,19.5938 520.7656,19.5938 Q519.5938,19.5938 518.8906,20.125 Q518.1875,20.6563 517.8906,21.6094 Q517.5938,22.5625 517.5938,23.8281 Q517.5938,25.8438 518.3125,26.8125 Q519.0313,27.7656 520.625,27.7656 Q521.2188,27.7656 521.8438,27.6094 Q522.4688,27.4531 523.2969,27.0781 L523.2969,29.2969 Q522.5625,29.6094 521.7656,29.7656 Q520.9844,29.9219 520.2188,29.9219 Z " fill="#000000"/><text fill="#000000" font-family="sans-serif" font-size="14" lengthAdjust="spacing" textLength="82" x="541.25" y="28.432">Restaurante</text><line style="stroke:#181818;stroke-width:0.5;" x1="415.5" x2="716.5" y1="39" y2="39"/><rect fill="none" height="6" style="stroke:#C82930;stroke-width:1.0;" width="6" x="422.5" y="51.034"/><text fill="#000000" font-family="sans-serif" font-size="14" lengthAdjust="spacing" textLength="191" x="434.5" y="57.9659">recepcionista: Recepcionista</text><line style="stroke:#181818;stroke-width:0.5;" x1="415.5" x2="716.5" y1="66.0679" y2="66.0679"/><rect fill="#F24D5C" height="6" style="stroke:#C82930;stroke-width:1.0;" width="6" x="422.5" y="78.1019"/><text fill="#000000" font-family="sans-serif" font-size="14" lengthAdjust="spacing" textLength="160" x="434.5" y="85.0339">simularEscenario(): void</text><rect fill="#F24D5C" height="6" style="stroke:#C82930;stroke-width:1.0;" width="6" x="422.5" y="97.1698"/><text fill="#000000" font-family="sans-serif" font-size="14" lengthAdjust="spacing" textLength="277" x="434.5" y="104.1018">simularEscenario(persona: Persona): void</text><ellipse cx="425.5" cy="119.2377" fill="#84BE84" rx="3" ry="3" style="stroke:#038048;stroke-width:1.0;"/><text fill="#000000" font-family="sans-serif" font-size="14" lengthAdjust="spacing" textLength="167" x="434.5" y="123.1697">main(args: String[]): void</text></g><!--reverse link Persona to Hombre--><g id="link_Persona_Hombre"><path codeLine="34" d="M251.5544,326.2776 C287.0644,351.2976 314.36,370.55 347.88,394.17 " fill="none" id="Persona-backto-Hombre" style="stroke:#181818;stroke-width:1.0;"/><polygon fill="none" points="236.84,315.91,248.0985,331.1824,255.0102,321.3728,236.84,315.91" style="stroke:#181818;stroke-width:1.0;"/></g><!--reverse link Persona to Mujer--><g id="link_Persona_Mujer"><path codeLine="35" d="M90.7537,328.979 C81.9837,338.269 85.94,335.19 79,345.47 C45.03,395.8 40.54,422.77 59,480.61 C99.44,607.33 211.54,719.32 284.21,781.61 " fill="none" id="Persona-backto-Mujer" style="stroke:#181818;stroke-width:1.0;"/><polygon fill="none" points="103.11,315.89,86.3907,324.8602,95.1167,333.0977,103.11,315.89" style="stroke:#181818;stroke-width:1.0;"/></g><!--link Restaurante to Recepcionista--><g id="link_Restaurante_Recepcionista"><path codeLine="37" d="M595.2136,142.881 C625.2036,226.211 660.89,366.46 607,480.61 C580.16,537.45 526.2627,571.7826 471.3027,594.5626 " fill="none" id="Restaurante-Recepcionista" style="stroke:#181818;stroke-width:1.0;"/><polygon fill="#181818" points="591.15,131.59,589.4181,138.59,595.2136,142.881,596.9455,135.881,591.15,131.59" style="stroke:#181818;stroke-width:1.0;"/><polygon fill="#181818" points="465.76,596.86,475.6057,597.1091,470.379,594.9455,472.5425,589.7188,465.76,596.86" style="stroke:#181818;stroke-width:1.0;"/><text fill="#000000" font-family="sans-serif" font-size="13" lengthAdjust="spacing" textLength="112" x="634.62" y="360.367">tiene una instancia</text></g><!--link Restaurante to Persona--><g id="link_Restaurante_Persona"><path codeLine="38" d="M402.8664,115.6859 C363.3164,129.1059 332.84,141.78 296,161.27 C270.66,174.67 249.7549,189.052 227.8549,206.192 " fill="none" id="Restaurante-Persona" style="stroke:#181818;stroke-width:1.0;"/><polygon fill="#181818" points="414.23,111.83,407.2629,109.9701,402.8664,115.6859,409.8335,117.5458,414.23,111.83" style="stroke:#181818;stroke-width:1.0;"/><polygon fill="#181818" points="223.13,209.89,232.6827,207.493,227.0674,206.8084,227.7521,201.1931,223.13,209.89" style="stroke:#181818;stroke-width:1.0;"/><text fill="#000000" font-family="sans-serif" font-size="13" lengthAdjust="spacing" textLength="125" x="297" y="176.167">usa como par&#225;metro</text></g><!--link Restaurante to Hombre--><g id="link_Restaurante_Hombre"><path codeLine="39" d="M539.55,131.46 C507.45,205.92 456.516,324.0305 428.636,388.6805 " fill="none" id="Restaurante-to-Hombre" style="stroke:#181818;stroke-width:1.0;stroke-dasharray:7.0,7.0;"/><polygon fill="#181818" points="426.26,394.19,433.4969,387.5097,428.24,389.5987,426.1509,384.3417,426.26,394.19" style="stroke:#181818;stroke-width:1.0;"/><text fill="#000000" font-family="sans-serif" font-size="13" lengthAdjust="spacing" textLength="97" x="506.28" y="268.267">instancia directa</text></g><!--link Restaurante to Mujer--><g id="link_Restaurante_Mujer"><path codeLine="40" d="M694.19,131.69 C739.77,163.1 780,206.5 780,261.87 C780,261.87 780,261.87 780,632.28 C780,757.15 635.3366,803.8498 512.3966,821.8698 " fill="none" id="Restaurante-to-Mujer" style="stroke:#181818;stroke-width:1.0;stroke-dasharray:7.0,7.0;"/><polygon fill="#181818" points="506.46,822.74,515.945,825.3925,511.4071,822.0149,514.7847,817.4771,506.46,822.74" style="stroke:#181818;stroke-width:1.0;"/><text fill="#000000" font-family="sans-serif" font-size="13" lengthAdjust="spacing" textLength="97" x="781" y="442.937">instancia directa</text></g><!--link Recepcionista to Persona--><g id="link_Recepcionista_Persona"><path codeLine="42" d="M234.12,597.3 C176.73,574.47 112.67,537.66 79,480.61 C47.83,427.78 79.682,366.0815 113.642,320.7615 " fill="none" id="Recepcionista-to-Persona" style="stroke:#181818;stroke-width:1.0;"/><polygon fill="#181818" points="117.24,315.96,108.642,320.7636,114.2417,319.9613,115.0441,325.5609,117.24,315.96" style="stroke:#181818;stroke-width:1.0;"/><text fill="#000000" font-family="sans-serif" font-size="13" lengthAdjust="spacing" textLength="128" x="80" y="442.937">usa m&#233;todo aceptar()</text></g><!--link Recepcionista to Hombre--><g id="link_Recepcionista_Hombre"><path codeLine="43" d="M397.7,559.18 C402.32,549.57 406.29,539.58 409,529.61 C413.22,514.04 414.182,502.4143 413.502,486.8543 " fill="none" id="Recepcionista-to-Hombre" style="stroke:#181818;stroke-width:1.0;"/><polygon fill="#181818" points="413.24,480.86,409.6368,490.0261,413.4583,485.8552,417.6291,489.6768,413.24,480.86" style="stroke:#181818;stroke-width:1.0;"/><text fill="#000000" font-family="sans-serif" font-size="13" lengthAdjust="spacing" textLength="129" x="413.24" y="525.507">llama visitar(Hombre)</text></g><!--link Hombre to Recepcionista--><g id="link_Hombre_Recepcionista"><path codeLine="46" d="M273.82,480.93 C262.56,489.15 252.6,498.94 245,510.61 C234.22,527.17 234.2597,538.8597 244.7997,554.2497 " fill="none" id="Hombre-to-Recepcionista" style="stroke:#181818;stroke-width:1.0;"/><polygon fill="#181818" points="248.19,559.2,246.4048,549.5143,245.3648,555.0747,239.8043,554.0347,248.19,559.2" style="stroke:#181818;stroke-width:1.0;"/><text fill="#000000" font-family="sans-serif" font-size="13" lengthAdjust="spacing" textLength="154" x="246" y="525.507">lo recibe como par&#225;metro</text></g><!--link Recepcionista to Mujer--><g id="link_Recepcionista_Mujer"><path codeLine="44" d="M283.75,703.25 C277.77,712.7 272.62,722.68 269,732.95 C262.85,750.39 265.4095,762.2937 276.6695,776.8537 " fill="none" id="Recepcionista-to-Mujer" style="stroke:#181818;stroke-width:1.0;"/><polygon fill="#181818" points="280.34,781.6,277.9984,772.0336,277.2812,777.6448,271.67,776.9276,280.34,781.6" style="stroke:#181818;stroke-width:1.0;"/><text fill="#000000" font-family="sans-serif" font-size="13" lengthAdjust="spacing" textLength="114" x="270" y="747.847">llama visitar(Mujer)</text></g><!--link Mujer to Recepcionista--><g id="link_Mujer_Recepcionista"><path codeLine="47" d="M378.97,781.68 C383.12,772.06 386.74,761.9 389,751.95 C392.62,735.96 392.3913,724.8496 387.9613,708.9596 " fill="none" id="Mujer-to-Recepcionista" style="stroke:#181818;stroke-width:1.0;"/><polygon fill="#181818" points="386.35,703.18,384.9139,712.9236,387.6928,707.9963,392.62,710.7752,386.35,703.18" style="stroke:#181818;stroke-width:1.0;"/><text fill="#000000" font-family="sans-serif" font-size="13" lengthAdjust="spacing" textLength="154" x="391.91" y="747.847">lo recibe como par&#225;metro</text></g><rect fill="#DDDDDD" height="96.2717" id="_legend" rx="7.5" ry="7.5" style="stroke:#000000;stroke-width:1.0;" width="684" x="12" y="905.1538"/><text fill="#000000" font-family="sans-serif" font-size="14" font-style="italic" font-weight="bold" lengthAdjust="spacing" textLength="43" x="17" y="925.1197">2Think</text><line style="stroke:#000000;stroke-width:1.0;" x1="12" x2="696" y1="934.2217" y2="934.2217"/><line style="stroke:#000000;stroke-width:1.0;" x1="12" x2="696" y1="936.2217" y2="936.2217"/><text fill="#000000" font-family="sans-serif" font-size="14" lengthAdjust="spacing" textLength="674" x="17" y="954.1876">- Persona: M&#233;todo aceptar() habilita el doble despacho: la l&#243;gica se delega a Recepcionista.visitar(...)</text><text fill="#000000" font-family="sans-serif" font-size="14" lengthAdjust="spacing" textLength="658" x="17" y="973.2555">- Recepcionista: Usa doble despacho para comportarse distinto seg&#250;n el tipo concreto de Persona</text><text fill="#000000" font-family="sans-serif" font-size="14" lengthAdjust="spacing" textLength="509" x="17" y="992.3234">- Restaurante: Crea instancias de Hombre y Mujer, y usa la interfaz Persona</text><!--SRC=[fLIvZjim4Etv5LFQIQG5KWgEco30DWiOcwC9KeoeMNaIYXH8Qe5S7vCoTRgq_h6C9DEHR66HmuKipVNUF3u9on0zwWZQO0Ym8n-SHVYi01u7D5s5VhKkuDvnrOSg2YrLx0DDewYfZLBeIMuqEyiXOW6tqyTK_bMf4UhQDQMd4KaQkMI_GzDWXNyqvrzXRxhtv4TK2hhJU_JNQB1squLIPiVUjUw_LvrbPnklsb7m8Ya_WRhdm3tKoBZfhmlPeupxuM-IJvBA0cnnHPrteG2sSRfCxR4IRlxDC6orG5m8Tnvj70ygUsZjFX-uwGpw5q6JHSzJwIvp3-pU8DiL-beeluoURVtstOHSSkdcIvOTVJIF3P8fDQN_ACksPmTHG6Io19sqiPM8rOndJPLqfT45T051kyP1Y_xmhQ7etQm-pxV9ryNlaI0l3Ec85wNZoIvLgZdJx895S_WUNUKW-N6zq75YOWms27F7B3KaFlFw8RfMwZXkIKVZOF0RNQWpZlox7cMe9bk1eRkeDkLsmzkdh_PiFsokUBkvAhVgcVnKbYGfuEPS3TXZoKRe0nceN6a8-ayNwhqJP0Hp-56pHWXzNE0GS4umJzldURuMgDkvyL_B4Sp7zWiCvcYTbxv-i9JA- -O4f3xyj3sJoAsJ6gizIRoYjC40SF960SyzJImP-igZ-X_7GteYDxqDJ5yMoT_XfzCiaMuKKFq2]--></g></svg>