<?xml version="1.0" encoding="us-ascii" standalone="no"?><svg xmlns="http://www.w3.org/2000/svg" xmlns:xlink="http://www.w3.org/1999/xlink" contentStyleType="text/css" height="781px" preserveAspectRatio="none" style="width:678px;height:781px;background:#FFFFFF;" version="1.1" viewBox="0 0 678 781" width="678px" zoomAndPan="magnify"><defs/><g><!--class Persona--><g id="elem_Persona"><rect codeLine="2" fill="#F1F1F1" height="86.1358" id="Persona" rx="2.5" ry="2.5" style="stroke:#181818;stroke-width:0.5;" width="145" x="155.25" y="394.48"/><ellipse cx="198.15" cy="410.48" fill="#A9DCDF" rx="11" ry="11" style="stroke:#181818;stroke-width:1.0;"/><path d="M193.3219,416.23 L196.6656,404.0425 L199.8063,404.0425 L203.1813,416.23 L200.7125,416.23 L199.9781,413.2144 L196.4625,413.2144 L195.7125,416.23 L193.3219,416.23 Z M197.7281,408.1831 L196.9781,411.1831 L199.4938,411.1831 L198.775,408.1831 Q198.6344,407.605 198.5094,407.0581 Q198.3844,406.4956 198.2438,405.9175 Q198.1344,406.4956 197.9938,407.0581 Q197.8531,407.605 197.7281,408.1831 Z " fill="#000000"/><text fill="#000000" font-family="sans-serif" font-size="14" font-style="italic" lengthAdjust="spacing" textLength="51" x="218.35" y="415.912">Persona</text><line style="stroke:#181818;stroke-width:0.5;" x1="156.25" x2="299.25" y1="426.48" y2="426.48"/><line style="stroke:#181818;stroke-width:0.5;" x1="156.25" x2="299.25" y1="434.48" y2="434.48"/><ellipse cx="166.25" cy="449.514" fill="#84BE84" rx="3" ry="3" style="stroke:#038048;stroke-width:1.0;"/><text fill="#000000" font-family="sans-serif" font-size="14" lengthAdjust="spacing" textLength="95" x="175.25" y="453.4459">saludar(): void</text><ellipse cx="166.25" cy="468.5819" fill="#84BE84" rx="3" ry="3" style="stroke:#038048;stroke-width:1.0;"/><text fill="#000000" font-family="sans-serif" font-size="14" lengthAdjust="spacing" textLength="119" x="175.25" y="472.5139">despedirse(): void</text></g><!--class Hombre--><g id="elem_Hombre"><rect codeLine="7" fill="#F1F1F1" height="67.0679" id="Hombre" rx="2.5" ry="2.5" style="stroke:#181818;stroke-width:0.5;" width="363" x="46.25" y="551.15"/><ellipse cx="196.5" cy="567.15" fill="#ADD1B2" rx="11" ry="11" style="stroke:#181818;stroke-width:1.0;"/><path d="M195.9688,574.0719 Q194.2188,574.0719 193.0781,573.3375 Q191.9531,572.5875 191.3906,571.2438 Q190.8438,569.8844 190.8438,568.0875 Q190.8438,566.0563 191.5,564.6031 Q192.1563,563.15 193.4375,562.3688 Q194.7188,561.5875 196.5938,561.5875 Q197.4844,561.5875 198.1563,561.775 Q198.8281,561.9469 199.5156,562.2906 L198.7031,564.3063 Q198.0781,563.9938 197.5313,563.8688 Q197,563.7438 196.5156,563.7438 Q195.3438,563.7438 194.6406,564.275 Q193.9375,564.8063 193.6406,565.7594 Q193.3438,566.7125 193.3438,567.9781 Q193.3438,569.9938 194.0625,570.9625 Q194.7813,571.9156 196.375,571.9156 Q196.9688,571.9156 197.5938,571.7594 Q198.2188,571.6031 199.0469,571.2281 L199.0469,573.4469 Q198.3125,573.7594 197.5156,573.9156 Q196.7344,574.0719 195.9688,574.0719 Z " fill="#000000"/><text fill="#000000" font-family="sans-serif" font-size="14" lengthAdjust="spacing" textLength="54" x="217" y="572.582">Hombre</text><line style="stroke:#181818;stroke-width:0.5;" x1="47.25" x2="408.25" y1="583.15" y2="583.15"/><line style="stroke:#181818;stroke-width:0.5;" x1="47.25" x2="408.25" y1="591.15" y2="591.15"/><ellipse cx="57.25" cy="606.184" fill="#84BE84" rx="3" ry="3" style="stroke:#038048;stroke-width:1.0;"/><text fill="#000000" font-family="sans-serif" font-size="14" lengthAdjust="spacing" textLength="337" x="66.25" y="610.1159">recibirPalmada(recepcionista: Recepcionista): void</text></g><!--class Mujer--><g id="elem_Mujer"><rect codeLine="11" fill="#F1F1F1" height="86.1358" id="Mujer" rx="2.5" ry="2.5" style="stroke:#181818;stroke-width:0.5;" width="178" x="444.75" y="541.61"/><ellipse cx="509.5" cy="557.61" fill="#ADD1B2" rx="11" ry="11" style="stroke:#181818;stroke-width:1.0;"/><path d="M508.9688,564.5319 Q507.2188,564.5319 506.0781,563.7975 Q504.9531,563.0475 504.3906,561.7038 Q503.8438,560.3444 503.8438,558.5475 Q503.8438,556.5163 504.5,555.0631 Q505.1563,553.61 506.4375,552.8288 Q507.7188,552.0475 509.5938,552.0475 Q510.4844,552.0475 511.1563,552.235 Q511.8281,552.4069 512.5156,552.7506 L511.7031,554.7663 Q511.0781,554.4538 510.5313,554.3288 Q510,554.2038 509.5156,554.2038 Q508.3438,554.2038 507.6406,554.735 Q506.9375,555.2663 506.6406,556.2194 Q506.3438,557.1725 506.3438,558.4381 Q506.3438,560.4538 507.0625,561.4225 Q507.7813,562.3756 509.375,562.3756 Q509.9688,562.3756 510.5938,562.2194 Q511.2188,562.0631 512.0469,561.6881 L512.0469,563.9069 Q511.3125,564.2194 510.5156,564.3756 Q509.7344,564.5319 508.9688,564.5319 Z " fill="#000000"/><text fill="#000000" font-family="sans-serif" font-size="14" lengthAdjust="spacing" textLength="40" x="530" y="563.042">Mujer</text><line style="stroke:#181818;stroke-width:0.5;" x1="445.75" x2="621.75" y1="573.61" y2="573.61"/><line style="stroke:#181818;stroke-width:0.5;" x1="445.75" x2="621.75" y1="581.61" y2="581.61"/><ellipse cx="455.75" cy="596.644" fill="#84BE84" rx="3" ry="3" style="stroke:#038048;stroke-width:1.0;"/><text fill="#000000" font-family="sans-serif" font-size="14" lengthAdjust="spacing" textLength="152" x="464.75" y="600.5759">escucharHalago(): void</text><ellipse cx="455.75" cy="615.7119" fill="#84BE84" rx="3" ry="3" style="stroke:#038048;stroke-width:1.0;"/><text fill="#000000" font-family="sans-serif" font-size="14" lengthAdjust="spacing" textLength="148" x="464.75" y="619.6439">escucharPiropo(): void</text></g><!--class Recepcionista--><g id="elem_Recepcionista"><rect codeLine="16" fill="#F1F1F1" height="105.2038" id="Recepcionista" rx="2.5" ry="2.5" style="stroke:#181818;stroke-width:0.5;" width="231" x="279.25" y="210.27"/><ellipse cx="344" cy="226.27" fill="#ADD1B2" rx="11" ry="11" style="stroke:#181818;stroke-width:1.0;"/><path d="M343.4688,233.1919 Q341.7188,233.1919 340.5781,232.4575 Q339.4531,231.7075 338.8906,230.3637 Q338.3438,229.0044 338.3438,227.2075 Q338.3438,225.1762 339,223.7231 Q339.6563,222.27 340.9375,221.4887 Q342.2188,220.7075 344.0938,220.7075 Q344.9844,220.7075 345.6563,220.895 Q346.3281,221.0669 347.0156,221.4106 L346.2031,223.4262 Q345.5781,223.1137 345.0313,222.9887 Q344.5,222.8637 344.0156,222.8637 Q342.8438,222.8637 342.1406,223.395 Q341.4375,223.9262 341.1406,224.8794 Q340.8438,225.8325 340.8438,227.0981 Q340.8438,229.1137 341.5625,230.0825 Q342.2813,231.0356 343.875,231.0356 Q344.4688,231.0356 345.0938,230.8794 Q345.7188,230.7231 346.5469,230.3481 L346.5469,232.5669 Q345.8125,232.8794 345.0156,233.0356 Q344.2344,233.1919 343.4688,233.1919 Z " fill="#000000"/><text fill="#000000" font-family="sans-serif" font-size="14" lengthAdjust="spacing" textLength="93" x="364.5" y="231.702">Recepcionista</text><line style="stroke:#181818;stroke-width:0.5;" x1="280.25" x2="509.25" y1="242.27" y2="242.27"/><line style="stroke:#181818;stroke-width:0.5;" x1="280.25" x2="509.25" y1="250.27" y2="250.27"/><ellipse cx="290.25" cy="265.304" fill="#84BE84" rx="3" ry="3" style="stroke:#038048;stroke-width:1.0;"/><text fill="#000000" font-family="sans-serif" font-size="14" lengthAdjust="spacing" textLength="205" x="299.25" y="269.2359">recibir(persona: Persona): void</text><ellipse cx="290.25" cy="284.3719" fill="#84BE84" rx="3" ry="3" style="stroke:#038048;stroke-width:1.0;"/><text fill="#000000" font-family="sans-serif" font-size="14" lengthAdjust="spacing" textLength="204" x="299.25" y="288.3039">recibirPropina(euros: int): void</text><ellipse cx="290.25" cy="303.4398" fill="#84BE84" rx="3" ry="3" style="stroke:#038048;stroke-width:1.0;"/><text fill="#000000" font-family="sans-serif" font-size="14" lengthAdjust="spacing" textLength="149" x="299.25" y="307.3718">agradecerVisita(): void</text></g><!--class Restaurante--><g id="elem_Restaurante"><rect codeLine="22" fill="#F1F1F1" height="124.2717" id="Restaurante" rx="2.5" ry="2.5" style="stroke:#181818;stroke-width:0.5;" width="303" x="104.25" y="7"/><ellipse cx="210.5" cy="23" fill="#ADD1B2" rx="11" ry="11" style="stroke:#181818;stroke-width:1.0;"/><path d="M209.9688,29.9219 Q208.2188,29.9219 207.0781,29.1875 Q205.9531,28.4375 205.3906,27.0938 Q204.8438,25.7344 204.8438,23.9375 Q204.8438,21.9063 205.5,20.4531 Q206.1563,19 207.4375,18.2188 Q208.7188,17.4375 210.5938,17.4375 Q211.4844,17.4375 212.1563,17.625 Q212.8281,17.7969 213.5156,18.1406 L212.7031,20.1563 Q212.0781,19.8438 211.5313,19.7188 Q211,19.5938 210.5156,19.5938 Q209.3438,19.5938 208.6406,20.125 Q207.9375,20.6563 207.6406,21.6094 Q207.3438,22.5625 207.3438,23.8281 Q207.3438,25.8438 208.0625,26.8125 Q208.7813,27.7656 210.375,27.7656 Q210.9688,27.7656 211.5938,27.6094 Q212.2188,27.4531 213.0469,27.0781 L213.0469,29.2969 Q212.3125,29.6094 211.5156,29.7656 Q210.7344,29.9219 209.9688,29.9219 Z " fill="#000000"/><text fill="#000000" font-family="sans-serif" font-size="14" lengthAdjust="spacing" textLength="82" x="231" y="28.432">Restaurante</text><line style="stroke:#181818;stroke-width:0.5;" x1="105.25" x2="406.25" y1="39" y2="39"/><rect fill="none" height="6" style="stroke:#C82930;stroke-width:1.0;" width="6" x="112.25" y="51.034"/><text fill="#000000" font-family="sans-serif" font-size="14" lengthAdjust="spacing" textLength="191" x="124.25" y="57.9659">recepcionista: Recepcionista</text><line style="stroke:#181818;stroke-width:0.5;" x1="105.25" x2="406.25" y1="66.0679" y2="66.0679"/><rect fill="#F24D5C" height="6" style="stroke:#C82930;stroke-width:1.0;" width="6" x="112.25" y="78.1019"/><text fill="#000000" font-family="sans-serif" font-size="14" lengthAdjust="spacing" textLength="160" x="124.25" y="85.0339">simularEscenario(): void</text><rect fill="#F24D5C" height="6" style="stroke:#C82930;stroke-width:1.0;" width="6" x="112.25" y="97.1698"/><text fill="#000000" font-family="sans-serif" font-size="14" lengthAdjust="spacing" textLength="277" x="124.25" y="104.1018">simularEscenario(persona: Persona): void</text><ellipse cx="115.25" cy="119.2377" fill="#84BE84" rx="3" ry="3" style="stroke:#038048;stroke-width:1.0;"/><text fill="#000000" font-family="sans-serif" font-size="14" lengthAdjust="spacing" textLength="167" x="124.25" y="123.1697">main(args: String[]): void</text></g><!--reverse link Persona to Hombre--><g id="link_Persona_Hombre"><path codeLine="29" d="M227.75,498.92 C227.75,521.17 227.75,530.04 227.75,550.72 " fill="none" id="Persona-backto-Hombre" style="stroke:#181818;stroke-width:1.0;"/><polygon fill="none" points="227.75,480.92,221.75,498.92,233.75,498.92,227.75,480.92" style="stroke:#181818;stroke-width:1.0;"/></g><!--reverse link Persona to Mujer--><g id="link_Persona_Mujer"><path codeLine="30" d="M316.9244,480.8417 C360.0544,501.2917 398.75,519.65 444.47,541.34 " fill="none" id="Persona-backto-Mujer" style="stroke:#181818;stroke-width:1.0;"/><polygon fill="none" points="300.66,473.13,314.3538,486.2632,319.4949,475.4203,300.66,473.13" style="stroke:#181818;stroke-width:1.0;"/></g><!--link Restaurante to Recepcionista--><g id="link_Restaurante_Recepcionista"><path codeLine="32" d="M307.3529,141.3158 C325.6129,166.5058 335.9697,180.7812 353.4597,204.9212 " fill="none" id="Restaurante-Recepcionista" style="stroke:#181818;stroke-width:1.0;"/><polygon fill="#181818" points="300.31,131.6,300.5928,138.8056,307.3529,141.3158,307.0701,134.1103,300.31,131.6" style="stroke:#181818;stroke-width:1.0;"/><polygon fill="#181818" points="356.98,209.78,354.9387,200.145,354.0464,205.731,348.4604,204.8387,356.98,209.78" style="stroke:#181818;stroke-width:1.0;"/><text fill="#000000" font-family="sans-serif" font-size="13" lengthAdjust="spacing" textLength="112" x="334.58" y="176.167">tiene una instancia</text></g><!--link Recepcionista to Persona--><g id="link_Recepcionista_Persona"><path codeLine="34" d="M278.89,308.49 C253.65,320.6 232.21,333.63 224.75,345.48 C215.82,359.67 214.1157,371.7591 215.9857,388.0491 " fill="none" id="Recepcionista-to-Persona" style="stroke:#181818;stroke-width:1.0;"/><polygon fill="#181818" points="216.67,394.01,219.6175,384.6125,216.0998,389.0426,211.6697,385.5249,216.67,394.01" style="stroke:#181818;stroke-width:1.0;"/><text fill="#000000" font-family="sans-serif" font-size="13" lengthAdjust="spacing" textLength="125" x="225.75" y="360.377">usa como par&#225;metro</text></g><!--link Recepcionista to Hombre--><g id="link_Recepcionista_Hombre"><path codeLine="35" d="M368.46,315.74 C352.45,361.21 331.02,428.06 300.25,480.61 C285.13,506.45 266.9973,527.2666 250.6073,546.3666 " fill="none" id="Recepcionista-to-Hombre" style="stroke:#181818;stroke-width:1.0;"/><polygon fill="#181818" points="246.7,550.92,255.5965,546.6948,249.9561,547.1255,249.5254,541.4851,246.7,550.92" style="stroke:#181818;stroke-width:1.0;"/></g><!--reverse link Recepcionista to Hombre--><g id="link_Recepcionista_Hombre"><path codeLine="38" d="M394.9437,321.6352 C386.3337,367.1052 366.02,428.06 335.25,480.61 C320.13,506.45 298.09,531.82 277.52,550.92 " fill="none" id="Recepcionista-backto-Hombre" style="stroke:#181818;stroke-width:1.0;"/><polygon fill="#181818" points="396.06,315.74,390.4554,323.8387,395.1298,320.6527,398.3157,325.3271,396.06,315.74" style="stroke:#181818;stroke-width:1.0;"/></g><!--link Recepcionista to Mujer--><g id="link_Recepcionista_Mujer"><path codeLine="36" d="M423.08,315.72 C428.15,325.52 433.24,335.74 437.75,345.48 C468.97,412.83 498.0831,487.7221 516.1031,535.7721 " fill="none" id="Recepcionista-to-Mujer" style="stroke:#181818;stroke-width:1.0;"/><polygon fill="#181818" points="518.21,541.39,518.795,531.5585,516.4543,536.7084,511.3044,534.3677,518.21,541.39" style="stroke:#181818;stroke-width:1.0;"/></g><!--link Restaurante to Persona--><g id="link_Restaurante_Persona"><path codeLine="40" d="M177.8676,140.5416 C157.3176,162.9916 145.57,181.2 134.75,210.27 C118.45,254.1 119.71,271.21 134.75,315.48 C144.73,344.84 161.0315,368.1588 180.1215,389.7088 " fill="none" id="Restaurante-Persona" style="stroke:#181818;stroke-width:1.0;"/><polygon fill="#181818" points="185.97,131.69,178.9683,133.415,177.8676,140.5416,184.8693,138.8166,185.97,131.69" style="stroke:#181818;stroke-width:1.0;"/><polygon fill="#181818" points="184.1,394.2,181.1263,384.8108,180.7845,390.4573,175.138,390.1155,184.1,394.2" style="stroke:#181818;stroke-width:1.0;"/><text fill="#000000" font-family="sans-serif" font-size="13" lengthAdjust="spacing" textLength="125" x="135.75" y="268.277">usa como par&#225;metro</text></g><!--link Restaurante to Hombre--><g id="link_Restaurante_Hombre"><path codeLine="41" d="M171.91,131.73 C161.52,141.06 151.5,151.01 142.75,161.27 C116.63,191.94 55.27,292 41.75,345.48 C19.84,432.21 104.6298,505.7387 167.0498,547.4087 " fill="none" id="Restaurante-to-Hombre" style="stroke:#181818;stroke-width:1.0;stroke-dasharray:7.0,7.0;"/><polygon fill="#181818" points="172.04,550.74,166.7756,542.4162,167.8815,547.9639,162.3338,549.0698,172.04,550.74" style="stroke:#181818;stroke-width:1.0;"/><text fill="#000000" font-family="sans-serif" font-size="13" lengthAdjust="spacing" textLength="97" x="42.75" y="360.377">instancia directa</text></g><!--link Restaurante to Mujer--><g id="link_Restaurante_Mujer"><path codeLine="42" d="M407.56,110.75 C455.5,131.92 502.52,163.53 527.75,210.27 C585.65,317.54 563.1002,462.7939 546.3102,535.4939 " fill="none" id="Restaurante-to-Mujer" style="stroke:#181818;stroke-width:1.0;stroke-dasharray:7.0,7.0;"/><polygon fill="#181818" points="544.96,541.34,550.8826,533.4709,546.0851,536.4682,543.0878,531.6707,544.96,541.34" style="stroke:#181818;stroke-width:1.0;"/><text fill="#000000" font-family="sans-serif" font-size="13" lengthAdjust="spacing" textLength="97" x="565.16" y="360.377">instancia directa</text></g><rect fill="#DDDDDD" height="115.3396" id="_legend" rx="7.5" ry="7.5" style="stroke:#000000;stroke-width:1.0;" width="646" x="12" y="645.7458"/><text fill="#000000" font-family="sans-serif" font-size="14" font-style="italic" font-weight="bold" lengthAdjust="spacing" textLength="43" x="17" y="665.7118">2Think</text><line style="stroke:#000000;stroke-width:1.0;" x1="12" x2="658" y1="674.8138" y2="674.8138"/><line style="stroke:#000000;stroke-width:1.0;" x1="12" x2="658" y1="676.8138" y2="676.8138"/><text fill="#000000" font-family="sans-serif" font-size="14" lengthAdjust="spacing" textLength="5" x="17" y="694.7797">-</text><text fill="#000000" font-family="sans-serif" font-size="14" font-weight="bold" lengthAdjust="spacing" textLength="84" x="26" y="694.7797">Restaurante</text><text fill="#000000" font-family="sans-serif" font-size="14" lengthAdjust="spacing" textLength="462" x="114" y="694.7797">depende de Persona y crea instancias concretas de Hombre y Mujer.</text><text fill="#000000" font-family="sans-serif" font-size="14" lengthAdjust="spacing" textLength="5" x="17" y="713.8476">-</text><text fill="#000000" font-family="sans-serif" font-size="14" font-weight="bold" lengthAdjust="spacing" textLength="57" x="26" y="713.8476">Hombre</text><text fill="#000000" font-family="sans-serif" font-size="14" lengthAdjust="spacing" textLength="487" x="87" y="713.8476">depende de Recepcionista porque recibe una instancia como par&#225;metro</text><text fill="#000000" font-family="sans-serif" font-size="14" lengthAdjust="spacing" textLength="5" x="17" y="732.9155">-</text><text fill="#000000" font-family="sans-serif" font-size="14" font-weight="bold" lengthAdjust="spacing" textLength="40" x="26" y="732.9155">Mujer</text><text fill="#000000" font-family="sans-serif" font-size="14" lengthAdjust="spacing" textLength="526" x="70" y="732.9155">no depende de Recepcionista. Solo recibe llamadas, no invoca m&#233;todos suyos.</text><text fill="#000000" font-family="sans-serif" font-size="14" lengthAdjust="spacing" textLength="5" x="17" y="751.9834">-</text><text fill="#000000" font-family="sans-serif" font-size="14" font-weight="bold" lengthAdjust="spacing" textLength="95" x="26" y="751.9834">Recepcionista</text><text fill="#000000" font-family="sans-serif" font-size="14" lengthAdjust="spacing" textLength="528" x="125" y="751.9834">depende de Hombre y Mujer porque hace casting y llama m&#233;todos espec&#237;ficos</text><!--SRC=[ZLHDZzD03BtFh_2n5DALE4QbDwIz85Kiue8uk3FUrf3C1C_CIXNmOpXou5VqZ-4soJOVoufSadZydj-phS5TJ88sWQqmHjYInE0HlXlGvsN4AZkKnOiI7WAxDkWeDkHO8Zt6VnhJucz3lHFguKAMTonRh6fqkD1VQYm7pp5X2U-7lpEcT_aBIKz4qMPxGBd52lTXBAS_sxA49imbZSfCb2sQrc_P6nynz_ALbpqkA4k89R1FeopS2pgj8HyvSiAd16ZXBEXJtvZYkKwq6P7hNA6yZPOy2eyzpq-VzL4Z-mNANiNV9M6___Hv8B8V-Vf7KNJp6ySkap1cQ6DP59j9Oqj8J9uWAuozHhnbFAE6IOLJN4zUGeu8DjG16fJJhvgIX2b0ypjDyuDEMBTpHPvgccfsnNzKlm9MRjKNX_Bg2NJroIhxBBTTsQTIJKLxyWugkazclTkiUVFwmu7zr_KDRzOtkurveuyfOBaSi2wNuAXH7EdxKVWHhD2Wnr5DU0qb_TAqJl2nLREwSBQnCTsudKsGRvdWil6J6SvwT6Qya2kX3__aNC5Tg49FMLLulWFYgpE4_KEm2FNfTmekH8Zv6EAgip-W62iUE-ib7z0IM8n9zrhFBdMkpEUhofx-tBCDqIXHEmVp5m00]--></g></svg>