<?xml version="1.0" encoding="us-ascii" standalone="no"?><svg xmlns="http://www.w3.org/2000/svg" xmlns:xlink="http://www.w3.org/1999/xlink" contentStyleType="text/css" height="395px" preserveAspectRatio="none" style="width:405px;height:395px;background:#FFFFFF;" version="1.1" viewBox="0 0 405 395" width="405px" zoomAndPan="magnify"><defs/><g><line style="stroke:#181818;stroke-width:0.5;stroke-dasharray:5.0,5.0;" x1="55" x2="55" y1="39.0679" y2="357.4221"/><line style="stroke:#181818;stroke-width:0.5;stroke-dasharray:5.0,5.0;" x1="174" x2="174" y1="39.0679" y2="357.4221"/><line style="stroke:#181818;stroke-width:0.5;stroke-dasharray:5.0,5.0;" x1="295" x2="295" y1="39.0679" y2="357.4221"/><line style="stroke:#181818;stroke-width:0.5;stroke-dasharray:5.0,5.0;" x1="370" x2="370" y1="39.0679" y2="357.4221"/><rect fill="#E2E2F0" height="33.0679" rx="2.5" ry="2.5" style="stroke:#181818;stroke-width:0.5;" width="100" x="5" y="5"/><text fill="#000000" font-family="sans-serif" font-size="14" lengthAdjust="spacing" textLength="86" x="12" y="26.9659">:Restaurante</text><rect fill="#E2E2F0" height="33.0679" rx="2.5" ry="2.5" style="stroke:#181818;stroke-width:0.5;" width="100" x="5" y="356.4221"/><text fill="#000000" font-family="sans-serif" font-size="14" lengthAdjust="spacing" textLength="86" x="12" y="378.388">:Restaurante</text><rect fill="#E2E2F0" height="33.0679" rx="2.5" ry="2.5" style="stroke:#181818;stroke-width:0.5;" width="84" x="132" y="5"/><text fill="#000000" font-family="sans-serif" font-size="14" lengthAdjust="spacing" textLength="70" x="139" y="26.9659">:Camarero</text><rect fill="#E2E2F0" height="33.0679" rx="2.5" ry="2.5" style="stroke:#181818;stroke-width:0.5;" width="84" x="132" y="356.4221"/><text fill="#000000" font-family="sans-serif" font-size="14" lengthAdjust="spacing" textLength="70" x="139" y="378.388">:Camarero</text><rect fill="#E2E2F0" height="33.0679" rx="2.5" ry="2.5" style="stroke:#181818;stroke-width:0.5;" width="72" x="259" y="5"/><text fill="#000000" font-family="sans-serif" font-size="14" lengthAdjust="spacing" textLength="58" x="266" y="26.9659">:Hombre</text><rect fill="#E2E2F0" height="33.0679" rx="2.5" ry="2.5" style="stroke:#181818;stroke-width:0.5;" width="72" x="259" y="356.4221"/><text fill="#000000" font-family="sans-serif" font-size="14" lengthAdjust="spacing" textLength="58" x="266" y="378.388">:Hombre</text><rect fill="#E2E2F0" height="33.0679" rx="2.5" ry="2.5" style="stroke:#181818;stroke-width:0.5;" width="58" x="341" y="5"/><text fill="#000000" font-family="sans-serif" font-size="14" lengthAdjust="spacing" textLength="44" x="348" y="26.9659">:Mujer</text><rect fill="#E2E2F0" height="33.0679" rx="2.5" ry="2.5" style="stroke:#181818;stroke-width:0.5;" width="58" x="341" y="356.4221"/><text fill="#000000" font-family="sans-serif" font-size="14" lengthAdjust="spacing" textLength="44" x="348" y="378.388">:Mujer</text><line style="stroke:#181818;stroke-width:1.0;" x1="55" x2="97" y1="72.7739" y2="72.7739"/><line style="stroke:#181818;stroke-width:1.0;" x1="97" x2="97" y1="72.7739" y2="85.7739"/><line style="stroke:#181818;stroke-width:1.0;" x1="56" x2="97" y1="85.7739" y2="85.7739"/><polygon fill="#181818" points="66,81.7739,56,85.7739,66,89.7739,62,85.7739" style="stroke:#181818;stroke-width:1.0;"/><text fill="#000000" font-family="sans-serif" font-size="13" lengthAdjust="spacing" textLength="101" x="62" y="66.9649">simularEscenario</text><polygon fill="#181818" points="162,113.4799,172,117.4799,162,121.4799,166,117.4799" style="stroke:#181818;stroke-width:1.0;"/><line style="stroke:#181818;stroke-width:1.0;" x1="55" x2="168" y1="117.4799" y2="117.4799"/><text fill="#000000" font-family="sans-serif" font-size="13" lengthAdjust="spacing" textLength="95" x="62" y="111.6709">recibir(Hombre)</text><polygon fill="#181818" points="283,145.186,293,149.186,283,153.186,287,149.186" style="stroke:#181818;stroke-width:1.0;"/><line style="stroke:#181818;stroke-width:1.0;" x1="174" x2="289" y1="149.186" y2="149.186"/><text fill="#000000" font-family="sans-serif" font-size="13" lengthAdjust="spacing" textLength="75" x="181" y="143.377">aceptar(this)</text><polygon fill="#181818" points="185,176.892,175,180.892,185,184.892,181,180.892" style="stroke:#181818;stroke-width:1.0;"/><line style="stroke:#181818;stroke-width:1.0;" x1="179" x2="294" y1="180.892" y2="180.892"/><text fill="#000000" font-family="sans-serif" font-size="13" lengthAdjust="spacing" textLength="66" x="191" y="175.083">visitar(this)</text><polygon fill="#181818" points="283,208.598,293,212.598,283,216.598,287,212.598" style="stroke:#181818;stroke-width:1.0;"/><line style="stroke:#181818;stroke-width:1.0;" x1="174" x2="289" y1="212.598" y2="212.598"/><text fill="#000000" font-family="sans-serif" font-size="13" lengthAdjust="spacing" textLength="97" x="181" y="206.789">recibirPalmada()</text><polygon fill="#181818" points="162,240.304,172,244.304,162,248.304,166,244.304" style="stroke:#181818;stroke-width:1.0;"/><line style="stroke:#181818;stroke-width:1.0;" x1="55" x2="168" y1="244.304" y2="244.304"/><text fill="#000000" font-family="sans-serif" font-size="13" lengthAdjust="spacing" textLength="80" x="62" y="238.495">recibir(Mujer)</text><polygon fill="#181818" points="358,272.01,368,276.01,358,280.01,362,276.01" style="stroke:#181818;stroke-width:1.0;"/><line style="stroke:#181818;stroke-width:1.0;" x1="174" x2="364" y1="276.01" y2="276.01"/><text fill="#000000" font-family="sans-serif" font-size="13" lengthAdjust="spacing" textLength="75" x="181" y="270.201">aceptar(this)</text><polygon fill="#181818" points="185,303.716,175,307.716,185,311.716,181,307.716" style="stroke:#181818;stroke-width:1.0;"/><line style="stroke:#181818;stroke-width:1.0;" x1="179" x2="369" y1="307.716" y2="307.716"/><text fill="#000000" font-family="sans-serif" font-size="13" lengthAdjust="spacing" textLength="66" x="191" y="301.907">visitar(this)</text><polygon fill="#181818" points="358,335.4221,368,339.4221,358,343.4221,362,339.4221" style="stroke:#181818;stroke-width:1.0;"/><line style="stroke:#181818;stroke-width:1.0;" x1="174" x2="364" y1="339.4221" y2="339.4221"/><text fill="#000000" font-family="sans-serif" font-size="13" lengthAdjust="spacing" textLength="85" x="181" y="333.6131">recibirPiropo()</text><!--SRC=[XOzD2i8m48NtEKNeAbbuWIpSYE1646ymJGCTQPemINiVp-B5R9qMOmNTlldUpqIWZ1OZz5dMG2u72KbMvkfIXe4csLKY5f1jGxSm1_2JWq8bFWXe7lUUYLFmDMq2t0XyF0ytHvDtgTtjrm569lH31tHCrlL064g81nX9pcADfBX32zOdWFkD1EjY1bAvnQG5guL_n8JlyvTxYRz0vw41fNzDU7rIPCmlRljdxNyxEzTkf123qay0]--></g></svg>